<svg width="48" height="56" viewBox="0 0 48 56" fill="none" xmlns="http://www.w3.org/2000/svg">
<path fill-rule="evenodd" clip-rule="evenodd" d="M16 2.22222C16 0.994923 16.9949 0 18.2222 0H29.7778C31.0051 0 32 0.994923 32 2.22222C32 3.44952 31.0051 4.44444 29.7778 4.44444H26.6667V8.14648C29.8302 8.49619 32.8085 9.46079 35.4792 10.9181L37.5052 8.06676C38.145 7.16635 39.3936 6.95506 40.294 7.59484L41.6306 8.54453C42.531 9.18432 42.7423 10.4329 42.1025 11.3333L40.0785 14.1818C44.9429 18.574 48 24.93 48 32C48 45.2548 37.2548 56 24 56C10.7452 56 0 45.2548 0 32C0 19.6465 9.33347 9.47299 21.3333 8.14648V4.44444H18.2222C16.9949 4.44444 16 3.44952 16 2.22222ZM43 32C43 42.4934 34.4934 51 24 51C13.5066 51 5 42.4934 5 32C5 21.5066 13.5066 13 24 13C34.4934 13 43 21.5066 43 32Z" fill="#D6504F"/>
</svg>
