<svg width="1398" height="425" viewBox="0 0 1398 425" fill="none" xmlns="http://www.w3.org/2000/svg">
<path d="M565.705 230.403C564.721 242.403 561.18 253.123 555.084 262.566C548.987 271.812 540.923 279.68 530.893 286.173C524.206 290.303 517.028 294.041 509.357 297.386C501.687 300.73 494.017 303.287 486.346 305.058C479.463 306.631 472.677 307.32 465.991 307.123C459.5 306.926 452.912 306.434 446.225 305.648C444.651 307.418 442.685 308.598 440.325 309.188C438.161 309.976 435.998 310.073 433.834 309.483C429.311 308.303 426.557 305.45 425.574 300.926C423.214 298.565 422.034 295.713 422.034 292.369C422.034 288.041 424.001 284.598 427.934 282.041C429.114 274.173 429.999 266.304 430.589 258.435C431.376 250.566 431.966 242.599 432.359 234.534C432.949 225.091 433.441 215.747 433.834 206.501C434.228 197.256 434.326 187.911 434.129 178.469C434.129 172.568 433.933 166.469 433.539 160.174C433.146 153.879 432.949 147.683 432.949 141.584C432.949 135.289 433.244 129.093 433.834 122.994C434.621 116.896 436.096 110.995 438.26 105.29C437.276 102.142 437.473 98.8963 438.85 95.5521C440.226 92.2079 442.881 90.1424 446.815 89.3556C449.175 86.7982 451.928 85.6178 455.075 85.8145C458.419 86.0112 461.172 87.0933 463.335 89.0604C472.973 89.8473 482.315 91.7161 491.362 94.6669C500.605 97.421 509.062 101.946 516.733 108.241C526.173 115.716 533.744 124.765 539.448 135.388C545.151 145.813 549.773 156.634 553.314 167.846C554.887 172.764 556.461 177.781 558.034 182.895C559.804 188.01 561.279 193.223 562.459 198.534C563.836 203.846 564.82 209.157 565.41 214.468C566 219.78 566.097 225.091 565.705 230.403ZM516.438 267.288C518.994 265.713 521.256 264.14 523.223 262.566C525.387 260.993 527.55 259.123 529.713 256.96C531.483 254.993 532.859 253.419 533.843 252.238C534.827 251.059 536.006 249.288 537.384 246.927C540.727 240.042 542.3 232.271 542.103 223.615C542.103 218.698 541.711 214.173 540.923 210.042C540.137 205.715 538.957 200.895 537.384 195.583C535.81 190.076 534.138 184.666 532.368 179.354C530.795 173.846 528.926 168.535 526.763 163.42C525.189 159.092 523.026 154.469 520.272 149.551C517.715 144.437 515.061 140.207 512.307 136.863C505.424 128.6 497.655 122.699 489.001 119.159C480.348 115.421 470.907 113.257 460.68 112.666C458.517 118.175 457.14 123.978 456.55 130.076C456.157 135.978 456.059 141.978 456.255 148.076C456.452 154.174 456.747 160.273 457.14 166.37C457.73 172.469 457.927 178.371 457.73 184.076C456.944 200.796 456.157 217.32 455.37 233.648C454.78 249.976 453.403 266.402 451.24 282.926C454.78 283.32 458.32 283.615 461.86 283.812C465.597 284.008 469.236 283.91 472.776 283.517C480.249 282.73 487.723 280.861 495.197 277.911C502.867 274.763 509.947 271.222 516.438 267.288ZM664.828 167.256C671.122 166.469 677.71 166.273 684.594 166.665C691.478 166.863 698.066 168.043 704.36 170.207C710.653 172.174 716.357 175.224 721.47 179.354C726.584 183.486 730.518 188.895 733.271 195.583C735.237 200.305 736.221 205.124 736.221 210.042C736.418 214.763 735.729 219.386 734.156 223.911C732.779 228.239 730.615 232.469 727.665 236.599C724.912 240.533 721.667 244.173 717.931 247.517C709.867 254.795 701.017 260.993 691.379 266.107C681.742 271.222 671.613 275.156 660.993 277.911C656.469 279.091 651.749 280.173 646.832 281.156C642.113 281.943 637.293 282.336 632.377 282.336C627.46 282.336 622.642 281.845 617.921 280.861C613.202 279.68 608.776 277.812 604.646 275.255C601.696 273.484 599.926 271.123 599.336 268.173C598.155 264.828 596.878 261.681 595.5 258.73C594.123 255.779 592.747 252.731 591.37 249.583C590.19 246.436 589.206 243.288 588.42 240.141C587.634 236.993 587.24 233.747 587.24 230.403C587.24 223.714 588.617 217.419 591.37 211.518C594.321 205.419 598.254 200.108 603.171 195.583C611.431 187.715 620.969 181.42 631.787 176.698C642.604 171.977 653.617 168.83 664.828 167.256ZM698.165 192.633C692.854 190.666 687.151 189.682 681.053 189.682C674.563 189.486 668.073 190.173 661.584 191.748C655.093 193.125 648.898 195.092 642.997 197.649C637.491 199.813 631.787 202.862 625.886 206.796C620.183 210.534 615.955 215.157 613.202 220.665C611.628 223.615 610.841 226.665 610.841 229.813C611.038 232.763 611.529 235.813 612.316 238.96C613.299 241.91 614.479 244.96 615.856 248.108C617.43 251.059 618.806 254.009 619.987 256.96C623.133 257.746 625.1 258.14 625.886 258.14C626.28 258.337 626.772 258.435 627.362 258.435C627.952 258.435 628.443 258.435 628.837 258.435C632.77 258.828 636.311 258.73 639.457 258.14C641.62 258.14 644.374 257.746 647.718 256.96C652.831 255.976 657.748 254.698 662.468 253.123C667.188 251.354 671.515 249.484 675.449 247.517C679.972 245.353 684.397 242.993 688.724 240.436C693.051 237.878 696.69 235.222 699.639 232.469C701.607 230.698 703.475 228.829 705.245 226.862C706.228 225.879 706.916 225.091 707.31 224.501C708.293 223.124 709.079 222.141 709.669 221.551C710.26 220.763 710.752 219.879 711.145 218.895C711.932 217.518 712.325 216.436 712.325 215.649C712.521 215.256 712.62 214.763 712.62 214.173C712.816 213.584 713.014 213.091 713.21 212.698V209.452C713.014 208.666 712.915 208.075 712.915 207.682C712.915 207.289 712.816 206.895 712.62 206.501C712.03 205.124 711.44 204.14 710.85 203.551C710.457 202.763 709.964 201.977 709.374 201.19C709.572 201.387 709.277 201.091 708.49 200.305C707.9 199.518 707.506 199.026 707.31 198.829L704.95 196.468C703.966 195.878 702.884 195.19 701.704 194.404C700.524 193.616 699.345 193.026 698.165 192.633ZM826.199 167.256C832.493 166.469 839.081 166.273 845.965 166.665C852.849 166.863 859.437 168.043 865.731 170.207C872.024 172.174 877.728 175.224 882.841 179.354C887.955 183.486 891.888 188.895 894.642 195.583C896.609 200.305 897.592 205.124 897.592 210.042C897.789 214.763 897.1 219.386 895.527 223.911C894.151 228.239 891.987 232.469 889.036 236.599C886.283 240.533 883.038 244.173 879.301 247.517C871.238 254.795 862.388 260.993 852.75 266.107C843.113 271.222 832.984 275.156 822.364 277.911C817.84 279.091 813.121 280.173 808.204 281.156C803.483 281.943 798.665 282.336 793.749 282.336C788.831 282.336 784.013 281.845 779.292 280.861C774.573 279.68 770.147 277.812 766.017 275.255C763.067 273.484 761.297 271.123 760.707 268.173C759.527 264.828 758.249 261.681 756.871 258.73C755.495 255.779 754.118 252.731 752.742 249.583C751.561 246.436 750.578 243.288 749.791 240.141C749.005 236.993 748.611 233.747 748.611 230.403C748.611 223.714 749.988 217.419 752.742 211.518C755.692 205.419 759.625 200.108 764.542 195.583C772.803 187.715 782.341 181.42 793.158 176.698C803.975 171.977 814.989 168.83 826.199 167.256ZM859.536 192.633C854.225 190.666 848.522 189.682 842.425 189.682C835.935 189.486 829.445 190.173 822.954 191.748C816.464 193.125 810.269 195.092 804.368 197.649C798.862 199.813 793.158 202.862 787.258 206.796C781.554 210.534 777.326 215.157 774.573 220.665C772.999 223.615 772.212 226.665 772.212 229.813C772.409 232.763 772.9 235.813 773.688 238.96C774.67 241.91 775.851 244.96 777.227 248.108C778.801 251.059 780.178 254.009 781.358 256.96C784.505 257.746 786.471 258.14 787.258 258.14C787.651 258.337 788.143 258.435 788.733 258.435C789.323 258.435 789.814 258.435 790.208 258.435C794.141 258.828 797.682 258.73 800.829 258.14C802.992 258.14 805.746 257.746 809.089 256.96C814.202 255.976 819.119 254.698 823.839 253.123C828.56 251.354 832.887 249.484 836.82 247.517C841.343 245.353 845.769 242.993 850.096 240.436C854.422 237.878 858.061 235.222 861.01 232.469C862.978 230.698 864.846 228.829 866.616 226.862C867.599 225.879 868.288 225.091 868.681 224.501C869.664 223.124 870.451 222.141 871.041 221.551C871.631 220.763 872.123 219.879 872.516 218.895C873.302 217.518 873.696 216.436 873.696 215.649C873.892 215.256 873.991 214.763 873.991 214.173C874.187 213.584 874.385 213.091 874.581 212.698V209.452C874.385 208.666 874.286 208.075 874.286 207.682C874.286 207.289 874.187 206.895 873.991 206.501C873.401 205.124 872.811 204.14 872.221 203.551C871.828 202.763 871.336 201.977 870.746 201.19C870.943 201.387 870.648 201.091 869.861 200.305C869.271 199.518 868.878 199.026 868.681 198.829L866.321 196.468C865.337 195.878 864.256 195.19 863.076 194.404C861.895 193.616 860.715 193.026 859.536 192.633ZM947.154 195.583C954.234 191.256 961.806 187.518 969.87 184.371C978.13 181.223 986.489 179.748 994.946 179.944C994.159 163.224 993.47 146.601 992.88 130.076C992.487 113.552 992.192 96.9292 991.995 80.2081C991.995 76.4705 993.175 73.7164 995.536 71.9459C997.896 69.9787 1000.55 68.9951 1003.5 68.9951C1006.45 68.9951 1009.11 69.9787 1011.47 71.9459C1014.02 73.7164 1015.3 76.4705 1015.3 80.2081C1015.5 99.6833 1015.99 119.257 1016.78 138.928C1017.56 158.403 1018.35 177.879 1019.14 197.354C1019.92 216.829 1020.51 236.403 1020.91 256.074C1021.3 275.55 1021.2 295.025 1020.61 314.5C1020.41 318.238 1019.04 321.09 1016.48 323.057C1013.92 325.024 1011.17 326.008 1008.22 326.008C1005.27 326.008 1002.62 325.024 1000.26 323.057C997.896 321.287 996.814 318.434 997.011 314.5C997.011 313.123 997.011 311.745 997.011 310.369C997.011 308.992 997.11 307.615 997.306 306.238C995.339 306.041 993.373 305.844 991.406 305.648C989.636 305.648 987.865 305.648 986.095 305.648C983.735 305.648 981.376 305.648 979.015 305.648C976.655 305.648 974.393 305.549 972.23 305.353C967.116 304.959 962.002 304.467 956.889 303.877C951.776 303.287 946.761 302.107 941.844 300.336C936.927 298.369 932.305 296.008 927.978 293.254C923.651 290.303 920.111 286.468 917.357 281.746C914.211 276.828 911.556 271.517 909.392 265.812C907.426 260.107 906.639 254.206 907.033 248.108C907.426 242.009 908.802 236.403 911.162 231.288C913.523 226.174 916.472 221.452 920.013 217.124C923.75 212.796 927.88 208.862 932.404 205.321C937.123 201.78 942.04 198.534 947.154 195.583ZM997.601 282.926C997.601 256.566 997.011 230.108 995.831 203.551C989.341 203.157 982.85 204.338 976.36 207.091C970.066 209.649 964.264 212.6 958.954 215.944C956.004 217.714 952.759 219.78 949.219 222.141C945.876 224.304 942.729 226.862 939.779 229.813C937.025 232.566 934.764 235.615 932.994 238.96C931.223 242.304 930.338 245.943 930.338 249.878C930.535 253.419 931.322 257.255 932.699 261.385C934.075 265.321 935.943 268.566 938.303 271.123C940.664 273.68 943.319 275.648 946.269 277.025C949.219 278.206 952.366 279.189 955.709 279.975C959.643 280.763 963.38 281.254 966.919 281.451C970.656 281.648 974.492 281.845 978.425 282.041C981.572 282.041 984.719 282.238 987.866 282.631C991.012 282.829 994.258 282.926 997.601 282.926ZM1069.29 71.6508C1072.83 71.6508 1075.58 72.8311 1077.55 75.1918C1079.52 77.5524 1080.7 80.3065 1081.09 83.454C1083.06 102.142 1084.14 120.831 1084.33 139.518C1084.53 158.207 1084.24 176.896 1083.45 195.583C1082.86 214.272 1081.88 232.96 1080.5 251.648C1079.12 270.336 1077.75 288.926 1076.37 307.418C1075.98 310.762 1074.7 313.516 1072.53 315.681C1070.57 318.04 1067.91 319.221 1064.57 319.221C1061.62 319.221 1058.87 318.04 1056.31 315.681C1053.75 313.516 1052.57 310.762 1052.77 307.418C1054.14 288.926 1055.52 270.336 1056.9 251.648C1058.47 232.96 1059.55 214.272 1060.14 195.583C1060.93 176.896 1061.22 158.207 1061.03 139.518C1060.83 120.831 1059.75 102.142 1057.78 83.454C1057.39 80.3065 1058.47 77.5524 1061.03 75.1918C1063.58 72.8311 1066.34 71.6508 1069.29 71.6508ZM1123.28 188.797C1127.01 183.682 1131.44 179.158 1136.55 175.224C1141.86 171.288 1147.47 168.24 1153.37 166.076C1159.27 163.715 1165.36 162.535 1171.66 162.535C1177.95 162.338 1184.24 163.518 1190.54 166.076C1196.63 168.436 1202.14 171.682 1207.06 175.814C1211.98 179.748 1215.81 184.863 1218.56 191.157C1220.73 195.878 1222.01 200.994 1222.4 206.501C1222.79 212.01 1221.32 217.025 1217.97 221.551C1215.02 225.681 1211.39 228.829 1207.06 230.993C1202.93 233.157 1198.41 234.731 1193.49 235.714C1188.77 236.698 1183.85 237.19 1178.74 237.19C1173.82 237.19 1169.1 237.091 1164.58 236.894C1159.46 236.698 1154.35 236.304 1149.24 235.714C1144.32 235.124 1139.3 234.534 1134.19 233.943C1135.76 242.796 1138.91 250.665 1143.63 257.55C1148.35 264.435 1154.74 269.649 1162.81 273.189C1164.97 273.975 1166.64 274.566 1167.82 274.959C1168.41 275.156 1168.9 275.353 1169.3 275.55C1169.89 275.55 1170.48 275.55 1171.07 275.55C1172.64 275.746 1173.92 275.944 1174.9 276.14C1176.08 276.14 1177.16 276.041 1178.15 275.845C1179.52 275.648 1180.41 275.55 1180.8 275.55C1181.39 275.353 1181.98 275.156 1182.57 274.959C1184.74 274.369 1186.6 273.68 1188.18 272.894C1189.95 272.107 1192.01 270.828 1194.37 269.058C1195.55 268.074 1197.13 266.599 1199.09 264.632C1201.06 262.665 1202.73 260.894 1204.11 259.321C1206.08 256.566 1208.44 254.698 1211.19 253.714C1214.14 252.731 1217.09 253.123 1220.04 254.894C1222.6 256.468 1224.37 258.927 1225.35 262.271C1226.53 265.418 1226.14 268.369 1224.17 271.123C1218.47 278.796 1211.68 285.386 1203.81 290.893C1196.14 296.205 1187.29 299.058 1177.26 299.451C1169.2 299.844 1161.43 298.467 1153.96 295.32C1146.48 291.976 1139.9 287.549 1134.19 282.041C1127.11 275.156 1121.51 267.189 1117.38 258.14C1113.25 249.091 1110.98 239.845 1110.59 230.403C1108.82 229.026 1107.44 227.353 1106.46 225.386C1105.67 223.223 1105.38 221.058 1105.57 218.895C1105.97 216.73 1106.75 214.763 1107.93 212.994C1109.11 211.025 1110.89 209.747 1113.25 209.157C1115.41 201.878 1118.75 195.092 1123.28 188.797ZM1194.08 195.878C1191.92 193.125 1188.57 190.666 1184.05 188.502C1180.31 186.928 1175.89 186.141 1170.77 186.141C1165.86 186.141 1161.63 187.026 1158.09 188.797C1153.56 190.961 1149.53 194.01 1145.99 197.944C1142.45 201.682 1139.6 205.911 1137.44 210.633C1142.16 211.223 1146.88 211.813 1151.6 212.403C1156.32 212.994 1161.04 213.386 1165.76 213.584C1168.31 213.584 1170.87 213.584 1173.43 213.584C1175.98 213.584 1178.54 213.485 1181.1 213.289C1181.88 213.289 1182.57 213.289 1183.16 213.289C1183.95 213.091 1184.74 212.994 1185.52 212.994C1187.29 212.6 1188.57 212.403 1189.36 212.403C1190.34 212.206 1191.33 211.911 1192.31 211.518C1193.1 211.321 1194.08 211.025 1195.26 210.633C1196.24 210.239 1196.83 209.944 1197.03 209.747C1197.22 209.551 1197.52 209.354 1197.91 209.157L1198.8 205.616C1198.41 204.829 1198.11 204.14 1197.91 203.551C1197.91 202.763 1197.72 202.076 1197.32 201.485C1197.13 200.895 1196.63 200.01 1195.85 198.829C1195.26 197.649 1194.67 196.666 1194.08 195.878ZM1251.02 183.191C1251.21 179.453 1252.59 176.698 1255.15 174.928C1257.7 172.96 1260.46 171.977 1263.41 171.977C1266.36 171.977 1268.91 172.96 1271.08 174.928C1273.44 176.698 1274.52 179.453 1274.32 183.191C1274.32 184.371 1274.22 185.649 1274.03 187.026C1274.03 188.206 1274.03 189.387 1274.03 190.567C1280.32 187.42 1286.91 184.764 1293.79 182.6C1300.87 180.239 1307.85 178.764 1314.74 178.174C1321.82 177.583 1328.6 178.174 1335.09 179.944C1341.78 181.519 1347.88 184.666 1353.38 189.387C1356.14 191.944 1357.32 194.699 1356.92 197.649C1356.73 200.6 1355.55 203.157 1353.38 205.321C1351.42 207.289 1348.86 208.567 1345.71 209.157C1342.57 209.551 1339.52 208.567 1336.57 206.206C1334.41 204.435 1331.95 203.157 1329.19 202.371C1326.64 201.583 1323.79 201.288 1320.64 201.485C1317.69 201.485 1314.64 201.78 1311.49 202.371C1308.54 202.961 1305.69 203.649 1302.94 204.435C1292.51 207.78 1282.78 212.206 1273.73 217.714C1274.12 227.353 1274.71 236.993 1275.5 246.632C1276.29 254.698 1276.98 263.058 1277.57 271.713C1278.16 280.173 1279.83 288.238 1282.58 295.91C1283.76 299.451 1283.47 302.402 1281.7 304.762C1280.12 307.32 1277.86 308.992 1274.91 309.778C1272.16 310.566 1269.21 310.369 1266.06 309.188C1263.11 308.009 1261.05 305.648 1259.87 302.106C1258.29 297.582 1257.21 292.959 1256.62 288.238C1256.03 283.517 1255.44 278.796 1254.85 274.074C1254.46 269.55 1253.97 265.025 1253.38 260.501C1252.98 255.779 1252.59 251.156 1252.2 246.632C1251.21 236.009 1250.52 225.485 1250.13 215.058C1249.93 204.435 1250.23 193.813 1251.02 183.191Z" fill="#363636"/>
<path d="M868.569 347.35C838.034 328.37 463.793 333.115 433.264 337.207C410.24 342.041 422.324 353.576 457.687 353.576C492.417 353.576 742.378 363.719 862.462 363.719C862.462 363.719 885.125 357.641 868.569 347.35Z" fill="#F56767"/>
<path d="M323.351 332.394C330.556 334.608 337.441 328.148 335.688 320.819L313.189 226.798L230.91 303.993L323.351 332.394Z" fill="#D99E82"/>
<mask id="mask0" mask-type="alpha" maskUnits="userSpaceOnUse" x="230" y="226" width="106" height="107">
<path d="M323.351 332.395C330.556 334.608 337.442 328.148 335.688 320.82L313.188 226.798L230.91 303.992L323.351 332.395Z" fill="#D99E82"/>
</mask>
<g mask="url(#mask0)">
<ellipse rx="20.8601" ry="13.1246" transform="matrix(-0.710125 0.666399 0.666045 0.709571 330.451 328.172)" fill="#292F33"/>
<path d="M295.796 355.663C302.613 341.55 268.058 275.322 251.343 266.697L180.016 295.698L225.946 361.608L295.796 355.663Z" fill="#BF8366"/>
</g>
<rect width="113.556" height="198.519" transform="matrix(-0.728728 0.684803 0.684804 0.728728 177.715 82.1317)" fill="#D6504F"/>
<rect width="42.4813" height="198.519" transform="matrix(-0.728728 0.684803 0.684803 0.728728 125.921 130.804)" fill="#CD3A39"/>
<path d="M144.677 47.4109C129.962 31.7345 105.316 30.9614 89.628 45.684L64.0683 69.6705C48.3802 84.3931 47.5907 109.036 62.3051 124.713L82.4764 146.203L164.848 68.9008L144.677 47.4109Z" fill="#F3788A"/>
<mask id="mask1" mask-type="alpha" maskUnits="userSpaceOnUse" x="51" y="35" width="114" height="112">
<path d="M144.675 47.4095C129.961 31.7339 105.316 30.9608 89.6284 45.6827L64.0669 69.6709C48.3794 84.3928 47.59 109.035 62.3037 124.71L82.477 146.203L164.848 68.9016L144.675 47.4095Z" fill="#F3788A"/>
</mask>
<g mask="url(#mask1)">
<path d="M126.957 135.336C126.957 135.336 90.5817 77.6753 29.4851 70.7894L2.68598 104.369L84.5771 176.772L126.957 135.336Z" fill="#E8596D"/>
</g>
<rect width="113.556" height="18.7898" transform="matrix(-0.728728 0.684803 0.684803 0.728728 164.848 68.4391)" fill="#C5C5C5"/>
<rect width="42.4813" height="18.7898" transform="matrix(-0.728728 0.684804 0.684803 0.728728 113.054 117.111)" fill="#AA9A9A"/>
</svg>
