<svg width="110" height="110" viewBox="0 0 110 110" fill="none" xmlns="http://www.w3.org/2000/svg">
<path d="M90.8688 37.8166C90.9868 37.7135 91.103 37.6071 91.2152 37.4948L95.8928 32.8172C98.6606 30.0493 98.6606 25.5617 95.8928 22.7939L87.2058 14.1069C84.4379 11.339 79.9503 11.339 77.1826 14.1069L72.5051 18.7844C72.3927 18.8968 72.2864 19.013 72.1832 19.131L90.8688 37.8166Z" fill="#F7735B"/>
<path d="M24.5603 85.4399L33.7986 94.6782L22.9148 96.3235L12.0312 97.9688L13.6765 87.085L15.3218 76.2014L24.5603 85.4399Z" fill="#F7735B"/>
<path d="M75.0112 26.9704L25.5626 76.4186L22.8897 73.7458L72.3381 24.2976L69.6653 21.6247L17.5439 73.7458L36.2543 92.4561L88.3756 40.3348L75.0112 26.9704Z" fill="#F7735B"/>
</svg>
