<svg width="30" height="26" viewBox="0 0 30 26" fill="none" xmlns="http://www.w3.org/2000/svg">
<path d="M15 0C0.345179 0 0 16.4087 0 19.6548C0 22.9056 6.71337 25.5372 15 25.5372C23.2843 25.5372 30 22.9056 30 19.6548C30 16.4087 29.6525 0 15 0Z" fill="#FCC21B"/>
<path d="M19.9147 14.4972C18.6467 13.4207 16.6813 12.7264 15.0023 12.7264C13.3234 12.7264 11.3557 13.4183 10.09 14.4972C8.53318 15.8224 6.99045 18.128 7.46008 19.88C7.57044 20.2881 7.77473 20.7174 8.02363 21.034C8.33828 21.4351 8.86662 21.7892 9.31277 21.9323C10.2027 22.2161 11.1396 22.0074 11.9756 21.5922C12.8186 21.1747 13.4925 20.5626 15.0023 20.5626C16.5122 20.5626 17.1861 21.1747 18.0291 21.5922C18.8651 22.005 19.802 22.2138 20.6919 21.9323C21.1381 21.7892 21.6687 21.4327 21.981 21.034C22.23 20.7174 22.4342 20.2881 22.5446 19.88C23.0142 18.128 21.4715 15.8224 19.9147 14.4972Z" fill="#ED6C30"/>
<path d="M19.2807 7.94163C19.1797 7.2849 19.7127 6.77359 20.3491 6.65632C20.9854 6.5414 21.6617 7.05036 22.0069 7.82435C22.3779 8.6476 22.1196 10.538 20.2364 10.986C18.1958 11.4692 16.9654 9.4732 16.7728 8.38491C16.5756 7.26614 16.9513 5.24906 19.2502 4.38828C21.6194 3.49936 23.3383 5.19042 23.9934 6.32092" stroke="#2F2F2F" stroke-width="2" stroke-miterlimit="10" stroke-linecap="round" stroke-linejoin="round"/>
<path d="M9.60859 6.90737C9.97255 7.46324 9.70016 8.15045 9.16948 8.51869C8.6388 8.88692 7.81225 8.70163 7.1759 8.14107C6.49728 7.54298 5.94782 5.71588 7.47881 4.53143C9.13661 3.24847 11.0832 4.55723 11.7078 5.46961C12.3489 6.40544 12.8443 8.39907 11.1091 10.1324C9.31976 11.9196 7.0538 11.094 5.99243 10.3341" stroke="#2F2F2F" stroke-width="2" stroke-miterlimit="10" stroke-linecap="round" stroke-linejoin="round"/>
</svg>
