<svg width="30" height="27" viewBox="0 0 30 27" fill="none" xmlns="http://www.w3.org/2000/svg">
<path d="M14.9508 0C0.346875 0 0 16.3734 0 19.6148C0 22.8563 6.69375 25.4813 14.9508 25.4813C23.2102 25.4813 29.9016 22.8539 29.9016 19.6148C29.9016 16.3734 29.557 0 14.9508 0Z" fill="url(#paint0_linear)"/>
<path d="M18.8086 18.9446C18.8086 22.2469 17.0813 23.6391 14.9508 23.6391C12.8204 23.6391 11.093 22.2469 11.093 18.9446C11.093 15.6422 12.8204 11.679 14.9508 11.679C17.0813 11.679 18.8086 15.6422 18.8086 18.9446Z" fill="#ED6C30"/>
<path d="M23.7044 8.75579C23.9421 6.61896 22.5184 4.70682 20.5244 4.48491C18.5304 4.26301 16.7211 5.81537 16.4833 7.9522C16.2455 10.089 17.6692 12.0012 19.6633 12.2231C21.6573 12.445 23.4666 10.8926 23.7044 8.75579Z" fill="white"/>
<path d="M21.661 8.34842C21.6071 9.12186 20.9251 9.71248 20.1399 9.66561C19.3524 9.62108 18.7571 8.95311 18.811 8.17967C18.8626 7.40389 19.5423 6.81561 20.3298 6.86248C21.1173 6.90701 21.7149 7.57264 21.661 8.34842Z" fill="#2F2F2F"/>
<path d="M10.1954 12.2395C12.196 12.0886 13.6868 10.2283 13.5251 8.08431C13.3634 5.94037 11.6105 4.32469 9.60983 4.47557C7.60916 4.62646 6.11838 6.48678 6.28008 8.63072C6.44177 10.7747 8.19471 12.3903 10.1954 12.2395Z" fill="white"/>
<path d="M11.4399 8.06019C11.5289 8.83129 10.9688 9.53675 10.1883 9.63519C9.40551 9.73597 8.6977 9.18988 8.60863 8.42113C8.51488 7.65004 9.07504 6.94457 9.85785 6.84379C10.6383 6.74535 11.3485 7.2891 11.4399 8.06019Z" fill="#2F2F2F"/>
<path d="M6.76639 26.1539C7.86561 26.4657 9.13826 25.9828 9.16639 24.9352L9.32108 21.4735C9.32576 21.4172 9.5742 17.7164 7.65936 15.7407L7.63123 15.7102C6.28358 14.1258 5.69295 13.0032 5.08826 11.0274C4.8867 10.3735 4.41092 9.75941 3.59295 9.85785C3.01405 9.92816 2.45623 10.1743 2.49373 12.0211C2.53826 14.1727 2.96717 16.3149 3.82967 17.8149C5.03436 19.9125 4.7203 22.3078 4.85155 23.843C4.93123 24.8063 5.60858 25.8657 6.76639 26.1539Z" fill="#E48C15"/>
<path d="M23.1352 26.1539C22.036 26.4657 20.7634 25.9828 20.7352 24.9352L20.5805 21.4735C20.5759 21.4172 20.3274 17.7164 22.2423 15.7407L22.2704 15.7102C23.618 14.1258 24.2087 13.0032 24.8134 11.0274C25.0149 10.3735 25.4907 9.75941 26.3087 9.85785C26.8876 9.92816 27.4454 10.1743 27.4079 12.0211C27.3634 14.1727 26.9344 16.3149 26.0719 17.8149C24.8673 19.9125 25.1813 22.3078 25.0501 23.843C24.9704 24.8063 24.293 25.8657 23.1352 26.1539Z" fill="#E48C15"/>
<defs>
<linearGradient id="paint0_linear" x1="14.9508" y1="13.3657" x2="14.9508" y2="-1.25719" gradientUnits="userSpaceOnUse">
<stop stop-color="#FCC21B"/>
<stop offset="0.151" stop-color="#E5BF34"/>
<stop offset="0.473" stop-color="#ABB973"/>
<stop offset="0.935" stop-color="#4FAFD8"/>
<stop offset="1" stop-color="#42ADE7"/>
</linearGradient>
</defs>
</svg>
