<svg width="27" height="28" viewBox="0 0 27 28" fill="none" xmlns="http://www.w3.org/2000/svg">
<path d="M26.1885 16.5418C25.8815 15.9043 25.3775 15.2457 24.5549 14.8238C24.1179 14.5508 23.6434 14.3431 23.1463 14.2074C23.5049 12.8949 22.9963 11.8496 22.2815 11.0691C21.2197 9.92535 20.1088 9.75894 20.1088 9.75894H20.1065C20.4721 9.04879 20.6104 8.22613 20.4252 7.41754C20.1908 6.4191 19.6541 5.79098 18.9463 5.37144C18.2221 4.94254 17.3268 4.7316 16.408 4.56754C15.9674 4.48785 14.1088 4.22769 13.3377 3.16129C12.7166 2.29644 12.6979 0.740194 12.5291 0.273787C12.3486 -0.206681 11.7369 0.0042563 11.069 0.451913C10.2885 0.972225 8.6713 2.64332 8.04786 4.31676C7.57208 5.59879 7.56036 6.70972 7.74786 7.57222C6.97677 7.70113 6.39786 7.96129 6.28771 8.01285C6.25021 8.02457 6.21271 8.03629 6.17286 8.05269C5.46739 8.34332 3.96271 9.69801 3.82677 11.7675C3.77989 12.5035 3.87599 13.2464 4.10802 13.9378C3.18458 14.1957 2.65021 14.5332 2.64083 14.5402C2.17208 14.716 1.42677 15.2316 1.19942 15.5082C0.737706 16.066 0.416612 16.7293 0.226768 17.4254C-0.188076 18.9394 -0.0357319 20.6621 0.700206 22.0589C1.10802 22.8347 1.66583 23.6597 2.27989 24.2902C4.2838 26.3503 7.74317 27.1285 10.4736 27.5785C13.7994 28.1269 17.2822 27.9347 20.3947 26.648C25.0635 24.7214 26.3057 21.623 26.4885 20.7488C26.8986 18.8011 26.4018 16.98 26.1885 16.5418Z" fill="#865D53"/>
<path d="M22.0764 14.8941C22.3142 12.7573 20.8905 10.8451 18.8965 10.6232C16.9024 10.4013 15.0932 11.9537 14.8554 14.0905C14.6176 16.2273 16.0413 18.1395 18.0353 18.3614C20.0294 18.5833 21.8386 17.0309 22.0764 14.8941Z" fill="white"/>
<path d="M20.0338 14.4864C19.9799 15.2598 19.2979 15.8504 18.5127 15.8035C17.7252 15.759 17.1299 15.091 17.1838 14.3176C17.2354 13.5418 17.9151 12.9535 18.7026 13.0004C19.4901 13.045 20.0877 13.7129 20.0338 14.4864Z" fill="#2F2F2F"/>
<path d="M8.5683 18.3773C10.569 18.2264 12.0597 16.3661 11.898 14.2221C11.7364 12.0782 9.98342 10.4625 7.98275 10.6134C5.98209 10.7643 4.49131 12.6246 4.653 14.7685C4.81469 16.9125 6.56763 18.5282 8.5683 18.3773Z" fill="white"/>
<path d="M9.81269 14.1981C9.90175 14.9692 9.34159 15.6747 8.56112 15.7731C7.77831 15.8739 7.0705 15.3278 6.98144 14.559C6.88769 13.7879 7.44784 13.0825 8.23066 12.9817C9.01112 12.8832 9.72128 13.4293 9.81269 14.1981Z" fill="#2F2F2F"/>
<path d="M18.7962 19.9003C18.2759 19.5488 17.6197 19.7808 17.0407 19.9003C15.4236 20.2331 14.0056 20.2472 13.3236 20.2472C12.6415 20.2472 11.2236 20.2331 9.60637 19.9003C9.02746 19.7808 8.37121 19.5488 7.8509 19.9003C7.18996 20.3456 7.67746 21.9488 8.71809 23.0316C9.34621 23.6855 10.8439 24.9558 13.3259 24.9558C15.8056 24.9558 17.3032 23.6855 17.9337 23.0316C18.9697 21.9488 19.4572 20.348 18.7962 19.9003Z" fill="#ED6D31"/>
</svg>
