<svg width="27" height="27" viewBox="0 0 27 27" fill="none" xmlns="http://www.w3.org/2000/svg">
<g clip-path="url(#clip0)">
<path d="M13.5001 2.0166C0.335469 2.0166 0.0253906 16.7738 0.0253906 19.6932C0.0253906 22.6168 6.05609 24.9835 13.5001 24.9835C20.942 24.9835 26.9748 22.6168 26.9748 19.6932C26.9748 16.7738 26.6626 2.0166 13.5001 2.0166Z" fill="#FCC21B"/>
<path d="M20.693 6.92932C20.693 6.92932 21.6021 7.4862 21.7899 8.70752" stroke="#2F2F2F" stroke-width="2" stroke-miterlimit="10" stroke-linecap="round"/>
<path d="M6.30708 6.92932C6.30708 6.92932 5.39794 7.4862 5.21021 8.70752" stroke="#2F2F2F" stroke-width="2" stroke-miterlimit="10" stroke-linecap="round"/>
<path d="M8.85731 13.057C7.9102 13.0654 7.13395 12.1563 7.1234 11.0278C7.11285 9.89505 7.87223 8.97114 8.81934 8.9627C9.76434 8.95427 10.5427 9.86341 10.5532 10.9961C10.5638 12.1268 9.80231 13.0486 8.85731 13.057Z" fill="#2F2F2F"/>
<path d="M18.1618 13.057C19.1068 13.0549 19.8725 12.1373 19.8704 11.0088C19.8683 9.8761 19.0984 8.96274 18.1534 8.96485C17.2063 8.96696 16.4384 9.88453 16.4406 11.0173C16.4427 12.1458 17.2147 13.0591 18.1618 13.057Z" fill="#2F2F2F"/>
<path d="M8.19702 19.5097C10.8443 16.16 17.2969 14.2025 19.7965 17.221" stroke="#2F2F2F" stroke-width="5" stroke-miterlimit="10" stroke-linecap="round" stroke-linejoin="round"/>
</g>
<defs>
<clipPath id="clip0">
<rect width="27" height="27" fill="white"/>
</clipPath>
</defs>
</svg>
