<svg width="30" height="26" viewBox="0 0 30 26" fill="none" xmlns="http://www.w3.org/2000/svg">
<path d="M14.9719 0C0.344532 0 0 16.3969 0 19.6406C0 22.8891 6.70078 25.5187 14.9719 25.5187C23.2406 25.5187 29.9438 22.8891 29.9438 19.6406C29.9438 16.3969 29.5969 0 14.9719 0Z" fill="#FCC21B"/>
<path d="M22.0498 10.7297C22.0498 10.5235 22.0193 10.329 21.9748 10.1415C21.5436 10.0313 21.0959 9.87661 20.6412 9.62114C20.225 9.38829 19.827 9.12425 19.4506 8.8313C18.9045 9.20161 18.5342 9.90708 18.5342 10.7297C18.5342 11.9274 19.3193 12.8977 20.292 12.8977C21.2646 12.9 22.0498 11.9297 22.0498 10.7297Z" fill="#2F2F2F"/>
<path d="M18.7241 7.38745C18.7241 7.38745 17.714 8.0062 17.5054 9.36323" stroke="#2F2F2F" stroke-width="0.703125" stroke-miterlimit="10" stroke-linecap="round"/>
<path d="M7.79053 10.7297C7.79053 10.5235 7.821 10.329 7.86553 10.1415C8.29678 10.0313 8.74443 9.87661 9.19912 9.62114C9.66084 9.36099 10.0476 9.09849 10.3897 8.8313C10.9358 9.20161 11.3062 9.90708 11.3062 10.7297C11.3062 11.9274 10.521 12.8977 9.54834 12.8977C8.57568 12.9 7.79053 11.9297 7.79053 10.7297Z" fill="#2F2F2F"/>
<path d="M11.1162 7.38745C11.1162 7.38745 12.1264 8.0062 12.335 9.36323" stroke="#2F2F2F" stroke-width="0.703125" stroke-miterlimit="10" stroke-linecap="round"/>
<path d="M10.0171 20.6368C10.4836 20.9508 11.0718 20.7446 11.5898 20.6368C13.0382 20.3368 14.3086 20.325 14.9179 20.325C15.5273 20.325 16.8 20.3368 18.2461 20.6368C18.764 20.7446 19.3523 20.9508 19.8187 20.6368C20.4093 20.236 19.9734 18.8016 19.0429 17.8313C18.4804 17.2454 17.1375 16.1086 14.9156 16.1086C12.6937 16.1086 11.3531 17.2454 10.7882 17.8313C9.86246 18.804 9.42652 20.2383 10.0171 20.6368Z" fill="#ED6C30"/>
<path d="M27.8556 13.8374C27.4618 14.8921 26.6532 15.4687 26.0298 15.5694C25.329 15.6819 24.736 15.4968 24.3563 15.0491C23.8759 14.4819 23.8079 13.589 24.1595 12.5343C24.7993 10.6382 25.0243 7.17179 25.029 7.13898C25.0384 7.00539 25.1204 6.89289 25.2493 6.85539C25.3735 6.81085 25.5095 6.85539 25.5962 6.95617C28.4954 10.453 28.2587 12.7687 27.8556 13.8374Z" fill="white"/>
</svg>
