<svg width="30" height="26" viewBox="0 0 30 26" fill="none" xmlns="http://www.w3.org/2000/svg">
<path d="M14.9508 0C0.346875 0 0 16.3734 0 19.6148C0 22.8563 6.69375 25.4813 14.9508 25.4813C23.2102 25.4813 29.9016 22.8539 29.9016 19.6148C29.9016 16.3734 29.557 0 14.9508 0Z" fill="#FCC21B"/>
<path d="M9.04224 18.9515C12.143 15.7172 17.7586 15.7172 20.8594 18.9515" stroke="#2F2F2F" stroke-width="1.40625" stroke-miterlimit="10" stroke-linecap="round"/>
<path d="M22.8586 9.42887C22.8319 9.35039 22.7888 9.27848 22.7323 9.21787C22.6757 9.15727 22.6069 9.10936 22.5305 9.07731C22.3758 9.01168 22.2023 9.01403 22.05 9.08434L18.1805 10.8539C18.1805 10.8539 17.9273 10.9734 17.6672 10.9687C17.1352 10.9617 17.0789 10.6546 16.9406 10.4203C16.8773 10.3078 16.7203 10.1976 16.5727 10.2586C16.3219 10.364 16.3383 10.9125 16.357 11.0507C16.4156 11.4586 16.5328 11.775 16.6453 12.0023C16.7836 12.2789 17.093 12.6632 17.1984 12.764C17.7727 13.3359 18.7617 13.6945 19.7672 13.6359C20.1797 13.6148 20.5781 13.5234 20.9531 13.3711C23.0578 12.5062 23.2453 10.5375 22.8586 9.42887Z" fill="#2F2F2F"/>
<path d="M7.09221 9.42887C7.11893 9.35039 7.16198 9.27848 7.21855 9.21787C7.27511 9.15727 7.34389 9.10936 7.42034 9.07731C7.57503 9.01168 7.74846 9.01403 7.90315 9.08434L11.7727 10.8539C11.7727 10.8539 12.0235 10.9734 12.2836 10.9687C12.8157 10.9617 12.8742 10.6546 13.0078 10.4203C13.0735 10.3078 13.2282 10.1976 13.3758 10.2586C13.6266 10.364 13.6102 10.9125 13.5914 11.0507C13.5352 11.4586 13.418 11.775 13.3032 12.0023C13.1649 12.2789 12.8555 12.6632 12.75 12.764C12.1735 13.3359 11.1867 13.6945 10.1789 13.6359C9.76409 13.6148 9.36565 13.5234 8.99299 13.3711C6.89299 12.5062 6.7055 10.5375 7.09221 9.42887Z" fill="#2F2F2F"/>
</svg>
