<svg width="28" height="30" viewBox="0 0 28 30" fill="none" xmlns="http://www.w3.org/2000/svg">
<path d="M13.9922 5.37097C0.323437 5.37097 0 20.6944 0 23.7296C0 26.76 6.26953 29.221 13.9922 29.221C21.7242 29.221 27.9844 26.76 27.9844 23.7296C27.9867 20.6944 27.6633 5.37097 13.9922 5.37097Z" fill="#E75625"/>
<path d="M18.5531 8.96624C18.7195 8.49515 19.0687 8.05218 19.5914 7.64202C20.0179 7.30686 20.4703 6.97874 20.8218 6.56155C21.8578 5.32874 22.364 3.40921 22.1296 1.80608C22.0757 1.44749 21.7265 0.756084 21.9632 0.430303C22.3734 -0.12751 23.3882 0.449053 23.714 0.770146C24.7335 1.77327 25.3453 3.14905 25.6429 4.53187C26.0156 6.24983 25.964 8.03108 25.3945 9.69515C24.921 11.0733 23.7843 12.435 22.3195 12.7584C21.0632 13.0373 19.7062 12.2076 19.0124 11.2209C18.4523 10.4194 18.307 9.66233 18.5531 8.96624Z" fill="#E75625"/>
<path d="M9.43354 8.76939C9.26713 8.30064 8.9226 7.85767 8.39526 7.44517C7.96635 7.11002 7.52338 6.78189 7.16713 6.3647C6.13354 5.13189 5.62729 3.2147 5.86166 1.61158C5.91557 1.25064 6.2601 0.561579 6.02573 0.235798C5.61791 -0.326702 4.60307 0.252204 4.27495 0.575642C3.25776 1.57877 2.64604 2.95455 2.3437 4.33502C1.97573 6.05064 2.02495 7.83423 2.59682 9.4983C3.06791 10.8764 4.20932 12.2381 5.67182 12.5639C6.92573 12.8428 8.28276 12.0108 8.97182 11.0264C9.53432 10.2225 9.68198 9.46783 9.43354 8.76939Z" fill="#E75625"/>
<path d="M7.80474 20.6147C4.56568 19.9491 4.22584 16.9819 4.45552 15.6929L12.4852 18.0976C12.2579 19.3796 10.0782 21.0788 7.80474 20.6147Z" fill="#2F2F2F"/>
<path d="M8.13533 19.267C5.98611 18.8475 5.79392 16.6795 6.10798 15.8264L11.14 17.4202C11.1095 18.2686 9.65174 19.5647 8.13533 19.267Z" fill="#FBB817"/>
<path d="M20.1819 20.6147C23.421 19.9491 23.7608 16.9819 23.5312 15.6929L15.5015 18.0952C15.7288 19.3796 17.9108 21.0788 20.1819 20.6147Z" fill="#2F2F2F"/>
<path d="M19.849 19.267C21.9982 18.8475 22.1904 16.6795 21.8764 15.8264L16.8467 17.4202C16.8748 18.2686 18.3326 19.5647 19.849 19.267Z" fill="#FBB817"/>
<path d="M13.6923 22.5928C13.8399 22.5928 13.9993 22.5998 14.1564 22.6068C17.8689 22.8295 19.2751 24.8428 19.3337 24.9271C19.5446 25.2318 19.4603 25.6443 19.1603 25.8506C18.8579 26.0568 18.4501 25.9771 18.2415 25.6795C18.1876 25.6045 17.086 24.1115 14.0767 23.9357C11.0767 23.7623 9.76885 25.7217 9.75245 25.7404C9.55791 26.0475 9.14307 26.1365 8.83604 25.9373C8.76287 25.8901 8.69975 25.8289 8.65033 25.7572C8.60091 25.6855 8.56616 25.6048 8.54808 25.5196C8.53 25.4344 8.52895 25.3465 8.54498 25.2609C8.56102 25.1753 8.59382 25.0938 8.64151 25.0209C8.70713 24.9131 10.2493 22.5928 13.6923 22.5928Z" fill="#2F2F2F"/>
</svg>
