<svg width="30" height="26" viewBox="0 0 30 26" fill="none" xmlns="http://www.w3.org/2000/svg">
<path d="M14.9719 0C0.344532 0 0 16.3969 0 19.6406C0 22.8891 6.70078 25.5188 14.9719 25.5188C23.2406 25.5188 29.9437 22.8891 29.9437 19.6406C29.9437 16.3969 29.5969 0 14.9719 0Z" fill="#FCC21B"/>
<path d="M9.86492 12.3611C8.81257 12.3704 7.95007 11.3603 7.93835 10.1064C7.92663 8.84777 8.77038 7.82121 9.82273 7.81183C10.8727 7.80246 11.7376 8.81261 11.7493 10.0712C11.761 11.3251 10.9173 12.3493 9.86492 12.3611Z" fill="#2F2F2F"/>
<path d="M20.2033 12.3611C21.2533 12.3587 22.1041 11.3392 22.1017 10.0853C22.0994 8.82671 21.2439 7.81187 20.1939 7.81421C19.1416 7.81656 18.2884 8.83609 18.2908 10.0947C18.2955 11.3486 19.1509 12.3634 20.2033 12.3611Z" fill="#2F2F2F"/>
<path d="M20.993 17.6227H8.95081C8.56174 17.6227 8.24768 17.3086 8.24768 16.9196C8.24768 16.5305 8.56174 16.2164 8.95081 16.2164H20.9953C21.3844 16.2164 21.6985 16.5305 21.6985 16.9196C21.6985 17.3086 21.3821 17.6227 20.993 17.6227Z" fill="#2F2F2F"/>
</svg>
