<svg width="30" height="26" viewBox="0 0 30 26" fill="none" xmlns="http://www.w3.org/2000/svg">
<path d="M29.6367 19.6734C29.6367 22.9219 23.0063 25.5562 14.8195 25.5562C6.63516 25.5562 0 22.9219 0 19.6734C0 16.4227 0.344532 0 14.8195 0C29.2969 0 29.6367 16.4203 29.6367 19.6734Z" fill="#FCC21B"/>
<path d="M10.9384 17.8407C11.8407 18.8907 11.1165 21.975 13.3407 23.0836C13.7555 23.2922 14.3087 23.4 14.8759 23.3977V23.379V23.3977C15.443 23.3883 15.9938 23.2688 16.404 23.0532C18.6071 21.9 17.8196 18.8297 18.7009 17.761L10.9384 17.8407Z" fill="#D7598B"/>
<path d="M14.8196 18.8157C12.0891 18.8157 9.35865 18.0797 7.02662 16.6102C6.86898 16.5105 6.75728 16.3525 6.71598 16.1706C6.67469 15.9887 6.70717 15.7979 6.80631 15.6399C7.01256 15.3118 7.44849 15.2133 7.77662 15.4196C11.9883 18.0774 17.6485 18.0774 21.8602 15.4196C22.1883 15.2133 22.6219 15.3118 22.8305 15.6399C23.0391 15.968 22.9383 16.4016 22.6102 16.6102C20.2805 18.0821 17.5501 18.8157 14.8196 18.8157Z" fill="#2F2F2F"/>
<path d="M9.71257 13.0571C8.66023 13.0665 7.79773 12.0563 7.78601 10.8024C7.77429 9.54382 8.61804 8.51725 9.67038 8.50788C10.7204 8.4985 11.5852 9.50866 11.5969 10.7673C11.6087 12.0235 10.7649 13.0477 9.71257 13.0571Z" fill="#2F2F2F"/>
<path d="M20.0508 13.0571C21.1008 13.0548 21.9516 12.0353 21.9492 10.7814C21.9469 9.52276 21.0914 8.50791 20.0414 8.51026C18.9891 8.5126 18.136 9.53213 18.1383 10.7907C18.143 12.0446 18.9985 13.0595 20.0508 13.0571Z" fill="#2F2F2F"/>
</svg>
