<svg width="26" height="30" viewBox="0 0 26 30" fill="none" xmlns="http://www.w3.org/2000/svg">
<path d="M21.9329 5.06482C21.9329 5.06482 21.654 4.63591 21.0774 4.54451C20.3603 4.43201 19.6524 4.56091 19.4251 5.60154C19.2001 6.63748 19.0853 7.97107 20.2431 8.90154L18.4618 9.40076L16.936 7.55154C16.936 7.55154 17.5267 7.77654 17.6063 7.33826C17.7048 6.80154 17.7048 6.31638 17.8337 5.49373C17.9696 4.63357 18.2392 3.73357 19.0642 3.25779C19.5142 2.99763 20.2313 2.84998 20.4681 2.66013C20.6509 2.51248 20.7001 2.03904 20.7798 1.52576L22.0501 2.50076L22.4485 4.23513L21.9329 5.06482Z" fill="#D7598B"/>
<path d="M23.1352 5.59219C24.6794 5.59219 25.9313 4.34033 25.9313 2.79609C25.9313 1.25185 24.6794 0 23.1352 0C21.591 0 20.3391 1.25185 20.3391 2.79609C20.3391 4.34033 21.591 5.59219 23.1352 5.59219Z" fill="#FCC21B"/>
<path d="M3.99853 5.06482C3.99853 5.06482 4.27744 4.63591 4.854 4.54451C5.57119 4.43201 6.279 4.56091 6.50635 5.60154C6.73135 6.63748 6.84854 7.97107 5.68838 8.90154L7.46963 9.40076L8.99541 7.55154C8.99541 7.55154 8.40479 7.77654 8.3251 7.33826C8.22666 6.80154 8.22666 6.31638 8.09775 5.49373C7.95947 4.63357 7.69229 3.73357 6.86729 3.25779C6.41728 2.99763 5.7001 2.84998 5.46338 2.66013C5.28057 2.51248 5.23135 2.03904 5.15166 1.52576L3.88135 2.50076L3.48291 4.23513L3.99853 5.06482Z" fill="#D7598B"/>
<path d="M2.79609 5.59219C4.34033 5.59219 5.59219 4.34033 5.59219 2.79609C5.59219 1.25185 4.34033 0 2.79609 0C1.25185 0 0 1.25185 0 2.79609C0 4.34033 1.25185 5.59219 2.79609 5.59219Z" fill="#FCC21B"/>
<path d="M23.1117 26.7164C23.0109 26.1094 23.1164 25.4273 23.2242 24.8812C23.4164 23.8992 23.7656 22.9547 24.1101 22.0195C24.2203 21.7172 24.3328 21.4148 24.4382 21.1125C24.7898 20.1 24.982 19.0266 24.982 17.9086C24.982 11.9391 21.0492 7.10156 12.9679 7.10156C4.88667 7.10156 0.953857 11.9414 0.953857 17.9086C0.953857 18.9516 1.12026 19.957 1.42964 20.9109C2.01089 22.7016 2.95073 24.4852 2.88979 26.4141C2.85464 27.5719 2.1937 28.1648 1.38276 28.8609C1.13198 29.0766 1.08511 29.4281 1.40151 29.6086C2.12808 30.0258 3.35151 29.5641 4.05698 29.2805C4.68745 29.0273 5.27808 28.5938 5.77026 28.0898C6.02339 27.832 6.25776 27.5578 6.48979 27.2836C6.68198 27.0586 7.00073 26.482 7.36636 26.6461C8.16323 27.0047 7.23042 28.4883 6.8273 28.8445C6.66323 28.9898 6.44058 29.1211 6.36558 29.3414C6.2812 29.5828 6.45229 29.7937 6.67026 29.8805C7.27964 30.1242 8.61089 29.7117 9.22026 29.3039C9.6562 29.0109 10.0195 28.6359 10.3242 28.207C10.514 27.9398 10.8421 27.0961 11.2664 27.1969C12.0445 27.3844 11.7164 28.6102 11.7679 29.1422C11.7937 29.4141 11.9507 29.6859 12.2226 29.7914C12.8132 30.0234 13.3335 29.6062 13.6804 29.175C14.0671 28.6945 14.2523 28.1625 14.5546 27.6422C14.796 27.2227 15.2179 27.1359 15.5203 27.5695C15.9609 28.2 16.2328 28.8 16.9335 29.2008C17.5101 29.5289 18.1757 29.7328 18.8414 29.7375C19.1343 29.7375 20.4328 29.5828 19.9945 29.0086C19.8023 28.7602 19.4343 28.6992 19.1835 28.5141C18.771 28.207 18.5812 27.6984 18.5671 27.1969C18.5484 26.482 19.2398 26.6648 19.5796 27.0094C20.1304 27.5672 20.4585 28.3594 21.1687 28.7414C22.0195 29.1984 23.346 29.4211 24.2835 29.1328C24.6023 29.0344 24.9679 28.8961 24.989 28.5117C25.0101 28.1484 24.7007 28.0617 24.4101 27.9797C24.0375 27.8766 23.7796 27.7828 23.4937 27.4969C23.2781 27.2906 23.1609 27.0094 23.1117 26.7164Z" fill="#D7598B"/>
<path d="M14.85 18.9001L19.1203 16.8586C19.1203 16.8586 19.7156 17.7797 19.5703 18.8649C19.4812 19.5141 19.05 20.2711 18.082 20.5946C17.2101 20.8852 16.4929 20.7844 16.0242 20.5758C14.9062 20.0813 14.85 18.9001 14.85 18.9001Z" fill="#BDCF46"/>
<path d="M10.9499 18.9001L6.67964 16.8586C6.67964 16.8586 6.08432 17.7797 6.22964 18.8649C6.3187 19.5141 6.75229 20.2711 7.71792 20.5946C8.58979 20.8852 9.30698 20.7844 9.77573 20.5758C10.896 20.0813 10.9499 18.9001 10.9499 18.9001Z" fill="#BDCF46"/>
<path d="M15.5086 22.2329C15.4219 21.9399 15.1195 21.6868 14.8125 21.6751C14.4445 21.661 14.2102 22.0056 13.9383 22.1954C13.6242 22.4157 13.2328 22.5728 12.8437 22.5376C12.3727 22.4931 12.1242 22.1767 11.7633 21.9189C11.4352 21.6868 11.025 21.6845 10.7344 21.9892C10.5961 22.1345 10.5211 22.3337 10.5328 22.5353C10.5469 22.8001 10.7227 23.0696 10.9102 23.2454C11.6461 23.9415 12.7898 24.0938 13.7414 23.8501C14.4047 23.679 15.7875 23.1634 15.5086 22.2329Z" fill="#2F2F2F"/>
</svg>
