<svg width="30" height="26" viewBox="0 0 30 26" fill="none" xmlns="http://www.w3.org/2000/svg">
<path d="M14.9508 0C0.346875 0 0 16.3734 0 19.6148C0 22.8563 6.69375 25.4813 14.9508 25.4813C23.2102 25.4813 29.9016 22.8539 29.9016 19.6148C29.9016 16.3734 29.557 0 14.9508 0Z" fill="#FCC21B"/>
<path d="M25.6734 19.2796C23.4469 20.0789 20.9906 18.9515 20.1797 16.7531C19.3734 14.557 20.5148 12.1265 22.7414 11.3226C24.9609 10.5234 27.4242 11.6554 28.2375 13.8515C29.0437 16.0523 27.8953 18.4828 25.6734 19.2796Z" fill="#FCC21B"/>
<path d="M25.6195 19.132C23.475 19.9031 21.1102 18.8156 20.332 16.7015C19.5563 14.5874 20.6555 12.2484 22.7977 11.4749C24.9352 10.7062 27.3047 11.796 28.0875 13.9101C28.8633 16.0242 27.757 18.3632 25.6195 19.132Z" fill="#FCC01C"/>
<path d="M25.5633 18.9819C23.5031 19.7225 21.2297 18.6796 20.4797 16.6452C19.7344 14.6155 20.7938 12.3655 22.8516 11.6225C24.907 10.8843 27.1828 11.9296 27.9352 13.9616C28.6805 15.996 27.6188 18.246 25.5633 18.9819Z" fill="#FCBE1C"/>
<path d="M25.5094 18.8344C23.5313 19.5445 21.3516 18.5437 20.6321 16.5914C19.9149 14.6414 20.9297 12.4828 22.9055 11.7703C24.8766 11.0602 27.0633 12.0656 27.7852 14.0156C28.5 15.968 27.4828 18.1266 25.5094 18.8344Z" fill="#FBBB1D"/>
<path d="M25.4555 18.6843C23.5617 19.364 21.4711 18.4054 20.7844 16.5351C20.0977 14.6671 21.0703 12.5999 22.9641 11.9179C24.8531 11.2382 26.9461 12.2015 27.6375 14.0694C28.3195 15.9398 27.3445 18.0069 25.4555 18.6843Z" fill="#FBB91E"/>
<path d="M25.3992 18.5367C23.5875 19.1882 21.5906 18.2695 20.932 16.4835C20.2757 14.6976 21.2062 12.7218 23.0156 12.0679C24.8203 11.4187 26.8218 12.3375 27.4828 14.1234C28.139 15.9117 27.2062 17.8875 25.3992 18.5367Z" fill="#FBB71E"/>
<path d="M25.3453 18.389C23.6179 19.0101 21.7125 18.1336 21.0843 16.4296C20.4586 14.7257 21.3445 12.8414 23.0718 12.2179C24.7945 11.5992 26.7047 12.4757 27.3351 14.1796C27.9586 15.8836 27.0679 17.7703 25.3453 18.389Z" fill="#FBB51F"/>
<path d="M25.2891 18.239C23.6437 18.8296 21.8297 17.9976 21.2344 16.3734C20.6391 14.7515 21.4828 12.9585 23.1258 12.3656C24.7664 11.7749 26.5828 12.6117 27.1828 14.2335C27.7781 15.8554 26.9297 17.6507 25.2891 18.239Z" fill="#FAB220"/>
<path d="M25.2352 18.0914C23.6742 18.6515 21.9516 17.8617 21.3844 16.3218C20.8196 14.782 21.6211 13.0781 23.1797 12.5156C24.736 11.9554 26.461 12.75 27.0305 14.2875C27.5977 15.8273 26.7914 17.5312 25.2352 18.0914Z" fill="#FAB020"/>
<path d="M25.1813 17.9414C23.7024 18.4711 22.0735 17.7235 21.5368 16.2656C21.0024 14.8078 21.7594 13.1953 23.236 12.6633C24.7102 12.1336 26.3438 12.8836 26.8829 14.3414C27.4172 15.7992 26.6555 17.4117 25.1813 17.9414Z" fill="#FAAE21"/>
<path d="M25.125 17.7938C23.7304 18.2953 22.1929 17.5875 21.6844 16.2117C21.1804 14.836 21.8953 13.3149 23.2875 12.8133C24.6773 12.3141 26.2195 13.0219 26.7281 14.3977C27.2344 15.7711 26.5172 17.2946 25.125 17.7938Z" fill="#FAAC22"/>
<path d="M25.0711 17.6438C23.761 18.1149 22.3125 17.4516 21.8368 16.1555C21.361 14.8641 22.036 13.4321 23.3461 12.9587C24.6539 12.4876 26.1024 13.1555 26.5805 14.4469C27.054 15.743 26.379 17.1751 25.0711 17.6438Z" fill="#F9A922"/>
<path d="M25.0171 17.496C23.789 17.9367 22.4343 17.3156 21.989 16.1038C21.5437 14.8945 22.1742 13.5538 23.4023 13.1109C24.6281 12.6703 25.9851 13.2937 26.4328 14.5054C26.8734 15.7148 26.2406 17.0554 25.0171 17.496Z" fill="#F9A723"/>
<path d="M24.9609 17.3461C23.8172 17.7562 22.5539 17.1773 22.1367 16.0476C21.7219 14.9203 22.3102 13.6711 23.4539 13.2562C24.5953 12.8461 25.8609 13.4273 26.2781 14.557C26.693 15.6867 26.1023 16.9383 24.9609 17.3461Z" fill="#F9A524"/>
<path d="M24.907 17.1985C23.8453 17.5805 22.6735 17.0414 22.2891 15.9938C21.9047 14.9485 22.4485 13.7883 23.5102 13.4063C24.5695 13.0266 25.7414 13.5656 26.1281 14.611C26.5125 15.6586 25.9664 16.8188 24.907 17.1985Z" fill="#F9A324"/>
<path d="M24.8508 17.0508C23.8735 17.4023 22.793 16.9055 22.4391 15.9398C22.0852 14.9765 22.5868 13.9078 23.5641 13.5562C24.5391 13.2047 25.6196 13.7039 25.9782 14.6672C26.3321 15.6305 25.8282 16.6992 24.8508 17.0508Z" fill="#F8A025"/>
<path d="M24.7968 16.9007C23.9015 17.2218 22.9148 16.7694 22.589 15.8858C22.2656 15.0046 22.725 14.0273 23.6179 13.7038C24.5109 13.3827 25.5 13.8374 25.8257 14.721C26.1515 15.6023 25.6898 16.5796 24.7968 16.9007Z" fill="#F89E26"/>
<path d="M24.7429 16.7531C23.932 17.0437 23.0367 16.6335 22.7414 15.832C22.4484 15.0328 22.8633 14.1468 23.6742 13.8538C24.4851 13.5632 25.3804 13.9757 25.6781 14.7749C25.9711 15.5742 25.5515 16.4624 24.7429 16.7531Z" fill="#F89C26"/>
<path d="M24.6867 16.6031C23.9578 16.8656 23.1539 16.4953 22.889 15.7758C22.6242 15.0586 22.9992 14.2641 23.7258 13.9992C24.4523 13.7391 25.2562 14.1094 25.5234 14.8266C25.7906 15.5461 25.4133 16.343 24.6867 16.6031Z" fill="#F89A27"/>
<path d="M24.6328 16.4554C23.9882 16.6874 23.2757 16.3593 23.0414 15.7242C22.807 15.089 23.1398 14.3835 23.7843 14.1515C24.4289 13.9195 25.1414 14.2476 25.3757 14.8851C25.6078 15.5179 25.275 16.2234 24.6328 16.4554Z" fill="#F79728"/>
<path d="M24.5789 16.3055C24.0164 16.507 23.3976 16.2234 23.1937 15.668C22.9898 15.1148 23.2781 14.5008 23.8406 14.2992C24.4008 14.0977 25.0219 14.3836 25.2281 14.9367C25.4273 15.4898 25.1391 16.1063 24.5789 16.3055Z" fill="#F79528"/>
<path d="M24.5227 16.1577C24.0446 16.3288 23.5149 16.0874 23.3414 15.614C23.168 15.1429 23.4141 14.6202 23.8922 14.4468C24.3704 14.2757 24.8977 14.5194 25.0735 14.9905C25.2469 15.4616 25.0008 15.9866 24.5227 16.1577Z" fill="#F79329"/>
<path d="M7.39219 19.2796C5.16562 20.0789 2.70937 18.9515 1.89844 16.7531C1.09219 14.557 2.23359 12.1265 4.46016 11.3226C6.67969 10.5234 9.14297 11.6554 9.95625 13.8515C10.7625 16.0523 9.61406 18.4828 7.39219 19.2796Z" fill="#FCC21B"/>
<path d="M7.33828 19.132C5.19375 19.9031 2.82891 18.8156 2.05078 16.7015C1.275 14.5874 2.37422 12.2484 4.51641 11.4749C6.65391 10.7062 9.02344 11.796 9.80625 13.9101C10.582 16.0242 9.47578 18.3632 7.33828 19.132Z" fill="#FCC01C"/>
<path d="M7.28205 18.982C5.22189 19.7227 2.94846 18.6797 2.19846 16.6453C1.45314 14.6156 2.51252 12.3656 4.57033 11.6227C6.6258 10.8844 8.90158 11.9297 9.65392 13.9617C10.3992 15.9961 9.33752 18.2461 7.28205 18.982Z" fill="#FCBE1C"/>
<path d="M7.22816 18.8344C5.25004 19.5445 3.07035 18.5437 2.35082 16.5914C1.63363 14.6414 2.64847 12.4828 4.62426 11.7703C6.59535 11.0602 8.78207 12.0656 9.50394 14.0156C10.2188 15.968 9.2016 18.1266 7.22816 18.8344Z" fill="#FBBB1D"/>
<path d="M7.17424 18.6843C5.28049 19.364 3.18986 18.4054 2.50314 16.5351C1.81642 14.6671 2.78908 12.5999 4.68283 11.9179C6.57189 11.2382 8.66486 12.2015 9.35627 14.0694C10.0383 15.9398 9.0633 18.0069 7.17424 18.6843Z" fill="#FBB91E"/>
<path d="M7.11792 18.5367C5.3062 19.1882 3.30932 18.2695 2.65073 16.4835C1.99448 14.6976 2.92495 12.7218 4.73432 12.0679C6.53901 11.4187 8.54057 12.3375 9.20151 14.1234C9.85776 15.9117 8.92495 17.8875 7.11792 18.5367Z" fill="#FBB71E"/>
<path d="M7.06403 18.389C5.33669 19.0101 3.43122 18.1336 2.80309 16.4296C2.17731 14.7257 3.06325 12.8414 4.7906 12.2179C6.51325 11.5992 8.42341 12.4757 9.05388 14.1796C9.67731 15.8836 8.78669 17.7703 7.06403 18.389Z" fill="#FBB51F"/>
<path d="M7.00781 18.239C5.3625 18.8296 3.54844 17.9976 2.95312 16.3734C2.35781 14.7515 3.20156 12.9585 4.84453 12.3656C6.48516 11.7749 8.30156 12.6117 8.90156 14.2335C9.49687 15.8554 8.64844 17.6507 7.00781 18.239Z" fill="#FAB220"/>
<path d="M6.95394 18.0914C5.393 18.6515 3.67034 17.8617 3.10315 16.3218C2.53831 14.782 3.33987 13.0781 4.89847 12.5156C6.45472 11.9554 8.17972 12.75 8.74925 14.2875C9.31644 15.8273 8.51019 17.5312 6.95394 18.0914Z" fill="#FAB020"/>
<path d="M6.90005 17.9414C5.42114 18.4711 3.79224 17.7235 3.25552 16.2656C2.72114 14.8078 3.47817 13.1953 4.95474 12.6633C6.42895 12.1336 8.06255 12.8836 8.60161 14.3414C9.13599 15.7992 8.37427 17.4117 6.90005 17.9414Z" fill="#FAAE21"/>
<path d="M6.84373 17.7937C5.4492 18.2952 3.9117 17.5874 3.40311 16.2116C2.8992 14.8358 3.61404 13.3147 5.00623 12.8132C6.39607 12.314 7.93826 13.0218 8.44686 14.3976C8.95311 15.771 8.23592 17.2944 6.84373 17.7937Z" fill="#FAAC22"/>
<path d="M6.78989 17.6437C5.47973 18.1148 4.03129 17.4515 3.55551 16.1554C3.07973 14.864 3.75473 13.432 5.06489 12.9585C6.3727 12.4874 7.82114 13.1554 8.29926 14.4468C8.7727 15.7429 8.0977 17.1749 6.78989 17.6437Z" fill="#F9A922"/>
<path d="M6.73588 17.496C5.50775 17.9367 4.15307 17.3156 3.70775 16.1038C3.26244 14.8945 3.89291 13.5538 5.12104 13.1109C6.34682 12.6703 7.70385 13.2937 8.1515 14.5054C8.59213 15.7148 7.95932 17.0554 6.73588 17.496Z" fill="#F9A723"/>
<path d="M6.67968 17.3461C5.53593 17.7562 4.27265 17.1773 3.85546 16.0476C3.44062 14.9203 4.0289 13.6711 5.17265 13.2562C6.31406 12.8461 7.57968 13.4273 7.99687 14.557C8.41171 15.6867 7.82109 16.9383 6.67968 17.3461Z" fill="#F9A524"/>
<path d="M6.6258 17.1985C5.56408 17.5805 4.3922 17.0414 4.00783 15.9938C3.62345 14.9485 4.1672 13.7883 5.22892 13.4063C6.2883 13.0266 7.46017 13.5656 7.84689 14.611C8.23127 15.6586 7.68517 16.8188 6.6258 17.1985Z" fill="#F9A324"/>
<path d="M6.56958 17.0508C5.59223 17.4023 4.51176 16.9055 4.15786 15.9398C3.80395 14.9765 4.30551 13.9078 5.28286 13.5562C6.25786 13.2047 7.33833 13.7039 7.69692 14.6672C8.05083 15.6305 7.54692 16.6992 6.56958 17.0508Z" fill="#F8A025"/>
<path d="M6.51558 16.9007C5.62026 17.2218 4.63355 16.7694 4.30776 15.8858C3.98433 15.0046 4.4437 14.0273 5.33667 13.7038C6.22964 13.3827 7.2187 13.8374 7.54448 14.721C7.87026 15.6023 7.40855 16.5796 6.51558 16.9007Z" fill="#F89E26"/>
<path d="M6.46169 16.7531C5.65075 17.0437 4.75544 16.6335 4.46013 15.832C4.16716 15.0328 4.582 14.1468 5.39294 13.8538C6.20388 13.5632 7.09919 13.9757 7.39685 14.7749C7.68982 15.5742 7.27028 16.4624 6.46169 16.7531Z" fill="#F89C26"/>
<path d="M6.40545 16.6031C5.67655 16.8656 4.87264 16.4953 4.6078 15.7758C4.34295 15.0586 4.71795 14.2641 5.44452 13.9992C6.17108 13.7391 6.97499 14.1094 7.24217 14.8266C7.50936 15.5461 7.13202 16.343 6.40545 16.6031Z" fill="#F89A27"/>
<path d="M6.35153 16.4554C5.707 16.6874 4.9945 16.3593 4.76012 15.7242C4.52575 15.089 4.85856 14.3835 5.50309 14.1515C6.14762 13.9195 6.86012 14.2476 7.0945 14.8851C7.32653 15.5179 6.99372 16.2234 6.35153 16.4554Z" fill="#F79728"/>
<path d="M6.29764 16.3055C5.73514 16.507 5.11639 16.2234 4.91249 15.668C4.70858 15.1148 4.99686 14.5008 5.55936 14.2992C6.11952 14.0977 6.74061 14.3836 6.94686 14.9367C7.14608 15.4898 6.8578 16.1063 6.29764 16.3055Z" fill="#F79528"/>
<path d="M6.24145 16.1577C5.76332 16.3288 5.23363 16.0874 5.0602 15.614C4.88676 15.1429 5.13285 14.6202 5.61098 14.4468C6.0891 14.2757 6.61645 14.5194 6.79223 14.9905C6.96567 15.4616 6.71957 15.9866 6.24145 16.1577Z" fill="#F79329"/>
<path d="M11.1868 17.4867C11.1868 17.4867 12.2274 17.6742 13.3055 18.689C13.9524 19.2961 14.3625 19.4836 14.9485 19.4836" stroke="#2F2F2F" stroke-width="1.40625" stroke-miterlimit="10" stroke-linecap="round" stroke-linejoin="round"/>
<path d="M18.7148 17.4867C18.7148 17.4867 17.6742 17.6742 16.5961 18.689C15.9492 19.2961 15.5391 19.4836 14.9531 19.4836" stroke="#2F2F2F" stroke-width="1.40625" stroke-miterlimit="10" stroke-linecap="round" stroke-linejoin="round"/>
<path d="M23.6565 10.7559C23.8943 8.61908 22.4706 6.70694 20.4765 6.48504C18.4825 6.26313 16.6732 7.81549 16.4355 9.95233C16.1977 12.0892 17.6214 14.0013 19.6154 14.2232C21.6094 14.4451 23.4187 12.8928 23.6565 10.7559Z" fill="white"/>
<path d="M21.6117 10.3477C21.5578 11.1211 20.8758 11.7117 20.0906 11.6649C19.3031 11.6203 18.7078 10.9524 18.7617 10.1789C18.8133 9.40315 19.4929 8.81487 20.2804 8.86175C21.0679 8.90628 21.6656 9.57425 21.6117 10.3477Z" fill="#2F2F2F"/>
<path d="M10.1463 14.2409C12.147 14.09 13.6377 12.2297 13.4761 10.0858C13.3144 7.94184 11.5614 6.32615 9.56076 6.47704C7.56009 6.62793 6.06931 8.48825 6.231 10.6322C6.3927 12.7761 8.14563 14.3918 10.1463 14.2409Z" fill="white"/>
<path d="M11.3906 10.0593C11.4796 10.8304 10.9218 11.5359 10.139 11.6343C9.35619 11.7351 8.64838 11.189 8.55932 10.4202C8.46557 9.64914 9.02572 8.94367 9.80854 8.84289C10.589 8.74445 11.2992 9.29055 11.3906 10.0593Z" fill="#2F2F2F"/>
</svg>
