<svg width="30" height="28" viewBox="0 0 30 28" fill="none" xmlns="http://www.w3.org/2000/svg">
<path d="M0 21.8542C0 25.0956 6.69141 27.7206 14.9508 27.7206C23.2078 27.7206 29.9016 25.0933 29.9016 21.8542C29.9016 18.6128 29.5547 2.2417 14.9508 2.2417C0.344532 2.23936 0 18.6128 0 21.8542Z" fill="#FCC21B"/>
<path d="M23.8899 9.81897C23.8126 9.78147 23.7306 9.75334 23.6462 9.72287C23.5477 9.68537 23.4516 9.64787 23.3509 9.61975C23.1962 9.57287 23.0438 9.52834 22.8915 9.48147C22.7063 9.42287 22.5212 9.36194 22.336 9.301C21.9821 9.18616 21.5368 8.91194 21.3095 9.41819C21.2626 9.52366 21.2087 9.66662 21.2157 9.77912C21.2251 9.96428 21.354 10.0463 21.5134 10.1119C21.6774 10.1776 21.8485 10.2362 22.0173 10.2901C22.0735 10.3088 22.1298 10.3252 22.186 10.3416C22.2188 10.3533 22.2751 10.3604 22.2704 10.4026C22.2681 10.433 22.2306 10.4588 22.2071 10.4776C22.1673 10.508 22.1251 10.5362 22.0806 10.5666L22.0196 10.6088C21.8931 10.6908 21.7688 10.7752 21.6446 10.8526C21.5462 10.9182 21.4454 10.9838 21.3493 11.0518C21.3095 11.0776 21.2696 11.1057 21.2274 11.1315C21.0938 11.2182 20.9813 11.3119 20.8571 11.4104L20.8102 11.4526C20.6954 11.5557 20.5782 11.6705 20.5665 11.8276C20.5501 12.0291 20.7071 12.1229 20.8852 12.2072C20.9485 12.2377 21.0141 12.2612 21.0821 12.2822L21.0868 12.2846C21.3048 12.3783 21.5509 12.4393 21.7852 12.5166C21.9704 12.5752 22.1556 12.6362 22.3407 12.6947C22.6946 12.8096 23.1423 13.0815 23.3673 12.5799C23.4165 12.4744 23.4704 12.3291 23.461 12.2166C23.4516 12.0338 23.3227 11.9494 23.1634 11.8838C22.9993 11.8158 22.8306 11.7596 22.6618 11.7057L22.5493 11.6705C22.5235 11.6612 22.4743 11.6565 22.4579 11.6377C22.4134 11.5932 22.4977 11.5557 22.5259 11.5369C22.6173 11.483 22.7063 11.4244 22.7954 11.3658C22.8891 11.3049 22.9829 11.2463 23.0696 11.176C23.1165 11.1455 23.1634 11.1174 23.2102 11.0869C23.3087 11.019 23.4118 10.958 23.5056 10.8783C23.7423 10.6791 24.3001 10.4447 24.1126 10.0557C24.0751 9.976 23.9766 9.8635 23.8899 9.81897Z" fill="#D7598B"/>
<path d="M27.0141 6.35725C26.9321 6.30568 26.8454 6.26584 26.761 6.22365C26.6555 6.17209 26.5547 6.12287 26.4493 6.07834C26.2875 6.01037 26.1258 5.94709 25.9618 5.87678C25.7672 5.7924 25.5727 5.70568 25.3782 5.61896C25.0008 5.4549 24.5461 5.10803 24.2438 5.63303C24.1805 5.74084 24.1079 5.89318 24.1008 6.01506C24.0915 6.21662 24.2227 6.31975 24.3915 6.40881C24.5625 6.50021 24.7407 6.5799 24.9188 6.65959C24.9774 6.68537 25.0407 6.71115 25.0993 6.73693C25.1344 6.751 25.1954 6.7674 25.1836 6.81193C25.179 6.84475 25.1344 6.86818 25.1086 6.88459C25.0594 6.91271 25.0079 6.94084 24.9586 6.96896C24.9329 6.98303 24.9118 6.99475 24.886 7.00646C24.743 7.08381 24.5954 7.15881 24.45 7.23146C24.3352 7.29006 24.2204 7.35334 24.1079 7.41662C24.061 7.4424 24.0141 7.46584 23.9672 7.48928C23.8125 7.56896 23.6766 7.66037 23.5313 7.75178C23.5125 7.76584 23.4938 7.77756 23.475 7.79162C23.3391 7.89006 23.1985 8.0049 23.1657 8.17365C23.1282 8.39162 23.2875 8.5135 23.4727 8.62365C23.5407 8.6635 23.6063 8.69631 23.679 8.72678L23.6836 8.73146C23.911 8.85568 24.1735 8.95178 24.4219 9.05959C24.6188 9.14397 24.8133 9.23068 25.0079 9.3174C25.3829 9.48146 25.8399 9.82834 26.1422 9.30334C26.2055 9.19553 26.2782 9.04318 26.2852 8.92131C26.2946 8.7174 26.1657 8.61428 25.9969 8.52521C25.8258 8.43381 25.6477 8.35412 25.4696 8.27443L25.35 8.22521C25.3243 8.2135 25.2727 8.20412 25.254 8.18068C25.2094 8.12912 25.3055 8.09397 25.3383 8.0799C25.4438 8.03068 25.5469 7.97678 25.65 7.92287C25.7579 7.86662 25.8657 7.81272 25.9711 7.74475C26.025 7.71662 26.0813 7.69084 26.1329 7.66271C26.25 7.60178 26.3696 7.54553 26.4821 7.46818C26.761 7.27834 27.3938 7.08146 27.2344 6.6385C27.2016 6.54709 27.1055 6.4135 27.0141 6.35725Z" fill="#D7598B"/>
<path d="M29.9204 1.54083C29.8688 1.41896 29.7352 1.24786 29.611 1.17989C29.5009 1.11661 29.3837 1.06739 29.2641 1.01818C29.1259 0.959581 28.9829 0.8963 28.8399 0.844738C28.622 0.76505 28.3993 0.69005 28.1813 0.608019C27.9165 0.509581 27.6516 0.406456 27.3845 0.305675C26.8759 0.111144 26.2477 -0.317763 25.8798 0.399425C25.8048 0.549425 25.7157 0.753331 25.7157 0.917394C25.7157 1.18693 25.8938 1.31583 26.1259 1.42364C26.3602 1.5338 26.6016 1.62755 26.8454 1.7213C26.9274 1.75177 27.0071 1.78224 27.0868 1.81036C27.1337 1.82677 27.2134 1.84552 27.2063 1.90411C27.1993 1.94864 27.1454 1.9838 27.1079 2.00724C27.0446 2.04943 26.979 2.08927 26.9157 2.12911C26.8876 2.14786 26.8548 2.16427 26.8243 2.18536C26.6368 2.29552 26.447 2.40802 26.2595 2.51349C26.1095 2.60021 25.9595 2.68927 25.8141 2.78302C25.7555 2.81818 25.6923 2.85568 25.6313 2.89083C25.4298 3.00568 25.2563 3.13692 25.0688 3.26818L24.9985 3.32443C24.8251 3.46271 24.6423 3.62677 24.6141 3.85177C24.5743 4.14474 24.797 4.29474 25.0501 4.43068C25.1391 4.47755 25.2305 4.51739 25.329 4.55255L25.3384 4.55724C25.6477 4.70958 26.0016 4.81739 26.3391 4.94396C26.604 5.04474 26.8688 5.14552 27.136 5.2463C27.647 5.44083 28.2751 5.86974 28.6407 5.15255C28.7157 5.00489 28.8048 4.79864 28.8048 4.63458C28.8048 4.36505 28.6266 4.23614 28.397 4.12833C28.1602 4.01818 27.9212 3.92443 27.6774 3.83068C27.6235 3.81193 27.5696 3.79318 27.5157 3.77208C27.4782 3.75802 27.4102 3.7463 27.3868 3.71818C27.3259 3.65021 27.4501 3.60099 27.4923 3.57755C27.6282 3.50489 27.7618 3.42755 27.8954 3.34786C28.0337 3.26583 28.1766 3.18849 28.3102 3.09239C28.3805 3.05255 28.4509 3.01271 28.5235 2.97052C28.6735 2.88146 28.8282 2.79708 28.9712 2.68927C29.3345 2.42443 30.1618 2.12208 29.9204 1.54083Z" fill="#D7598B"/>
<path d="M22.4883 14.0002C22.6711 13.7002 23.0602 13.6018 23.3625 13.7822C23.5072 13.8681 23.612 14.0078 23.6542 14.1706C23.6963 14.3335 23.6724 14.5065 23.5875 14.6518C23.5453 14.7244 22.5094 16.4377 20.2196 16.4377C17.9274 16.4377 16.8914 14.7244 16.8469 14.6518C16.7903 14.5544 16.7603 14.4439 16.76 14.3313C16.7597 14.2187 16.7891 14.1079 16.8451 14.0103C16.9012 13.9126 16.982 13.8315 17.0794 13.775C17.1768 13.7185 17.2874 13.6887 17.4 13.6885C17.6157 13.6885 17.8289 13.7986 17.9485 13.9979C17.9789 14.0494 18.6797 15.1604 20.2196 15.1604C21.7594 15.1604 22.4578 14.0471 22.4883 14.0002Z" fill="#2F2F2F"/>
<path d="M6.54144 13.7775C6.64222 13.7166 6.75472 13.6885 6.86254 13.6885C7.08285 13.6885 7.29613 13.8033 7.41566 14.0025C7.44144 14.0494 8.13754 15.1604 9.67972 15.1604C11.2477 15.1604 11.9438 14.0143 11.9508 14.0025C12.0386 13.8604 12.1787 13.7583 12.341 13.7182C12.5033 13.6782 12.6747 13.7034 12.8187 13.7883C12.9626 13.8733 13.0674 14.0114 13.1107 14.1728C13.1539 14.3342 13.1322 14.5062 13.05 14.6518C13.0078 14.7244 11.9719 16.4377 9.67972 16.4377C7.38988 16.4377 6.35629 14.7244 6.3141 14.6518C6.13597 14.3494 6.2391 13.9557 6.54144 13.7775Z" fill="#2F2F2F"/>
<path d="M19.493 19.208C18.675 18.5635 17.0063 17.694 15.0024 17.694C12.9984 17.694 11.3297 18.5635 10.5117 19.208C9.47344 20.026 8.58516 21.2096 8.94376 22.2807C9.10079 22.7471 9.53204 23.1737 10.3641 23.2955C11.1047 23.4033 13.7695 23.4244 15 23.4244C16.2305 23.4244 18.8977 23.401 19.6383 23.2955C20.4727 23.1737 20.9039 22.7471 21.0586 22.2807C21.4195 21.2096 20.5313 20.026 19.493 19.208Z" fill="#ED6C30"/>
</svg>
