<svg width="30" height="26" viewBox="0 0 30 26" fill="none" xmlns="http://www.w3.org/2000/svg">
<path d="M19.9335 6.03516H9.5249V2.76094C9.5249 1.23516 10.7601 0 12.2858 0H17.1726C18.6983 0 19.9335 1.23516 19.9335 2.76094V6.03516Z" fill="#E06055"/>
<path d="M20.5618 3.59995H8.90869V3.10776C8.90869 2.90636 8.9887 2.71322 9.13111 2.5708C9.27352 2.42839 9.46667 2.34839 9.66807 2.34839H19.8048C19.9045 2.34839 20.0033 2.36803 20.0954 2.40619C20.1875 2.44435 20.2712 2.50029 20.3417 2.5708C20.4123 2.64132 20.4682 2.72503 20.5064 2.81716C20.5445 2.90929 20.5642 3.00804 20.5642 3.10776V3.59995H20.5618Z" fill="#CE453E"/>
<path d="M27.8274 11.4L28.3102 0.646856C28.3189 0.488089 28.389 0.33893 28.5057 0.230945C28.6224 0.122961 28.7766 0.0646228 28.9355 0.0682771C29.0945 0.0719314 29.2458 0.137291 29.3574 0.250525C29.4691 0.363759 29.5323 0.515982 29.5336 0.674981V14.4984C29.5336 14.6929 29.4399 14.8781 29.2829 14.9929L27.5461 16.2609L27.8274 11.4Z" fill="#78A3AD"/>
<path d="M1.70391 11.4L1.22344 0.646826C1.21552 0.489748 1.14768 0.341685 1.03388 0.23312C0.920086 0.124555 0.768995 0.0637528 0.611719 0.0632324C0.274219 0.0632324 0 0.337451 0 0.674951V14.4984C0 14.6929 0.09375 14.8781 0.250781 14.9929L1.9875 16.2609L1.70391 11.4Z" fill="#78A3AD"/>
<path d="M2.97432 17.536C4.18201 17.536 5.16104 15.7164 5.16104 13.4719C5.16104 11.2274 4.18201 9.40784 2.97432 9.40784C1.76662 9.40784 0.787598 11.2274 0.787598 13.4719C0.787598 15.7164 1.76662 17.536 2.97432 17.536Z" fill="#E06055"/>
<path d="M2.62964 9.40552H3.2437V17.536H2.62964V9.40552Z" fill="#CE453E"/>
<path d="M3.31641 17.5364H2.70234L2.70234 9.40591H3.31641L3.31641 17.5364Z" fill="#CE453E"/>
<path d="M26.5734 17.536C27.7811 17.536 28.7602 15.7164 28.7602 13.4719C28.7602 11.2274 27.7811 9.40784 26.5734 9.40784C25.3657 9.40784 24.3867 11.2274 24.3867 13.4719C24.3867 15.7164 25.3657 17.536 26.5734 17.536Z" fill="#E06055"/>
<path d="M26.9165 17.5364H26.3024V9.40591H26.9165V17.5364Z" fill="#CE453E"/>
<path d="M26.229 9.40552H26.8431V17.536H26.229V9.40552Z" fill="#CE453E"/>
<path d="M25.8093 6.03286L23.2148 3.49692C22.74 3.03263 22.1023 2.77268 21.4382 2.77271H8.1398C7.47651 2.77271 6.83901 3.03286 6.36323 3.49692L3.7687 6.03286C3.52654 6.26929 3.33418 6.55182 3.20295 6.86378C3.07173 7.17575 3.0043 7.51083 3.00464 7.84927V20.5102C3.00464 21.1946 3.2812 21.8485 3.7687 22.3266L6.36323 24.8625C6.83901 25.3266 7.47417 25.5868 8.1398 25.5868H21.4382C22.1015 25.5868 22.739 25.3266 23.2148 24.8625L25.8093 22.3266C26.2992 21.8485 26.5734 21.1946 26.5734 20.5102V7.84927C26.5734 7.16724 26.2968 6.51099 25.8093 6.03286Z" fill="#78A3AD"/>
<path d="M9.20625 14.3227C11.1 14.3227 12.6352 12.7875 12.6352 10.8938C12.6352 9.00002 11.1 7.46484 9.20625 7.46484C7.31252 7.46484 5.77734 9.00002 5.77734 10.8938C5.77734 12.7875 7.31252 14.3227 9.20625 14.3227Z" fill="#546E7A"/>
<path d="M9.2063 13.05C10.3972 13.05 11.3625 12.0847 11.3625 10.8938C11.3625 9.70293 10.3972 8.73755 9.2063 8.73755C8.01543 8.73755 7.05005 9.70293 7.05005 10.8938C7.05005 12.0847 8.01543 13.05 9.2063 13.05Z" fill="#B8E9F4"/>
<path d="M20.1469 14.3227C22.0407 14.3227 23.5758 12.7875 23.5758 10.8938C23.5758 9.00002 22.0407 7.46484 20.1469 7.46484C18.2532 7.46484 16.718 9.00002 16.718 10.8938C16.718 12.7875 18.2532 14.3227 20.1469 14.3227Z" fill="#546E7A"/>
<path d="M20.147 13.05C21.3378 13.05 22.3032 12.0847 22.3032 10.8938C22.3032 9.70293 21.3378 8.73755 20.147 8.73755C18.9561 8.73755 17.9907 9.70293 17.9907 10.8938C17.9907 12.0847 18.9561 13.05 20.147 13.05Z" fill="#B8E9F4"/>
<path d="M1.64995 10.2117C1.64995 10.2117 0.487451 12.9257 1.13901 15.6398L0.321045 15.0421C0.321045 15.0421 0.38667 13.6875 0.787451 12.1945C1.19058 10.6968 1.64995 10.2117 1.64995 10.2117Z" fill="#64878E"/>
<path d="M27.8813 10.2117C27.8813 10.2117 29.0438 12.9257 28.3923 15.6398L29.2103 15.0421C29.2103 15.0421 29.1446 13.6875 28.7438 12.1945C28.3407 10.6968 27.8813 10.2117 27.8813 10.2117Z" fill="#64878E"/>
<path d="M14.2617 13.1931L12.9984 16.2282C12.8672 16.5423 13.0992 16.8892 13.439 16.8892H15.9164C16.2539 16.8892 16.4859 16.547 16.3594 16.2353L15.1453 13.2001C14.9859 12.804 14.4258 12.7993 14.2617 13.1931Z" fill="#E06055"/>
<path d="M14.6391 13.6385C14.3836 13.5658 14.3063 13.9689 14.1704 14.3228C13.9454 14.9158 13.8844 15.1924 14.0086 15.2369C14.1727 15.2978 14.3157 15.1103 14.536 14.5736C14.7469 14.0697 14.8547 13.6994 14.6391 13.6385Z" fill="#EDA29B"/>
<path d="M18.9821 21.3585H10.5962C9.44541 21.3585 8.51025 20.4257 8.51025 19.2726V18.9656H21.0657V19.2726C21.0657 20.4234 20.1329 21.3585 18.9821 21.3585Z" fill="#B8E9F4"/>
<path d="M19.1882 21.3585H10.3898C9.35386 21.3585 8.51245 20.5171 8.51245 19.4812C8.51245 19.1953 8.74448 18.9656 9.02808 18.9656H20.5523C20.8382 18.9656 21.0679 19.1976 21.0679 19.4812C21.0656 20.5171 20.2265 21.3585 19.1882 21.3585Z" fill="#546E7A" stroke="#546E7A" stroke-width="0.9375" stroke-miterlimit="10"/>
<path d="M10.739 19.2446V21.2134C10.739 21.2134 8.51245 21.0306 8.51245 19.2728L10.739 19.2446Z" fill="#546E7A"/>
<path d="M18.8203 19.2446V21.2134C18.8203 21.2134 21.0469 21.0306 21.0469 19.2728L18.8203 19.2446Z" fill="#546E7A"/>
<path d="M11.6509 19.4673H13.104V20.8642H11.6509V19.4673Z" fill="#B8E9F4"/>
<path d="M13.9502 19.4673H15.4033V20.8642H13.9502V19.4673Z" fill="#B8E9F4"/>
<path d="M16.2493 19.4673H17.7024V20.8642H16.2493V19.4673Z" fill="#B8E9F4"/>
<path d="M18.6048 20.8642H18.5486V19.4673H20.0017C20.0017 20.2384 19.3759 20.8642 18.6048 20.8642Z" fill="#B8E9F4"/>
<path d="M10.8071 20.8642H10.7509C9.97978 20.8642 9.354 20.2384 9.354 19.4673H10.8071V20.8642Z" fill="#B8E9F4"/>
</svg>
