<svg width="30" height="26" viewBox="0 0 30 26" fill="none" xmlns="http://www.w3.org/2000/svg">
<path d="M14.9508 0C0.346875 0 0 16.3734 0 19.6148C0 22.8563 6.69375 25.4813 14.9508 25.4813C23.2102 25.4813 29.9016 22.8539 29.9016 19.6148C29.9016 16.3734 29.557 0 14.9508 0Z" fill="#FCC21B"/>
<path d="M25.6242 15.6164C23.3977 16.4157 20.9414 15.2883 20.1305 13.0899C19.3242 10.8938 20.4656 8.46331 22.6922 7.65941C24.9117 6.86019 27.375 7.99222 28.1883 10.1883C28.9946 12.3868 27.8461 14.8172 25.6242 15.6164Z" fill="#FCC21B"/>
<path d="M25.5703 15.4664C23.4258 16.2375 21.061 15.15 20.2828 13.036C19.5071 10.9219 20.6063 8.58285 22.7485 7.80941C24.886 7.04066 27.2555 8.13051 28.0383 10.2446C28.8141 12.3586 27.7078 14.7 25.5703 15.4664Z" fill="#FCC01C"/>
<path d="M25.5141 15.3187C23.454 16.0593 21.1806 15.0164 20.4306 12.982C19.6852 10.95 20.7423 8.70231 22.8001 7.95934C24.8556 7.22106 27.1313 8.26637 27.8837 10.2984C28.6313 12.3304 27.5696 14.5804 25.5141 15.3187Z" fill="#FCBE1C"/>
<path d="M25.4602 15.1687C23.4821 15.8789 21.3024 14.8781 20.5829 12.9258C19.8657 10.9758 20.8805 8.81716 22.8563 8.10466C24.8274 7.39451 27.0141 8.39997 27.736 10.35C28.4508 12.3023 27.4337 14.4609 25.4602 15.1687Z" fill="#FBBB1D"/>
<path d="M25.4063 15.0211C23.5125 15.7008 21.4219 14.7422 20.7352 12.8719C20.0485 11.0039 21.0211 8.9367 22.9149 8.25467C24.8039 7.57498 26.8969 8.53826 27.5883 10.4062C28.2704 12.2742 27.2954 14.3414 25.4063 15.0211Z" fill="#FBB91E"/>
<path d="M25.35 14.8711C23.5383 15.5227 21.5414 14.604 20.8828 12.818C20.2265 11.0321 21.157 9.0563 22.9664 8.40239C24.7711 7.75317 26.7726 8.67192 27.4336 10.4579C28.0898 12.2461 27.157 14.2243 25.35 14.8711Z" fill="#FBB71E"/>
<path d="M25.2961 14.7235C23.5687 15.3446 21.6633 14.468 21.0352 12.7641C20.4094 11.0602 21.2953 9.17584 23.0227 8.5524C24.7453 7.93365 26.6555 8.81021 27.2859 10.5141C27.9094 12.218 27.0187 14.1047 25.2961 14.7235Z" fill="#FBB51F"/>
<path d="M25.2399 14.5734C23.5946 15.164 21.7828 14.332 21.1852 12.7077C20.5899 11.0859 21.4336 9.29289 23.0766 8.69992C24.7172 8.1093 26.5336 8.94602 27.1336 10.5679C27.7289 12.1898 26.8805 13.9851 25.2399 14.5734Z" fill="#FAB220"/>
<path d="M25.186 14.4257C23.6251 14.9859 21.9024 14.196 21.3352 12.6562C20.7704 11.1164 21.5719 9.41245 23.1305 8.84995C24.6868 8.28979 26.4118 9.08433 26.9813 10.6218C27.5485 12.1617 26.7422 13.8679 25.186 14.4257Z" fill="#FAB020"/>
<path d="M25.1321 14.2781C23.6532 14.8078 22.0243 14.0601 21.4876 12.6023C20.9532 11.1445 21.7102 9.532 23.1868 8.99997C24.661 8.47028 26.2946 9.22028 26.8337 10.6781C27.368 12.1336 26.6063 13.7484 25.1321 14.2781Z" fill="#FAAE21"/>
<path d="M25.0758 14.1281C23.6813 14.6297 22.1438 13.9219 21.6352 12.5461C21.1313 11.1703 21.8461 9.64922 23.2383 9.14766C24.6281 8.64844 26.1703 9.35625 26.6789 10.732C27.1852 12.1055 26.468 13.6289 25.0758 14.1281Z" fill="#FAAC22"/>
<path d="M25.0219 13.9805C23.7118 14.4516 22.2633 13.7883 21.7876 12.4922C21.3118 11.2008 21.9868 9.76876 23.2969 9.29533C24.6048 8.82423 26.0532 9.4922 26.5313 10.7836C27.0048 12.0774 26.3298 13.5094 25.0219 13.9805Z" fill="#F9A922"/>
<path d="M24.9679 13.8305C23.7398 14.2711 22.3851 13.65 21.9398 12.4383C21.4945 11.2289 22.125 9.88832 23.3531 9.44535C24.5789 9.00472 25.9359 9.62816 26.3836 10.8399C26.8242 12.0493 26.1914 13.3922 24.9679 13.8305Z" fill="#F9A723"/>
<path d="M24.9117 13.6828C23.768 14.0929 22.5047 13.514 22.0875 12.3843C21.6727 11.257 22.261 10.0078 23.4047 9.59291C24.5461 9.18276 25.8117 9.764 26.2289 10.8937C26.6438 12.021 26.0531 13.2726 24.9117 13.6828Z" fill="#F9A524"/>
<path d="M24.8579 13.5328C23.7961 13.9148 22.6243 13.3758 22.2399 12.3281C21.8555 11.2828 22.3993 10.1227 23.461 9.74062C24.5204 9.36093 25.6922 9.9 26.0789 10.9453C26.4633 11.9953 25.9172 13.1531 24.8579 13.5328Z" fill="#F9A324"/>
<path d="M24.8016 13.3851C23.8243 13.7367 22.7438 13.2398 22.3899 12.2742C22.036 11.3109 22.5376 10.2421 23.5149 9.89059C24.4899 9.53902 25.5704 10.0382 25.929 11.0015C26.2829 11.9671 25.779 13.0336 24.8016 13.3851Z" fill="#F8A025"/>
<path d="M24.7476 13.2352C23.8523 13.5563 22.8656 13.1039 22.5398 12.2203C22.2164 11.3391 22.6758 10.3617 23.5687 10.0383C24.4617 9.71719 25.4508 10.1719 25.7765 11.0555C26.1023 11.9391 25.6406 12.9164 24.7476 13.2352Z" fill="#F89E26"/>
<path d="M24.6937 13.0875C23.8828 13.3782 22.9875 12.968 22.6922 12.1664C22.3992 11.3672 22.8141 10.4813 23.625 10.1883C24.4359 9.89769 25.3312 10.3102 25.6289 11.1094C25.9219 11.911 25.5023 12.7969 24.6937 13.0875Z" fill="#F89C26"/>
<path d="M24.6375 12.9398C23.9086 13.2023 23.1047 12.832 22.8399 12.1124C22.575 11.3953 22.95 10.6007 23.6766 10.3359C24.4031 10.0757 25.207 10.446 25.4742 11.1632C25.7414 11.8828 25.3641 12.6773 24.6375 12.9398Z" fill="#F89A27"/>
<path d="M24.5836 12.7898C23.9391 13.0218 23.2266 12.6937 22.9922 12.0585C22.7578 11.4234 23.0906 10.7179 23.7351 10.4859C24.3797 10.2538 25.0922 10.582 25.3266 11.2195C25.5586 11.8546 25.2258 12.5601 24.5836 12.7898Z" fill="#F79728"/>
<path d="M24.5297 12.6421C23.9672 12.8437 23.3484 12.5601 23.1445 12.0046C22.9406 11.4515 23.2289 10.8375 23.7914 10.6359C24.3516 10.4343 24.9727 10.7203 25.1789 11.2734C25.3781 11.8265 25.0899 12.4406 24.5297 12.6421Z" fill="#F79528"/>
<path d="M24.4735 12.4922C23.9954 12.6633 23.4657 12.4219 23.2923 11.9484C23.1188 11.4774 23.3649 10.9547 23.843 10.7813C24.3212 10.6102 24.8485 10.8539 25.0243 11.325C25.1977 11.7984 24.9516 12.3211 24.4735 12.4922Z" fill="#F79329"/>
<path d="M7.34299 15.6164C5.11643 16.4157 2.66018 15.2883 1.84924 13.0899C1.04299 10.8938 2.1844 8.46331 4.41096 7.65941C6.63049 6.86019 9.09377 7.99222 9.90705 10.1883C10.7133 12.3868 9.56487 14.8172 7.34299 15.6164Z" fill="#FCC21B"/>
<path d="M7.28909 15.4664C5.14456 16.2375 2.77972 15.15 2.00159 13.036C1.22581 10.9219 2.32503 8.58285 4.46722 7.80941C6.60472 7.04066 8.97425 8.13051 9.75706 10.2446C10.5328 12.3586 9.42659 14.7 7.28909 15.4664Z" fill="#FCC01C"/>
<path d="M7.23285 15.3187C5.1727 16.0594 2.89926 15.0164 2.14926 12.982C1.40395 10.95 2.46332 8.69999 4.52114 7.95702C6.5766 7.21874 8.85239 8.26405 9.60473 10.2961C10.35 12.3305 9.28832 14.5805 7.23285 15.3187Z" fill="#FCBE1C"/>
<path d="M7.17897 15.1687C5.20084 15.8789 3.02116 14.8781 2.30162 12.9258C1.58444 10.9758 2.59928 8.81716 4.57506 8.10466C6.54616 7.39451 8.73287 8.39997 9.45475 10.35C10.1696 12.3023 9.15241 14.4609 7.17897 15.1687Z" fill="#FBBB1D"/>
<path d="M7.12504 15.0211C5.23129 15.7008 3.14067 14.7422 2.45395 12.8719C1.76723 11.0039 2.73989 8.9367 4.63364 8.25467C6.5227 7.57498 8.61567 8.53826 9.30707 10.4062C9.9891 12.2742 9.0141 14.3414 7.12504 15.0211Z" fill="#FBB91E"/>
<path d="M7.06872 14.8711C5.25701 15.5227 3.26013 14.604 2.60154 12.818C1.94529 11.0321 2.87576 9.0563 4.68513 8.40239C6.48982 7.75317 8.49138 8.67192 9.15232 10.4579C9.80857 12.2461 8.87576 14.2243 7.06872 14.8711Z" fill="#FBB71E"/>
<path d="M7.01484 14.7235C5.28749 15.3446 3.38203 14.468 2.7539 12.7641C2.12812 11.0602 3.01406 9.17584 4.7414 8.5524C6.46406 7.93365 8.37421 8.81021 9.00468 10.5141C9.62812 12.218 8.73749 14.1047 7.01484 14.7235Z" fill="#FBB51F"/>
<path d="M6.95862 14.5735C5.3133 15.1641 3.49924 14.3321 2.90393 12.7079C2.30862 11.086 3.15237 9.29301 4.79534 8.70004C6.43596 8.10942 8.25237 8.94614 8.85237 10.568C9.44768 12.1899 8.59924 13.9852 6.95862 14.5735Z" fill="#FAB220"/>
<path d="M6.90474 14.4259C5.3438 14.986 3.62115 14.1962 3.05396 12.6563C2.48912 11.1165 3.29068 9.41257 4.84927 8.85007C6.40552 8.28992 8.13052 9.08445 8.70005 10.6219C9.26724 12.1618 8.46099 13.868 6.90474 14.4259Z" fill="#FAB020"/>
<path d="M6.85085 14.2782C5.37195 14.8079 3.74304 14.0602 3.20632 12.6024C2.67195 11.1446 3.42898 9.53212 4.90554 9.00009C6.37976 8.47041 8.01335 9.22041 8.55242 10.6782C9.08679 12.1337 8.32507 13.7485 6.85085 14.2782Z" fill="#FAAE21"/>
<path d="M6.79454 14.1281C5.4 14.6297 3.8625 13.9219 3.35391 12.5461C2.85 11.1703 3.56485 9.64922 4.95704 9.14766C6.34688 8.64844 7.88907 9.35625 8.39766 10.732C8.90391 12.1055 8.18672 13.6289 6.79454 14.1281Z" fill="#FAAC22"/>
<path d="M6.74069 13.9805C5.43054 14.4516 3.9821 13.7883 3.50632 12.4922C3.03054 11.2008 3.70554 9.76876 5.01569 9.29533C6.3235 8.82423 7.77194 9.4922 8.25007 10.7836C8.7235 12.0774 8.0485 13.5094 6.74069 13.9805Z" fill="#F9A922"/>
<path d="M6.68668 13.8305C5.45856 14.2711 4.10387 13.65 3.65856 12.4383C3.21325 11.2289 3.84372 9.88832 5.07184 9.44535C6.29762 9.00472 7.65465 9.62816 8.10231 10.8399C8.54293 12.0493 7.91012 13.3922 6.68668 13.8305Z" fill="#F9A723"/>
<path d="M6.63049 13.6829C5.48674 14.093 4.22346 13.5141 3.80627 12.3844C3.39143 11.2571 3.97971 10.0079 5.12346 9.59303C6.26486 9.18288 7.53049 9.76413 7.94768 10.8938C8.36252 12.0212 7.77189 13.2727 6.63049 13.6829Z" fill="#F9A524"/>
<path d="M6.5766 13.5328C5.51488 13.9148 4.34301 13.3758 3.95863 12.3281C3.57426 11.2828 4.11801 10.1227 5.17973 9.74062C6.2391 9.36093 7.41098 9.9 7.7977 10.9453C8.18207 11.9953 7.63598 13.1531 6.5766 13.5328Z" fill="#F9A324"/>
<path d="M6.52038 13.3852C5.54304 13.7368 4.46257 13.2399 4.10866 12.2743C3.75476 11.311 4.25632 10.2423 5.23366 9.89071C6.20866 9.53915 7.28913 10.0384 7.64773 11.0016C8.00163 11.9673 7.49773 13.0337 6.52038 13.3852Z" fill="#F8A025"/>
<path d="M6.46638 13.2352C5.57107 13.5563 4.58435 13.1039 4.25857 12.2203C3.93513 11.3391 4.39451 10.3617 5.28748 10.0383C6.18045 9.71719 7.16951 10.1719 7.49529 11.0555C7.82107 11.9391 7.35935 12.9164 6.46638 13.2352Z" fill="#F89E26"/>
<path d="M6.4125 13.0875C5.60156 13.3782 4.70625 12.968 4.41093 12.1664C4.11797 11.3672 4.53281 10.4813 5.34375 10.1883C6.15468 9.89769 7.05 10.3102 7.34765 11.1094C7.64062 11.911 7.22109 12.7969 6.4125 13.0875Z" fill="#F89C26"/>
<path d="M6.35626 12.9399C5.62735 13.2024 4.82345 12.8321 4.5586 12.1126C4.29376 11.3954 4.66876 10.6008 5.39532 10.336C6.12188 10.0758 6.92579 10.4462 7.19298 11.1633C7.46017 11.8829 7.08282 12.6774 6.35626 12.9399Z" fill="#F89A27"/>
<path d="M6.30233 12.7899C5.6578 13.0219 4.9453 12.6938 4.71093 12.0586C4.47655 11.4235 4.80937 10.718 5.4539 10.486C6.09843 10.254 6.81093 10.5821 7.0453 11.2196C7.27733 11.8547 6.94452 12.5602 6.30233 12.7899Z" fill="#F79728"/>
<path d="M6.24845 12.6423C5.68595 12.8438 5.0672 12.5602 4.86329 12.0048C4.65939 11.4516 4.94767 10.8376 5.51017 10.636C6.07032 10.4344 6.69142 10.7204 6.89767 11.2735C7.09689 11.8266 6.80861 12.4407 6.24845 12.6423Z" fill="#F79528"/>
<path d="M6.19225 12.4922C5.71413 12.6633 5.18444 12.4219 5.011 11.9484C4.83756 11.4774 5.08366 10.9547 5.56178 10.7813C6.03991 10.6102 6.56725 10.8539 6.74303 11.325C6.91647 11.7984 6.67038 12.3211 6.19225 12.4922Z" fill="#F79329"/>
<path d="M8.83825 20.1468C8.06716 21.4922 6.34684 21.9679 4.98278 21.2086C4.90544 21.164 4.83981 21.1078 4.7695 21.0586C3.91872 21.5742 2.82653 21.6422 1.89606 21.1265C0.536688 20.3672 0.0585625 18.6562 0.827312 17.3133C0.843719 17.2828 0.8695 17.2594 0.88825 17.2312C0.440594 16.4133 0.410125 15.3984 0.909344 14.5289C1.67809 13.1836 3.40778 12.7101 4.76481 13.4672C5.32263 13.7789 5.72106 14.2523 5.95778 14.789C7.83278 14.2992 10.8961 12.3281 12.4008 10.8422C12.4008 10.8422 10.1672 14.3625 7.79762 16.3547C9.13122 17.1234 9.59997 18.8133 8.83825 20.1468Z" fill="white"/>
<path d="M21.0634 20.1468C21.8344 21.4922 23.5548 21.9679 24.9188 21.2086C24.9962 21.164 25.0618 21.1078 25.1321 21.0586C25.9829 21.5742 27.0751 21.6422 28.0055 21.1265C29.3649 20.3672 29.843 18.6562 29.0743 17.3133C29.0579 17.2828 29.0321 17.2594 29.0134 17.2312C29.461 16.4133 29.4915 15.3984 28.9923 14.5289C28.2235 13.1836 26.4938 12.7101 25.1368 13.4672C24.579 13.7789 24.1805 14.2523 23.9438 14.789C22.0688 14.2992 19.0055 12.3281 17.5009 10.8422C17.5009 10.8422 19.7344 14.3625 22.104 16.3547C20.7704 17.1234 20.3016 18.8133 21.0634 20.1468Z" fill="white"/>
<path d="M18.7102 9.14295C18.7102 8.93669 18.7383 8.74216 18.7805 8.55466C19.1836 8.44451 19.6055 8.28982 20.0344 8.03435C20.468 7.77419 20.829 7.51169 21.1524 7.24451C21.6657 7.61482 22.0125 8.32029 22.0125 9.14295C22.0125 10.3406 21.2766 11.3109 20.3625 11.3109C19.4485 11.3133 18.7102 10.3406 18.7102 9.14295Z" fill="#2F2F2F"/>
<path d="M11.2899 9.14295C11.2899 8.93669 11.2617 8.74216 11.2196 8.55466C10.8164 8.44451 10.3946 8.28982 9.96799 8.03435C9.57547 7.80039 9.20169 7.53631 8.85002 7.24451C8.33674 7.61482 7.98987 8.32029 7.98987 9.14295C7.98987 10.3406 8.72581 11.3109 9.63987 11.3109C10.5492 11.3133 11.2899 10.3406 11.2899 9.14295Z" fill="#2F2F2F"/>
<path d="M9.9985 16.2913C9.84147 16.2913 9.68209 16.2327 9.55787 16.1155C9.49611 16.0575 9.44638 15.9879 9.41154 15.9107C9.37669 15.8335 9.35741 15.7502 9.3548 15.6655C9.35219 15.5808 9.36629 15.4965 9.39631 15.4172C9.42633 15.338 9.47168 15.2655 9.52975 15.2038C10.8891 13.7554 12.8672 12.9233 14.9508 12.9233C17.0368 12.9233 19.0126 13.7554 20.3719 15.2038C20.4886 15.3287 20.5512 15.4946 20.5459 15.6655C20.5407 15.8363 20.468 15.9981 20.3438 16.1155C20.219 16.2322 20.053 16.2948 19.8822 16.2895C19.7113 16.2842 19.5495 16.2116 19.4321 16.0874C18.3141 14.8968 16.6805 14.2147 14.9508 14.2147C13.2212 14.2147 11.5876 14.8968 10.4696 16.0874C10.3407 16.2233 10.1696 16.2913 9.9985 16.2913Z" fill="#2F2F2F"/>
</svg>
