<svg width="30" height="26" viewBox="0 0 30 26" fill="none" xmlns="http://www.w3.org/2000/svg">
<path d="M29.6367 19.6734C29.6367 22.9219 23.0063 25.5562 14.8195 25.5562C6.63516 25.5562 0 22.9219 0 19.6734C0 16.4227 0.344532 0 14.8195 0C29.2969 0 29.6367 16.4203 29.6367 19.6734Z" fill="#FCC21B"/>
<path d="M19.0806 19.8024C21.3493 19.718 22.4157 22.7578 24.7103 22.0922C25.1392 21.9703 25.5798 21.682 25.9407 21.2977L25.9267 21.2836L25.9407 21.2977C26.2993 20.911 26.5384 20.4492 26.6532 20.018C27.347 17.4047 24.4103 14.9531 23.4376 15.1524L19.0806 19.8024Z" fill="#D7598B"/>
<path d="M14.8196 20.836C14.4305 20.836 14.1165 20.522 14.1165 20.1329C14.1165 19.7438 14.4305 19.4298 14.8196 19.4298C18.3188 19.4298 21.3399 17.5126 22.336 14.6602C22.3976 14.4844 22.5265 14.3402 22.6944 14.2594C22.8623 14.1785 23.0554 14.1676 23.2313 14.229C23.4071 14.2906 23.5513 14.4195 23.6322 14.5874C23.713 14.7553 23.724 14.9484 23.6625 15.1243C22.4696 18.5415 18.9165 20.836 14.8196 20.836Z" fill="#2F2F2F"/>
<path d="M14.8196 20.836C10.7227 20.836 7.16959 18.5415 5.97428 15.1243C5.84537 14.7587 6.0399 14.3555 6.40553 14.229C6.77115 14.1024 7.17194 14.2946 7.30084 14.6602C8.29928 17.5149 11.3204 19.4298 14.8196 19.4298C15.2087 19.4298 15.5227 19.7438 15.5227 20.1329C15.5227 20.5219 15.2087 20.836 14.8196 20.836Z" fill="#2F2F2F"/>
<path d="M7.04775 10.8116C6.96031 10.956 6.81933 11.0599 6.65556 11.1008C6.49179 11.1416 6.31852 11.116 6.17353 11.0296C6.02888 10.9437 5.92405 10.8041 5.8819 10.6412C5.83975 10.4783 5.8637 10.3054 5.94853 10.1601C5.99072 10.0874 7.02666 8.37415 9.3165 8.37415C11.6087 8.37415 12.6446 10.0874 12.6892 10.1601C12.7458 10.2574 12.7757 10.368 12.7761 10.4806C12.7764 10.5932 12.747 10.7039 12.6909 10.8015C12.6349 10.8992 12.554 10.9804 12.4566 11.0369C12.3592 11.0934 12.2486 11.1232 12.136 11.1234C11.9204 11.1234 11.7071 11.0132 11.5876 10.814C11.5571 10.7624 10.8563 9.65149 9.3165 9.65149C7.77666 9.64915 7.07822 10.7624 7.04775 10.8116Z" fill="#2F2F2F"/>
<path d="M23.4633 11.032C23.3625 11.0929 23.25 11.121 23.1422 11.121C22.9219 11.121 22.7086 11.0062 22.5891 10.807C22.5633 10.7601 21.8672 9.64917 20.325 9.64917C18.757 9.64917 18.0609 10.7953 18.0539 10.807C17.9661 10.9492 17.826 11.0512 17.6637 11.0913C17.5015 11.1313 17.33 11.1062 17.1861 11.0212C17.0422 10.9362 16.9373 10.7982 16.8941 10.6367C16.8508 10.4753 16.8726 10.3033 16.9547 10.1578C16.9969 10.0851 18.0328 8.37183 20.325 8.37183C22.6149 8.37183 23.6484 10.0851 23.6906 10.1578C23.8688 10.4625 23.7656 10.8562 23.4633 11.032Z" fill="#2F2F2F"/>
</svg>
