<svg width="30" height="26" viewBox="0 0 30 26" fill="none" xmlns="http://www.w3.org/2000/svg">
<path d="M14.9719 0C0.344532 0 0 16.3969 0 19.6406C0 22.8891 6.70078 25.5188 14.9719 25.5188C23.2406 25.5188 29.9437 22.8891 29.9437 19.6406C29.9437 16.3969 29.5969 0 14.9719 0Z" fill="#FCC21B"/>
<path d="M9.8134 11.5337C8.76106 11.543 7.89856 10.5329 7.88684 9.27897C7.87512 8.02038 8.71887 6.99381 9.77121 6.98444C10.8212 6.97506 11.6861 7.98522 11.6978 9.24381C11.7095 10.5001 10.8634 11.5243 9.8134 11.5337Z" fill="#2F2F2F"/>
<path d="M20.1518 11.5337C21.2018 11.5314 22.0525 10.5118 22.0502 9.25791C22.0479 7.99932 21.1924 6.98448 20.1424 6.98682C19.09 6.98916 18.2369 8.0087 18.2393 9.26729C18.2416 10.5212 19.0994 11.536 20.1518 11.5337Z" fill="#2F2F2F"/>
<path d="M12.2485 20.6109C13.9126 19.7531 16.0313 19.7531 17.6954 20.6109" stroke="#2F2F2F" stroke-width="1.40625" stroke-miterlimit="10" stroke-linecap="round" stroke-linejoin="round"/>
<path d="M25.9968 17.6906C22.3476 17.5968 19.6734 17.5195 16.0242 17.414C14.8359 17.3789 14.0132 16.5047 14.0648 15.2929C14.114 14.1211 14.9062 13.3898 15.907 13.3101C19.5492 13.0453 22.207 12.7523 25.8562 12.5976C26.9929 12.5508 28.4953 13.0593 28.6687 15.0328C28.8281 16.9054 27.2062 17.7281 25.9968 17.6906Z" fill="#F57C00"/>
<path d="M26.2828 16.207C22.4648 16.2773 17.8805 16.3172 14.0625 16.3734C12.818 16.3922 11.918 15.5156 11.918 14.2477C11.918 13.0219 12.7102 12.2203 13.7531 12.0914C17.5453 11.6484 22.0992 11.2195 25.9055 10.8937C27.0914 10.7906 28.6852 11.2547 28.9547 13.3102C29.2078 15.2602 27.5484 16.1906 26.2828 16.207Z" fill="#FFAB00"/>
</svg>
