<svg width="30" height="26" viewBox="0 0 30 26" fill="none" xmlns="http://www.w3.org/2000/svg">
<path d="M14.9508 0C0.346875 0 0 16.3734 0 19.6148C0 22.8563 6.69375 25.4813 14.9508 25.4813C23.2102 25.4813 29.9016 22.8539 29.9016 19.6148C29.9016 16.3734 29.557 0 14.9508 0Z" fill="#FCC21B"/>
<path d="M25.6734 19.2796C23.4469 20.0789 20.9906 18.9515 20.1797 16.7531C19.3734 14.557 20.5148 12.1265 22.7414 11.3226C24.9609 10.5234 27.4242 11.6554 28.2375 13.8515C29.0437 16.0523 27.8953 18.4828 25.6734 19.2796Z" fill="#FCC21B"/>
<path d="M25.6197 19.132C23.4751 19.9031 21.1103 18.8156 20.3322 16.7015C19.5564 14.5874 20.6556 12.2484 22.7978 11.4749C24.9353 10.7062 27.3048 11.796 28.0876 13.9101C28.8634 16.0242 27.7572 18.3632 25.6197 19.132Z" fill="#FCC01C"/>
<path d="M25.5633 18.9819C23.5031 19.7225 21.2297 18.6796 20.4797 16.6452C19.7344 14.6155 20.7938 12.3655 22.8516 11.6225C24.907 10.8843 27.1828 11.9296 27.9352 13.9616C28.6805 15.996 27.6188 18.246 25.5633 18.9819Z" fill="#FCBE1C"/>
<path d="M25.5093 18.8344C23.5312 19.5445 21.3515 18.5437 20.6319 16.5914C19.9148 14.6414 20.9296 12.4828 22.9054 11.7703C24.8765 11.0602 27.0632 12.0656 27.7851 14.0156C28.4999 15.968 27.4827 18.1266 25.5093 18.8344Z" fill="#FBBB1D"/>
<path d="M25.4555 18.6843C23.5617 19.364 21.4711 18.4054 20.7844 16.5351C20.0977 14.6671 21.0703 12.5999 22.9641 11.9179C24.8531 11.2382 26.9461 12.2015 27.6375 14.0694C28.3195 15.9398 27.3445 18.0069 25.4555 18.6843Z" fill="#FBB91E"/>
<path d="M25.3992 18.5367C23.5875 19.1882 21.5906 18.2695 20.932 16.4835C20.2757 14.6976 21.2062 12.7218 23.0156 12.0679C24.8203 11.4187 26.8218 12.3375 27.4828 14.1234C28.139 15.9117 27.2062 17.8875 25.3992 18.5367Z" fill="#FBB71E"/>
<path d="M25.3454 18.389C23.6181 19.0101 21.7126 18.1336 21.0845 16.4296C20.4587 14.7257 21.3446 12.8414 23.072 12.2179C24.7946 11.5992 26.7048 12.4757 27.3352 14.1796C27.9587 15.8836 27.0681 17.7703 25.3454 18.389Z" fill="#FBB51F"/>
<path d="M25.2889 18.239C23.6436 18.8296 21.8296 17.9976 21.2343 16.3734C20.6389 14.7515 21.4827 12.9585 23.1257 12.3656C24.7663 11.7749 26.5827 12.6117 27.1827 14.2335C27.778 15.8554 26.9296 17.6507 25.2889 18.239Z" fill="#FAB220"/>
<path d="M25.2353 18.0914C23.6744 18.6515 21.9517 17.8617 21.3845 16.3218C20.8197 14.782 21.6212 13.0781 23.1798 12.5156C24.7361 11.9554 26.4611 12.75 27.0306 14.2875C27.5978 15.8273 26.7916 17.5312 25.2353 18.0914Z" fill="#FAB020"/>
<path d="M25.1813 17.9414C23.7024 18.4711 22.0735 17.7235 21.5368 16.2656C21.0024 14.8078 21.7594 13.1953 23.236 12.6633C24.7102 12.1336 26.3438 12.8836 26.8829 14.3414C27.4172 15.7992 26.6555 17.4117 25.1813 17.9414Z" fill="#FAAE21"/>
<path d="M25.125 17.7938C23.7304 18.2953 22.1929 17.5875 21.6844 16.2117C21.1804 14.836 21.8953 13.3149 23.2875 12.8133C24.6773 12.3141 26.2195 13.0219 26.7281 14.3977C27.2344 15.7711 26.5172 17.2946 25.125 17.7938Z" fill="#FAAC22"/>
<path d="M25.0711 17.6438C23.761 18.1149 22.3125 17.4516 21.8368 16.1555C21.361 14.8641 22.036 13.4321 23.3461 12.9587C24.6539 12.4876 26.1024 13.1555 26.5805 14.4469C27.054 15.743 26.379 17.1751 25.0711 17.6438Z" fill="#F9A922"/>
<path d="M25.0171 17.496C23.789 17.9367 22.4343 17.3156 21.989 16.1038C21.5437 14.8945 22.1742 13.5538 23.4023 13.1109C24.6281 12.6703 25.9851 13.2937 26.4328 14.5054C26.8734 15.7148 26.2406 17.0554 25.0171 17.496Z" fill="#F9A723"/>
<path d="M24.9611 17.3461C23.8173 17.7562 22.554 17.1773 22.1368 16.0476C21.722 14.9203 22.3103 13.6711 23.454 13.2562C24.5954 12.8461 25.8611 13.4273 26.2782 14.557C26.6931 15.6867 26.1025 16.9383 24.9611 17.3461Z" fill="#F9A524"/>
<path d="M24.907 17.1985C23.8453 17.5805 22.6735 17.0414 22.2891 15.9938C21.9047 14.9485 22.4485 13.7883 23.5102 13.4063C24.5695 13.0266 25.7414 13.5656 26.1281 14.611C26.5125 15.6586 25.9664 16.8188 24.907 17.1985Z" fill="#F9A324"/>
<path d="M24.8508 17.0508C23.8735 17.4023 22.793 16.9055 22.4391 15.9398C22.0852 14.9765 22.5868 13.9078 23.5641 13.5562C24.5391 13.2047 25.6196 13.7039 25.9782 14.6672C26.3321 15.6305 25.8282 16.6992 24.8508 17.0508Z" fill="#F8A025"/>
<path d="M24.7967 16.9007C23.9014 17.2218 22.9147 16.7694 22.5889 15.8858C22.2655 15.0046 22.7248 14.0273 23.6178 13.7038C24.5108 13.3827 25.4998 13.8374 25.8256 14.721C26.1514 15.6023 25.6897 16.5796 24.7967 16.9007Z" fill="#F89E26"/>
<path d="M24.7429 16.7531C23.932 17.0437 23.0367 16.6335 22.7414 15.832C22.4484 15.0328 22.8633 14.1468 23.6742 13.8538C24.4851 13.5632 25.3804 13.9757 25.6781 14.7749C25.9711 15.5742 25.5515 16.4624 24.7429 16.7531Z" fill="#F89C26"/>
<path d="M24.6868 16.6031C23.9579 16.8656 23.154 16.4953 22.8892 15.7758C22.6243 15.0586 22.9993 14.2641 23.7259 13.9992C24.4525 13.7391 25.2564 14.1094 25.5235 14.8266C25.7907 15.5461 25.4134 16.343 24.6868 16.6031Z" fill="#F89A27"/>
<path d="M24.6328 16.4554C23.9882 16.6874 23.2757 16.3593 23.0414 15.7242C22.807 15.089 23.1398 14.3835 23.7843 14.1515C24.4289 13.9195 25.1414 14.2476 25.3757 14.8851C25.6078 15.5179 25.275 16.2234 24.6328 16.4554Z" fill="#F79728"/>
<path d="M24.579 16.3055C24.0165 16.507 23.3978 16.2234 23.1939 15.668C22.99 15.1148 23.2782 14.5008 23.8407 14.2992C24.4009 14.0977 25.022 14.3836 25.2282 14.9367C25.4275 15.4898 25.1392 16.1063 24.579 16.3055Z" fill="#F79528"/>
<path d="M24.5227 16.1577C24.0446 16.3288 23.5149 16.0874 23.3414 15.614C23.168 15.1429 23.4141 14.6202 23.8922 14.4468C24.3704 14.2757 24.8977 14.5194 25.0735 14.9905C25.2469 15.4616 25.0008 15.9866 24.5227 16.1577Z" fill="#F79329"/>
<path d="M7.39219 19.2796C5.16562 20.0789 2.70937 18.9515 1.89844 16.7531C1.09219 14.557 2.23359 12.1265 4.46016 11.3226C6.67969 10.5234 9.14297 11.6554 9.95625 13.8515C10.7625 16.0523 9.61406 18.4828 7.39219 19.2796Z" fill="#FCC21B"/>
<path d="M7.33816 19.132C5.19363 19.9031 2.82879 18.8156 2.05066 16.7015C1.27488 14.5874 2.3741 12.2484 4.51629 11.4749C6.65379 10.7062 9.02332 11.796 9.80613 13.9101C10.5819 16.0242 9.47566 18.3632 7.33816 19.132Z" fill="#FCC01C"/>
<path d="M7.28205 18.982C5.22189 19.7227 2.94846 18.6797 2.19846 16.6453C1.45314 14.6156 2.51252 12.3656 4.57033 11.6227C6.6258 10.8844 8.90158 11.9297 9.65392 13.9617C10.3992 15.9961 9.33752 18.2461 7.28205 18.982Z" fill="#FCBE1C"/>
<path d="M7.22804 18.8344C5.24992 19.5445 3.07023 18.5437 2.3507 16.5914C1.63351 14.6414 2.64835 12.4828 4.62413 11.7703C6.59523 11.0602 8.78195 12.0656 9.50382 14.0156C10.2187 15.968 9.20148 18.1266 7.22804 18.8344Z" fill="#FBBB1D"/>
<path d="M7.17424 18.6843C5.28049 19.364 3.18986 18.4054 2.50314 16.5351C1.81642 14.6671 2.78908 12.5999 4.68283 11.9179C6.57189 11.2382 8.66486 12.2015 9.35627 14.0694C10.0383 15.9398 9.0633 18.0069 7.17424 18.6843Z" fill="#FBB91E"/>
<path d="M7.11792 18.5367C5.3062 19.1882 3.30932 18.2695 2.65073 16.4835C1.99448 14.6976 2.92495 12.7218 4.73432 12.0679C6.53901 11.4187 8.54057 12.3375 9.20151 14.1234C9.85776 15.9117 8.92495 17.8875 7.11792 18.5367Z" fill="#FBB71E"/>
<path d="M7.06415 18.389C5.33681 19.0101 3.43134 18.1336 2.80322 16.4296C2.17744 14.7257 3.06337 12.8414 4.79072 12.2179C6.51337 11.5992 8.42353 12.4757 9.054 14.1796C9.67744 15.8836 8.78681 17.7703 7.06415 18.389Z" fill="#FBB51F"/>
<path d="M7.00769 18.239C5.36238 18.8296 3.54831 17.9976 2.953 16.3734C2.35769 14.7515 3.20144 12.9585 4.84441 12.3656C6.48503 11.7749 8.30144 12.6117 8.90144 14.2335C9.49675 15.8554 8.64831 17.6507 7.00769 18.239Z" fill="#FAB220"/>
<path d="M6.95381 18.0914C5.39288 18.6515 3.67022 17.8617 3.10303 16.3218C2.53819 14.782 3.33975 13.0781 4.89834 12.5156C6.45459 11.9554 8.17959 12.75 8.74913 14.2875C9.31631 15.8273 8.51006 17.5312 6.95381 18.0914Z" fill="#FAB020"/>
<path d="M6.90005 17.9414C5.42114 18.4711 3.79224 17.7235 3.25552 16.2656C2.72114 14.8078 3.47817 13.1953 4.95474 12.6633C6.42895 12.1336 8.06255 12.8836 8.60161 14.3414C9.13599 15.7992 8.37427 17.4117 6.90005 17.9414Z" fill="#FAAE21"/>
<path d="M6.84373 17.7937C5.4492 18.2952 3.9117 17.5874 3.40311 16.2116C2.8992 14.8358 3.61404 13.3147 5.00623 12.8132C6.39607 12.314 7.93826 13.0218 8.44686 14.3976C8.95311 15.771 8.23592 17.2944 6.84373 17.7937Z" fill="#FAAC22"/>
<path d="M6.78989 17.6437C5.47973 18.1148 4.03129 17.4515 3.55551 16.1554C3.07973 14.864 3.75473 13.432 5.06489 12.9585C6.3727 12.4874 7.82114 13.1554 8.29926 14.4468C8.7727 15.7429 8.0977 17.1749 6.78989 17.6437Z" fill="#F9A922"/>
<path d="M6.73588 17.496C5.50775 17.9367 4.15307 17.3156 3.70775 16.1038C3.26244 14.8945 3.89291 13.5538 5.12104 13.1109C6.34682 12.6703 7.70385 13.2937 8.1515 14.5054C8.59213 15.7148 7.95932 17.0554 6.73588 17.496Z" fill="#F9A723"/>
<path d="M6.6798 17.3461C5.53605 17.7562 4.27277 17.1773 3.85559 16.0476C3.44074 14.9203 4.02902 13.6711 5.17277 13.2562C6.31418 12.8461 7.5798 13.4273 7.99699 14.557C8.41184 15.6867 7.82121 16.9383 6.6798 17.3461Z" fill="#F9A524"/>
<path d="M6.6258 17.1985C5.56408 17.5805 4.3922 17.0414 4.00783 15.9938C3.62345 14.9485 4.1672 13.7883 5.22892 13.4063C6.2883 13.0266 7.46017 13.5656 7.84689 14.611C8.23127 15.6586 7.68517 16.8188 6.6258 17.1985Z" fill="#F9A324"/>
<path d="M6.56958 17.0508C5.59223 17.4023 4.51176 16.9055 4.15786 15.9398C3.80395 14.9765 4.30551 13.9078 5.28286 13.5562C6.25786 13.2047 7.33833 13.7039 7.69692 14.6672C8.05083 15.6305 7.54692 16.6992 6.56958 17.0508Z" fill="#F8A025"/>
<path d="M6.5157 16.9007C5.62039 17.2218 4.63367 16.7694 4.30789 15.8858C3.98445 15.0046 4.44382 14.0273 5.33679 13.7038C6.22976 13.3827 7.21882 13.8374 7.54461 14.721C7.87039 15.6023 7.40867 16.5796 6.5157 16.9007Z" fill="#F89E26"/>
<path d="M6.46169 16.7531C5.65075 17.0437 4.75544 16.6335 4.46013 15.832C4.16716 15.0328 4.582 14.1468 5.39294 13.8538C6.20388 13.5632 7.09919 13.9757 7.39685 14.7749C7.68982 15.5742 7.27028 16.4624 6.46169 16.7531Z" fill="#F89C26"/>
<path d="M6.40558 16.6031C5.67667 16.8656 4.87276 16.4953 4.60792 15.7758C4.34308 15.0586 4.71808 14.2641 5.44464 13.9992C6.1712 13.7391 6.97511 14.1094 7.2423 14.8266C7.50948 15.5461 7.13214 16.343 6.40558 16.6031Z" fill="#F89A27"/>
<path d="M6.35153 16.4554C5.707 16.6874 4.9945 16.3593 4.76012 15.7242C4.52575 15.089 4.85856 14.3835 5.50309 14.1515C6.14762 13.9195 6.86012 14.2476 7.0945 14.8851C7.32653 15.5179 6.99372 16.2234 6.35153 16.4554Z" fill="#F79728"/>
<path d="M6.29777 16.3055C5.73527 16.507 5.11652 16.2234 4.91261 15.668C4.7087 15.1148 4.99698 14.5008 5.55948 14.2992C6.11964 14.0977 6.74073 14.3836 6.94698 14.9367C7.1462 15.4898 6.85792 16.1063 6.29777 16.3055Z" fill="#F79528"/>
<path d="M6.24145 16.1577C5.76332 16.3288 5.23363 16.0874 5.0602 15.614C4.88676 15.1429 5.13285 14.6202 5.61098 14.4468C6.0891 14.2757 6.61645 14.5194 6.79223 14.9905C6.96567 15.4616 6.71957 15.9866 6.24145 16.1577Z" fill="#F79329"/>
<path d="M23.0768 11.5172C22.9596 11.782 22.6784 11.9203 22.4065 11.8734C22.3573 11.864 22.3081 11.85 22.2635 11.8289C20.4284 11.0109 17.9346 11.0344 17.9112 11.0344C17.6276 11.039 17.3862 10.8515 17.3088 10.5844C17.2315 10.3148 17.3463 10.0289 17.5854 9.88592C19.6971 8.61795 22.676 8.18436 22.8002 8.16795C23.1401 8.12108 23.4518 8.35545 23.4987 8.69295C23.5456 9.03045 23.3088 9.34217 22.9737 9.39139C22.9573 9.39373 21.7362 9.56952 20.3674 10.0125C21.1292 10.1226 21.994 10.3594 22.7674 10.7015C23.0768 10.8398 23.2174 11.2078 23.0768 11.5172Z" fill="#2F2F2F"/>
<path d="M6.97516 11.5172C7.09235 11.782 7.3736 11.9203 7.64547 11.8734C7.69469 11.864 7.74391 11.85 7.78844 11.8289C9.6236 11.0109 12.1173 11.0344 12.1408 11.0344C12.4244 11.039 12.6658 10.8515 12.7431 10.5844C12.8205 10.3148 12.7056 10.0289 12.4666 9.88592C10.3548 8.61795 7.37594 8.18436 7.25172 8.16795C6.91188 8.12108 6.60016 8.35545 6.55328 8.69295C6.50641 9.03045 6.74313 9.34217 7.07828 9.39139C7.09469 9.39373 8.31578 9.56952 9.68453 10.0125C8.92281 10.1226 8.05797 10.3594 7.28453 10.7015C7.13612 10.7696 7.02045 10.8933 6.96256 11.0459C6.90466 11.1985 6.90919 11.3678 6.97516 11.5172Z" fill="#2F2F2F"/>
<path d="M22.6077 13.9735C21.8835 13.4836 20.9718 13.8071 20.1656 13.9735C17.9202 14.4375 15.9468 14.4563 14.9999 14.4563C14.0531 14.4563 12.0796 14.4375 9.8343 13.9735C9.02805 13.8071 8.11634 13.4836 7.39212 13.9735C6.47337 14.5946 7.15071 16.8211 8.59681 18.3258C9.47102 19.2352 11.5523 21 14.9999 21C18.4476 21 20.5288 19.2352 21.4031 18.3258C22.8491 16.8211 23.5241 14.5946 22.6077 13.9735Z" fill="#ED6C30"/>
</svg>
