<svg width="30" height="29" viewBox="0 0 30 29" fill="none" xmlns="http://www.w3.org/2000/svg">
<path d="M14.8628 10.3758C14.8628 10.3758 16.6722 10.4203 19.2479 9.45232C21.8237 8.48435 22.9042 7.15779 24.662 6.58123C26.4198 6.00466 28.0722 6.03982 28.8972 7.91482C29.7222 9.78982 28.9558 11.939 28.6112 12.8789C28.2667 13.8187 26.455 15.6281 24.2987 16.5867C24.2987 16.5867 19.3815 17.857 14.8651 18.0445V10.3758H14.8628Z" fill="#A1887F"/>
<path d="M14.8626 10.3759C14.8626 10.3759 13.0532 10.4204 10.4774 9.45242C7.90164 8.48445 6.79773 7.15555 5.03992 6.57898C3.28211 6.00242 1.6532 6.03992 0.828203 7.91492C0.00320309 9.78992 0.769609 11.9368 1.11414 12.8766C1.45867 13.8165 3.27039 15.6259 5.42664 16.5845C5.42664 16.5845 10.3438 17.8548 14.8602 18.0423V10.3759H14.8626Z" fill="#A1887F"/>
<path d="M7.09317 7.70867C7.09317 7.70867 4.47052 6.46648 3.59161 7.39461C3.06895 7.94773 3.15333 9.15008 4.87833 10.5891L7.09317 7.70867Z" fill="#8D6E63"/>
<path d="M22.6719 7.70867C22.6719 7.70867 25.2945 6.46648 26.1734 7.39461C26.6961 7.94773 26.6117 9.15008 24.8867 10.5891L22.6719 7.70867Z" fill="#8D6E63"/>
<path d="M14.8626 3.86719C0.762647 3.86719 0.42749 19.6734 0.42749 22.8023C0.42749 25.9312 6.89155 28.4672 14.8626 28.4672C22.8361 28.4672 29.2978 25.9312 29.2978 22.8023C29.2978 19.6734 28.965 3.86719 14.8626 3.86719Z" fill="#FCC21B"/>
<path d="M14.8625 0.773438C13.8992 0.773438 13.8031 0 12.7672 0C11.5016 0 7.74453 3.65859 7.43984 4.24687C7.19609 4.71563 6.52813 6.34219 6.44375 6.72891C6.35469 7.13672 5.77578 7.07344 5.50391 6.88828C5.50391 6.88828 7.73047 8.66953 10.0531 9.49922C12.3758 10.3266 14.8625 10.4086 14.8625 10.4086V0.773438Z" fill="#BCAAA4"/>
<path d="M14.8628 0.773438C15.8261 0.773438 15.9222 0 16.9581 0C18.2237 0 21.9644 3.66797 22.2854 4.24687C22.6159 4.84219 23.2581 6.34219 23.3589 6.77109C23.455 7.17891 23.4784 7.30781 23.7526 7.12031C23.7526 7.12031 21.9948 8.66719 19.6722 9.49688C17.3495 10.3266 14.8628 10.4086 14.8628 10.4086V0.773438Z" fill="#BCAAA4"/>
<path d="M20.8323 19.9547C20.5839 19.4696 19.9651 19.0453 19.1331 19.0664C18.2589 19.0899 16.998 19.4297 16.1612 19.5492C15.7347 19.6078 15.2941 19.636 14.8722 19.6477C14.448 19.636 14.0073 19.6102 13.5784 19.5492C12.7417 19.4297 11.4808 19.0899 10.6066 19.0664C9.77452 19.0453 9.15577 19.4696 8.90733 19.9547C8.27921 21.1594 9.60108 22.7953 10.7191 23.5453C11.898 24.3375 12.9761 24.7313 14.1855 24.8906C14.4714 24.9281 15.2589 24.9375 15.5776 24.886C16.8714 24.675 17.8042 24.3399 18.9855 23.5453C20.1011 22.7953 21.4605 21.1594 20.8323 19.9547Z" fill="#ED6C30"/>
<path d="M7.63452 6.15464C7.63452 6.15464 10.4587 5.55698 14.8673 5.34839L14.8626 10.4085C14.8626 10.4085 10.4775 10.4765 6.15796 7.38979C6.15796 7.38979 7.3814 7.8023 7.63452 6.15464Z" fill="#BCAAA4"/>
<path d="M22.0909 6.15464C22.0909 6.15464 19.1612 5.6062 14.8651 5.34839L14.8628 10.4085C14.8628 10.4085 19.194 10.5117 23.5136 7.42261C23.5136 7.42495 22.3487 7.77183 22.0909 6.15464Z" fill="#BCAAA4"/>
<path d="M29.4878 7.35464C28.9909 5.81245 27.4276 4.79761 25.5128 5.29448C23.5956 5.79136 20.8979 8.52886 19.2644 9.23902C17.6308 9.94917 15.8565 9.93042 14.8628 9.93042V10.3031C14.8628 10.3031 16.6487 10.439 19.3909 9.37495C22.1331 8.31089 23.4714 7.11558 25.6604 6.74292C27.8519 6.37027 28.8011 7.53277 29.0073 8.19136C29.3003 9.12417 29.3729 11.7468 28.0089 13.5773C27.9831 13.6125 27.9597 13.6429 27.9362 13.6734L28.0511 14.0906C28.194 13.9218 28.3276 13.7367 28.5011 13.4882C30.1323 11.1445 29.755 8.17964 29.4878 7.35464Z" fill="#BCAAA4"/>
<path d="M1.78919 13.6711C1.76576 13.6406 1.73997 13.6102 1.71419 13.5774C0.293881 11.7914 0.422787 9.12423 0.715756 8.19141C0.922006 7.53282 1.83372 6.33048 4.02513 6.70313C6.21654 7.07579 7.62982 8.34844 10.372 9.41251C13.1142 10.4766 14.8626 10.3031 14.8626 10.3031V9.93048C13.8689 9.93048 12.0947 9.94923 10.4611 9.23907C8.82748 8.52891 6.12982 5.79376 4.21263 5.29454C2.29544 4.79766 0.734506 5.81016 0.237631 7.3547C-0.0295563 8.1797 -0.404556 11.1445 1.22201 13.4906C1.38841 13.7297 1.53372 13.9219 1.65794 14.0742L1.78919 13.6711Z" fill="#BCAAA4"/>
<path opacity="0.5" d="M12.0548 0.911638C12.5541 0.693669 13.3462 1.16945 13.3884 1.83976C13.4306 2.51008 11.7291 4.16008 9.04547 4.78117C6.36188 5.40226 11.1994 1.28429 12.0548 0.911638Z" fill="#A1887F"/>
<path opacity="0.5" d="M17.6425 0.911638C17.1432 0.693669 16.3511 1.16945 16.3089 1.83976C16.2667 2.51008 17.9682 4.16008 20.6518 4.78117C23.3354 5.40226 18.5003 1.28429 17.6425 0.911638Z" fill="#A1887F"/>
<path d="M9.61279 8.79834C9.61279 8.79834 12.1229 10.2374 14.8628 10.2374C17.6026 10.2374 19.6956 9.03037 19.6956 9.03037C19.6956 9.03037 14.8628 10.5351 9.61279 8.79834Z" fill="#BCAAA4"/>
<path d="M7.74238 7.55161C7.74238 7.55161 11.0705 6.75942 15.1111 6.85317C19.1518 6.94692 21.9479 7.55161 21.9479 7.55161L22.7986 6.80864C22.7986 6.80864 19.6018 5.60864 15.0432 5.60864C10.4846 5.60864 6.92676 6.81333 6.92676 6.81333L7.74238 7.55161Z" fill="#A1887F"/>
<path d="M14.9776 5.90161C14.8065 5.90161 13.5034 6.14067 13.5034 6.28599C13.5034 6.4313 14.8019 6.62817 14.9776 6.62817C15.1534 6.62817 16.4237 6.4477 16.4237 6.32349C16.4237 6.19927 15.0831 5.90161 14.9776 5.90161Z" fill="#8D6E63"/>
<path d="M18.8167 6.13364C18.6667 6.11957 17.5089 6.22036 17.4972 6.34692C17.4854 6.47348 18.6034 6.75473 18.7558 6.76879C18.9081 6.78286 20.0331 6.73129 20.0448 6.62348C20.0565 6.51567 18.9104 6.14301 18.8167 6.13364Z" fill="#8D6E63"/>
<path d="M10.944 6.13364C11.094 6.11957 12.2518 6.22036 12.2635 6.34692C12.2753 6.47348 11.1573 6.75473 11.0049 6.76879C10.8526 6.78286 9.7276 6.73129 9.71588 6.62348C9.7065 6.51567 10.8503 6.14301 10.944 6.13364Z" fill="#8D6E63"/>
<path d="M9.75578 16.261C8.70344 16.2703 7.84094 15.2602 7.82922 14.0063C7.8175 12.7477 8.66125 11.7211 9.7136 11.7117C10.7636 11.7024 11.6284 12.7125 11.6402 13.9711C11.6519 15.2274 10.8081 16.2516 9.75578 16.261Z" fill="#2F2F2F"/>
<path d="M20.0941 16.261C21.1441 16.2586 21.9949 15.2391 21.9926 13.9852C21.9902 12.7266 21.1348 11.7118 20.0848 11.7141C19.0324 11.7165 18.1793 12.736 18.1816 13.9946C18.184 15.2508 19.0418 16.2657 20.0941 16.261Z" fill="#2F2F2F"/>
</svg>
