<svg width="30" height="26" viewBox="0 0 30 26" fill="none" xmlns="http://www.w3.org/2000/svg">
<path d="M14.9039 0C0.344532 0 0 16.3242 0 19.5563C0 22.7836 6.67266 25.4016 14.9039 25.4016C23.1352 25.4016 29.8078 22.7836 29.8078 19.5563C29.8078 16.3242 29.4656 0 14.9039 0Z" fill="#FCC21B"/>
<path d="M10.2046 12.4874C11.2298 12.4874 12.0609 11.4769 12.0609 10.2304C12.0609 8.9839 11.2298 7.97339 10.2046 7.97339C9.17946 7.97339 8.34839 8.9839 8.34839 10.2304C8.34839 11.4769 9.17946 12.4874 10.2046 12.4874Z" fill="#2F2F2F"/>
<path d="M19.5984 12.4874C20.6236 12.4874 21.4547 11.4769 21.4547 10.2304C21.4547 8.9839 20.6236 7.97339 19.5984 7.97339C18.5733 7.97339 17.7422 8.9839 17.7422 10.2304C17.7422 11.4769 18.5733 12.4874 19.5984 12.4874Z" fill="#2F2F2F"/>
<path d="M22.1696 20.8102H7.63831C5.83362 20.8102 4.35706 19.3336 4.35706 17.5289C4.35706 15.7242 5.83362 14.2477 7.63831 14.2477H22.1696C23.9742 14.2477 25.4508 15.7242 25.4508 17.5289C25.4508 19.3336 23.9742 20.8102 22.1696 20.8102Z" fill="white"/>
<path d="M22.1696 15.1852C23.461 15.1852 24.5133 16.2375 24.5133 17.5289C24.5133 18.8203 23.461 19.8727 22.1696 19.8727H7.63831C6.3469 19.8727 5.29456 18.8203 5.29456 17.5289C5.29456 16.2375 6.3469 15.1852 7.63831 15.1852H22.1696ZM22.1696 14.2477H7.63831C5.83362 14.2477 4.35706 15.7242 4.35706 17.5289C4.35706 19.3336 5.83362 20.8102 7.63831 20.8102H22.1696C23.9742 20.8102 25.4508 19.3336 25.4508 17.5289C25.4508 15.7242 23.9742 14.2477 22.1696 14.2477Z" fill="#2F2F2F"/>
<path d="M11.0227 14.6157H11.754V20.4751H11.0227V14.6157Z" fill="#2F2F2F"/>
<path d="M7.50708 14.6157H8.23833V20.4751H7.50708V14.6157Z" fill="#2F2F2F"/>
<path d="M21.5719 14.6157H22.3032V20.4751H21.5719V14.6157Z" fill="#2F2F2F"/>
<path d="M18.054 14.6157H18.7852V20.4751H18.054V14.6157Z" fill="#2F2F2F"/>
<path d="M14.5383 14.6157H15.2696V20.4751H14.5383V14.6157Z" fill="#2F2F2F"/>
<path d="M4.7063 17.1633H25.0993V17.8946H4.7063V17.1633Z" fill="#2F2F2F"/>
</svg>
