<svg width="30" height="30" viewBox="0 0 30 30" fill="none" xmlns="http://www.w3.org/2000/svg">
<path d="M15 2.2594C0.396069 2.2594 0.0491943 18.6328 0.0491943 21.8742C0.0491943 25.1157 6.74294 27.7407 15 27.7407C23.2593 27.7407 29.9508 25.1133 29.9508 21.8742C29.9508 18.6328 29.6062 2.2594 15 2.2594Z" fill="#FCC21B"/>
<path d="M21.2016 13.9733C19.4039 13.9733 17.6883 13.0733 16.6758 11.5194C16.4812 11.2218 16.5656 10.821 16.8633 10.6288C17.1609 10.4343 17.5617 10.5186 17.7539 10.8186C18.2214 11.5358 18.901 12.0892 19.698 12.4018C20.495 12.7143 21.3696 12.7705 22.2 12.5624C22.2822 12.5417 22.3676 12.5374 22.4515 12.5497C22.5353 12.5621 22.6159 12.5909 22.6886 12.6344C22.7613 12.6779 22.8247 12.7354 22.8752 12.8035C22.9257 12.8715 22.9623 12.9489 22.9828 13.0311C23.0035 13.1133 23.0078 13.1988 22.9955 13.2826C22.9831 13.3665 22.9543 13.447 22.9108 13.5198C22.8672 13.5925 22.8098 13.6559 22.7417 13.7064C22.6736 13.7568 22.5963 13.7934 22.5141 13.8139C22.0805 13.9194 21.6375 13.9733 21.2016 13.9733Z" fill="#2F2F2F"/>
<path d="M8.79842 13.9734C8.36248 13.9734 7.91951 13.9195 7.48358 13.8093C7.31765 13.7676 7.17507 13.6617 7.08718 13.5149C6.99928 13.3681 6.97326 13.1925 7.01483 13.0265C7.05682 12.8607 7.16276 12.7184 7.30946 12.6305C7.45616 12.5427 7.63169 12.5165 7.79764 12.5577C8.62804 12.7658 9.50267 12.7097 10.2996 12.3971C11.0966 12.0846 11.7762 11.5311 12.2437 10.814C12.337 10.6711 12.483 10.571 12.6499 10.5354C12.8168 10.4999 12.9909 10.5318 13.1344 10.6242C13.432 10.8187 13.5164 11.2171 13.3219 11.5148C12.314 13.0734 10.5961 13.9734 8.79842 13.9734Z" fill="#2F2F2F"/>
<path d="M15 17.9367C16.8938 17.9367 17.8102 17.0179 19.1953 17.0179C21.6961 17.0179 23.618 18.2836 23.7 19.5398C23.7703 20.5828 22.357 20.6133 21.6984 20.0508C20.9789 19.4414 20.2102 18.9117 19.2773 18.6023C18.0352 18.1898 16.7367 19.0828 15 19.0828" fill="#2F2F2F"/>
<path d="M15 17.9367C13.1063 17.9367 12.1899 17.0179 10.8047 17.0179C8.30392 17.0179 6.38205 18.2836 6.30002 19.5398C6.2297 20.5828 7.64298 20.6133 8.30158 20.0508C9.02111 19.4414 9.78986 18.9117 10.7227 18.6023C11.9649 18.1898 13.2633 19.0828 15 19.0828" fill="#2F2F2F"/>
</svg>
