<svg width="30" height="26" viewBox="0 0 30 26" fill="none" xmlns="http://www.w3.org/2000/svg">
<path d="M7.55222 18.1522C7.94867 16.633 7.32274 15.1542 6.15418 14.8492C4.98562 14.5443 3.71693 15.5287 3.32049 17.048C2.92404 18.5672 3.54997 20.046 4.71853 20.351C5.88709 20.6559 7.15578 19.6715 7.55222 18.1522Z" fill="white"/>
<path d="M26.3327 16.8085C27.0358 18.2148 26.7288 19.7898 25.6459 20.3312C24.5678 20.8702 23.1217 20.1695 22.4186 18.7656C21.7155 17.3617 22.0225 15.7843 23.103 15.2429C24.1834 14.7015 25.6295 15.4023 26.3327 16.8085Z" fill="white"/>
<path d="M6.94055 11.125H22.9484V15.4609H6.94055V11.125Z" fill="#2F2F2F"/>
<path d="M29.0913 15.4327L27.3053 15.1093C27.283 14.6628 27.2274 14.2186 27.1389 13.7804L29.1217 13.4851C29.2531 13.4652 29.3711 13.3941 29.4502 13.2874C29.5292 13.1806 29.5628 13.047 29.5436 12.9156C29.5014 12.6413 29.2436 12.4585 28.9741 12.4937L26.8881 12.8054C26.6046 11.8913 26.1897 10.9984 25.6507 10.1663C25.8944 7.8179 26.3655 1.45462 24.4577 0.172588C22.9342 -0.849287 19.3108 2.9429 18.146 4.30462C17.8764 4.61868 17.6303 4.90228 17.4053 5.16009C16.5897 5.03587 15.76 4.96556 14.9327 4.9679C14.1053 4.96556 13.278 5.03587 12.46 5.16009C12.235 4.90228 11.9913 4.61868 11.7194 4.30462C10.5522 2.9429 6.92877 -0.849287 5.40534 0.172588C3.49518 1.45462 3.96862 7.82259 4.21237 10.1687C3.67417 11.0008 3.25303 11.903 2.9608 12.8499L0.572523 12.4984C0.300648 12.4632 0.0451796 12.646 0.00533589 12.9202C-0.0345079 13.1945 0.152992 13.4476 0.427211 13.4898L2.7194 13.8296C2.64674 14.2023 2.59518 14.5726 2.5694 14.9452C2.56705 14.9804 2.56705 15.0179 2.56471 15.0531L0.460023 15.4327C0.395387 15.4444 0.333687 15.4687 0.278446 15.5043C0.223205 15.5398 0.175506 15.5859 0.138072 15.6399C0.100638 15.6938 0.0742019 15.7547 0.0602741 15.8189C0.0463463 15.8831 0.0451992 15.9494 0.0568984 16.014C0.0774901 16.1294 0.138154 16.2338 0.228196 16.3088C0.318238 16.3839 0.431878 16.4247 0.549086 16.4241C0.577211 16.4241 0.60768 16.4218 0.638148 16.4171L2.54127 16.0726C2.5483 16.5812 2.58815 17.0874 2.67018 17.5843L1.33424 18.0085C1.20787 18.0488 1.10261 18.1375 1.04154 18.2553C0.980473 18.373 0.968577 18.5102 1.00846 18.6367C1.02844 18.6995 1.0606 18.7577 1.1031 18.8081C1.14561 18.8584 1.19762 18.9 1.25618 18.9302C1.31473 18.9605 1.37867 18.9789 1.44435 18.9844C1.51002 18.9899 1.57614 18.9825 1.63893 18.9624L2.88815 18.5663C3.29127 19.9937 4.09284 21.3109 5.50612 22.3656C6.92409 23.4226 8.68659 24.1398 10.5053 24.5288C11.1944 24.6765 12.9803 25.021 14.853 25.021C16.7256 25.021 18.685 24.6765 19.3764 24.5288C21.1928 24.1398 22.9577 23.4226 24.3756 22.3656C25.7585 21.3343 26.553 20.0523 26.9655 18.6601L27.9241 18.9648C28.0506 19.0048 28.1878 18.993 28.3056 18.9319C28.4233 18.8708 28.5121 18.7654 28.5522 18.639C28.6366 18.3765 28.4913 18.0929 28.2264 18.0109L27.1905 17.6827C27.2772 17.1742 27.3241 16.6538 27.3335 16.1312L28.9202 16.4195C28.9506 16.4242 28.9811 16.4265 29.0116 16.4265C29.2483 16.4265 29.4592 16.2554 29.5038 16.0163C29.5436 15.7421 29.3631 15.482 29.0913 15.4327ZM6.8233 16.3562C6.76471 16.4898 6.68971 16.6304 6.64752 16.771C6.51627 17.2163 6.45768 17.8656 6.30065 18.4421C6.12018 19.1007 5.80612 19.6702 5.10065 19.7546C4.09752 19.8765 3.58424 18.8124 3.78815 17.9546C3.9569 17.2468 4.40924 16.6656 5.0069 16.2648C5.37487 16.0187 5.83424 15.7163 6.27721 15.632C6.45768 15.5991 6.72721 15.5265 6.90065 15.6249C7.13971 15.7679 6.90065 16.1781 6.8233 16.3562ZM7.35768 14.5327C7.14674 14.3546 7.11862 14.0429 7.2944 13.832C7.33893 13.7804 8.37018 12.5687 10.1514 12.8734C11.9303 13.1757 12.5069 14.6593 12.5303 14.7226C12.5583 14.7984 12.5676 14.8798 12.5574 14.96C12.5473 15.0401 12.518 15.1167 12.472 15.1831C12.426 15.2495 12.3647 15.3039 12.2933 15.3417C12.2219 15.3794 12.1424 15.3994 12.0616 15.3999C11.86 15.3999 11.6725 15.2781 11.5952 15.0765C11.5764 15.0273 11.178 14.064 9.98502 13.8601C8.78502 13.6562 8.09127 14.4413 8.06081 14.4765C7.88034 14.6851 7.56627 14.7109 7.35768 14.5327ZM21.7952 14.4859C21.7694 14.4554 21.0803 13.6609 19.878 13.8601C18.678 14.057 18.2772 15.0273 18.2608 15.0671C18.1835 15.2616 17.9936 15.3835 17.7944 15.3835C17.7358 15.3835 17.6725 15.3718 17.6139 15.3484C17.4912 15.3007 17.3922 15.2065 17.3387 15.0862C17.2851 14.9659 17.2813 14.8293 17.328 14.7062C17.3514 14.6429 17.935 13.164 19.7186 12.871C21.5022 12.5827 22.5264 13.7968 22.5686 13.8484C22.7444 14.0616 22.7116 14.3757 22.5006 14.5515C22.2874 14.7296 21.971 14.6992 21.7952 14.4859ZM24.5631 19.7546C23.8553 19.6702 23.5436 19.1007 23.3631 18.4421C23.2038 17.8632 23.1475 17.2163 23.0139 16.771C22.9717 16.6281 22.8967 16.4898 22.8382 16.3562C22.7608 16.1781 22.5217 15.7679 22.7655 15.6273C22.9366 15.5288 23.2085 15.6038 23.3889 15.6343C23.8319 15.7163 24.2913 16.0187 24.6592 16.2671C25.2569 16.6702 25.7092 17.2491 25.878 17.957C26.0796 18.8148 25.5686 19.8765 24.5631 19.7546Z" fill="#F79329"/>
<path d="M8.19679 18.4374C8.57179 18.4374 8.85304 18.6741 9.1296 18.8358C9.38741 18.9905 9.71788 19.0749 10.0296 19.1593C10.4093 19.2624 10.7913 19.3702 11.1851 19.4335C11.3374 19.4569 11.4921 19.4663 11.6538 19.4663C11.9421 19.4663 12.2351 19.4335 12.5069 19.389C13.1116 19.2882 13.5523 19.0187 14.0585 18.7772C14.3163 18.6554 14.5976 18.5663 14.9069 18.5663C14.9749 18.5663 15.0452 18.571 15.1179 18.5804C15.3499 18.6108 15.589 18.7022 15.7976 18.7772C16.1023 18.8874 16.3859 19.0444 16.6835 19.1733C17.1077 19.3585 17.6023 19.4382 18.1132 19.4382C18.9171 19.4382 19.7538 19.2413 20.4007 18.953C20.7241 18.8077 21.1929 18.5476 21.4741 18.5476C21.6616 18.5476 21.7694 18.6624 21.6991 19.0046C21.6007 19.478 21.4484 19.9702 21.1788 20.4085C20.7874 21.0343 20.171 21.5897 19.3835 21.9601C17.8648 22.6749 16.0929 22.8647 14.3257 22.8694H14.3187C11.628 22.8694 8.9421 21.7491 8.07257 19.7944C8.00929 19.6562 7.84991 19.2882 7.81476 18.9718C7.78195 18.6929 7.84523 18.4491 8.14757 18.4351C8.16866 18.4374 8.18273 18.4374 8.19679 18.4374ZM8.19679 17.8374C8.18741 17.8374 8.13351 17.8397 8.12179 17.8397C7.76788 17.8585 7.5546 18.0249 7.43976 18.1632C7.25226 18.3858 7.1796 18.6835 7.22413 19.0468C7.26866 19.4288 7.43741 19.839 7.53351 20.0476C8.5882 22.4124 11.7054 23.4718 14.3257 23.4718C16.571 23.4647 18.2585 23.1577 19.646 22.5038C20.5109 22.096 21.2187 21.4843 21.6921 20.7296C21.964 20.2913 22.1585 19.7687 22.2921 19.1288C22.3694 18.7585 22.3155 18.4632 22.1351 18.2429C21.9804 18.053 21.746 17.9476 21.4788 17.9476C21.1202 17.9476 20.7405 18.128 20.3749 18.3038C20.2976 18.3413 20.2273 18.3741 20.1593 18.4046C19.5523 18.6765 18.7882 18.8382 18.1155 18.8382C17.6562 18.8382 17.246 18.7655 16.9249 18.6249C16.8194 18.5804 16.7163 18.5312 16.6132 18.4796C16.421 18.3882 16.2218 18.2921 16.0015 18.2124L15.9382 18.189C15.7296 18.114 15.4694 18.0202 15.1999 17.9851C15.0991 17.971 15.0054 17.9663 14.9093 17.9663C14.5507 17.9663 14.1874 18.0554 13.8054 18.2358C13.7023 18.2851 13.6038 18.3343 13.5054 18.3835C13.1304 18.571 12.8093 18.7327 12.4085 18.7983C12.1319 18.8452 11.8765 18.8687 11.6538 18.8687C11.5179 18.8687 11.3913 18.8593 11.2788 18.8429C10.946 18.7913 10.6155 18.6999 10.2663 18.6062L10.1866 18.5851C9.88898 18.5054 9.61476 18.4304 9.43663 18.3249C9.38273 18.2921 9.33351 18.2616 9.28429 18.2312C9.02648 18.0624 8.67257 17.8374 8.19679 17.8374Z" fill="#2F2F2F"/>
<path d="M7.81945 18.9765C7.85695 19.2929 8.01398 19.6609 8.07726 19.7992C8.94913 21.7562 11.6374 22.8765 14.3304 22.8742C16.0952 22.8672 17.8671 22.6797 19.3882 21.9648C20.1757 21.5945 20.7921 21.039 21.1835 20.4133C21.4554 19.975 21.6054 19.4804 21.7038 19.0094C21.8796 18.1515 20.9421 18.7164 20.403 18.9578C19.346 19.4289 17.778 19.6539 16.6835 19.1781C16.3859 19.0492 16.1023 18.8922 15.7976 18.782C15.589 18.707 15.3476 18.6156 15.1179 18.5851C14.7265 18.5312 14.3749 18.6344 14.0585 18.782C13.5499 19.0234 13.1116 19.2906 12.5069 19.3937C12.0874 19.464 11.6116 19.5039 11.1851 19.4383C10.789 19.375 10.4093 19.2695 10.0296 19.164C9.71788 19.0797 9.38741 18.9953 9.1296 18.8406C8.84132 18.6719 8.5507 18.4234 8.15226 18.4422C7.84991 18.4539 7.78663 18.6953 7.81945 18.9765Z" fill="white"/>
<path d="M14.4264 18.0625H15.1576V23.4742H14.4264V18.0625Z" fill="#2F2F2F"/>
<path d="M11.771 18.0625H12.5022V23.4742H11.771V18.0625Z" fill="#2F2F2F"/>
<path d="M9.11316 18.0625H9.84441V23.4742H9.11316V18.0625Z" fill="#2F2F2F"/>
<path d="M19.6835 18.0625H20.4147V23.4742H19.6835V18.0625Z" fill="#2F2F2F"/>
<path d="M17.0256 18.0625H17.7592V23.4742H17.0256V18.0625Z" fill="#2F2F2F"/>
</svg>
