<svg width="30" height="30" viewBox="0 0 30 30" fill="none" xmlns="http://www.w3.org/2000/svg">
<path d="M14.9531 2.25C0.351563 2.25 0 18.6328 0 21.8672C0 25.1016 6.70313 27.7266 14.9531 27.7266C23.2031 27.7266 29.9062 25.1016 29.9062 21.8672C29.9062 18.6328 29.5547 2.25 14.9531 2.25Z" fill="#FCC21B"/>
<path d="M12 13.0312C11.6484 12.75 11.1796 12.5625 10.6406 12.4453V10.7812C10.8281 10.8516 10.9687 10.9453 11.1093 11.0859C11.2031 11.2031 11.2968 11.3203 11.3671 11.4609C11.4375 11.625 11.6015 11.7422 11.789 11.7422H11.8359C12.2109 11.7422 12.4453 11.3437 12.2812 11.0156C12.1875 10.8281 12.0703 10.6406 11.8828 10.5C11.5546 10.1719 11.1328 9.98437 10.6406 9.91406V9.72656C10.6406 9.49219 10.4531 9.30469 10.2187 9.30469C9.98433 9.30469 9.79683 9.49219 9.79683 9.72656V9.91406C9.30464 9.96094 8.88277 10.125 8.53121 10.4063C8.15621 10.7109 7.96871 11.0859 7.96871 11.4844C7.96871 11.8594 8.15621 12.2109 8.53121 12.5391C8.85933 12.8437 9.30464 13.0547 9.82027 13.1719V14.9766C9.56246 14.9297 9.32808 14.7891 9.14058 14.5781C9.02339 14.4375 8.92964 14.2734 8.88277 14.1094C8.81246 13.8984 8.62496 13.7344 8.41402 13.7344C8.08589 13.7344 7.85152 14.0625 7.94527 14.3672C8.03902 14.6484 8.20308 14.9297 8.46089 15.1641C8.83589 15.5391 9.30464 15.75 9.84371 15.8203V15.9844C9.84371 16.2187 10.0312 16.4062 10.2656 16.4062C10.5 16.4062 10.6875 16.2187 10.6875 15.9844V15.8203C11.2031 15.75 11.6718 15.5625 12.0468 15.2578C12.4453 14.9062 12.6328 14.4844 12.6328 14.0156C12.5859 13.6641 12.3984 13.3359 12 13.0312ZM11.6015 14.0625C11.6015 14.2734 11.5078 14.4609 11.2968 14.6484C11.1093 14.8125 10.8984 14.9062 10.6406 14.9531V13.3125C10.8984 13.3828 11.1328 13.4766 11.2968 13.6172C11.5078 13.7578 11.6015 13.9219 11.6015 14.0625ZM8.97652 11.4609C8.97652 11.2969 9.07027 11.1328 9.23433 10.9922C9.39839 10.875 9.58589 10.7812 9.82027 10.7344V12.2578C9.58589 12.1875 9.39839 12.0703 9.23433 11.9297C9.04683 11.7891 8.97652 11.625 8.97652 11.4609Z" fill="#2F2F2F"/>
<path d="M21.4453 13.0312C21.0937 12.75 20.625 12.5625 20.0859 12.4453V10.7812C20.2734 10.8516 20.414 10.9453 20.5546 11.0859C20.6484 11.2031 20.7421 11.3203 20.8125 11.4609C20.8828 11.625 21.0468 11.7422 21.2343 11.7422H21.2812C21.6562 11.7422 21.8906 11.3437 21.7265 11.0156C21.6328 10.8281 21.5156 10.6406 21.3281 10.5C21 10.1719 20.5781 9.98437 20.0859 9.91406V9.72656C20.0859 9.49219 19.8984 9.30469 19.664 9.30469C19.4296 9.30469 19.2421 9.49219 19.2421 9.72656V9.91406C18.75 9.96094 18.3281 10.125 17.9765 10.4063C17.6015 10.7109 17.414 11.0859 17.414 11.4844C17.414 11.8594 17.6015 12.2109 17.9765 12.5391C18.3046 12.8437 18.75 13.0547 19.2656 13.1719V14.9766C19.0078 14.9297 18.7734 14.7891 18.5859 14.5781C18.4687 14.4375 18.375 14.2734 18.3281 14.1094C18.2578 13.8984 18.0703 13.7344 17.8593 13.7344C17.5312 13.7344 17.2968 14.0625 17.3906 14.3672C17.4843 14.6484 17.6484 14.9297 17.9062 15.1641C18.2812 15.5391 18.75 15.75 19.289 15.8203V15.9844C19.289 16.2187 19.4765 16.4062 19.7109 16.4062C19.9453 16.4062 20.1328 16.2187 20.1328 15.9844V15.8203C20.6484 15.75 21.1171 15.5625 21.4921 15.2578C21.8906 14.9062 22.0781 14.4844 22.0781 14.0156C22.0546 13.6641 21.8437 13.3359 21.4453 13.0312ZM21.0703 14.0625C21.0703 14.2734 20.9765 14.4609 20.7656 14.6484C20.5781 14.8125 20.3671 14.9062 20.1093 14.9531V13.3125C20.3671 13.3828 20.6015 13.4766 20.7656 13.6172C20.9531 13.7578 21.0703 13.9219 21.0703 14.0625ZM18.4218 11.4609C18.4218 11.2969 18.5156 11.1328 18.6796 10.9922C18.8437 10.875 19.0312 10.7812 19.2656 10.7344V12.2578C19.0312 12.1875 18.8437 12.0703 18.6796 11.9297C18.5156 11.7891 18.4218 11.625 18.4218 11.4609Z" fill="#2F2F2F"/>
<path d="M14.9766 19.5H9.84375C11.0156 21.1875 9.79688 26.0625 12.7031 27.8672C13.2422 28.1953 14.2031 28.3828 14.9531 28.3828" fill="#7CB342"/>
<path d="M14.9766 28.4062C15.7266 28.4062 16.6875 28.2187 17.2266 27.8906C20.1562 26.0859 18.9141 21.2109 20.0859 19.5234H14.9766" fill="#7CB342"/>
<path d="M8.0625 19.125L8.27344 19.1953C12.7266 20.5313 17.4609 20.5078 21.8906 19.125" stroke="#2F2F2F" stroke-width="1.40625" stroke-miterlimit="10" stroke-linecap="round" stroke-linejoin="round"/>
<path d="M16.5234 24.5625C16.1953 24.3281 15.7969 24.1406 15.3281 24.0469V22.5703C15.4922 22.6172 15.6328 22.7109 15.75 22.8516C15.8438 22.9453 15.9141 23.0625 15.9609 23.1797C16.0313 23.3203 16.1719 23.4375 16.3359 23.4375H16.3828C16.7109 23.4375 16.9219 23.0859 16.7813 22.7812C16.7109 22.6172 16.5938 22.4531 16.4297 22.3125C16.125 22.0312 15.75 21.8438 15.3281 21.7969V21.6328C15.3281 21.4219 15.1641 21.2578 14.9531 21.2578C14.7422 21.2578 14.5781 21.4219 14.5781 21.6328V21.7969C14.1328 21.8438 13.7578 21.9844 13.4531 22.2422C13.125 22.5234 12.9375 22.8281 12.9375 23.2031C12.9375 23.5547 13.1016 23.8594 13.4297 24.1406C13.7344 24.3984 14.1094 24.5859 14.5781 24.7031V26.2969C14.3438 26.25 14.1328 26.1328 13.9688 25.9453C13.8516 25.8281 13.7813 25.6875 13.7344 25.5469C13.6875 25.3594 13.5234 25.2188 13.3125 25.2188C13.0078 25.2188 12.7969 25.5 12.8906 25.7813C12.9844 26.0391 13.125 26.2734 13.3359 26.4844C13.6641 26.8125 14.0859 27.0234 14.5547 27.0703V27.2109C14.5547 27.4219 14.7188 27.5859 14.9297 27.5859C15.1406 27.5859 15.3047 27.4219 15.3047 27.2109V27.0703C15.7734 27.0234 16.1719 26.8594 16.5 26.5547C16.8516 26.25 17.0391 25.875 17.0391 25.4531C17.0625 25.125 16.875 24.8203 16.5234 24.5625ZM16.1719 25.4766C16.1719 25.6641 16.0781 25.8281 15.9141 25.9922C15.75 26.1328 15.5625 26.2266 15.3281 26.2734V24.8203C15.5625 24.8906 15.7734 24.9844 15.9141 25.1016C16.1016 25.2188 16.1719 25.3594 16.1719 25.4766ZM13.8281 23.1563C13.8281 22.9922 13.8984 22.875 14.0625 22.7578C14.2031 22.6406 14.3672 22.5703 14.5781 22.5234V23.8828C14.3672 23.8125 14.2031 23.7188 14.0625 23.6016C13.9219 23.4609 13.8281 23.3203 13.8281 23.1563Z" fill="#2F2F2F"/>
</svg>
