<svg width="30" height="26" viewBox="0 0 30 26" fill="none" xmlns="http://www.w3.org/2000/svg">
<path d="M14.9508 0C0.346875 0 0 16.3734 0 19.6148C0 22.8563 6.69375 25.4813 14.9508 25.4813C23.2102 25.4813 29.9016 22.8539 29.9016 19.6148C29.9016 16.3734 29.557 0 14.9508 0Z" fill="#FCC21B"/>
<path d="M14.9789 21.1359C14.175 21.1359 13.3687 21.0351 12.5766 20.8289C12.3964 20.7812 12.2424 20.6644 12.148 20.5037C12.0536 20.343 12.0265 20.1516 12.0726 19.971C12.12 19.7908 12.2369 19.6368 12.3978 19.5428C12.5586 19.4487 12.7502 19.4224 12.9305 19.4695C15.6609 20.182 18.6047 19.4203 20.6133 17.482C20.6796 17.4177 20.758 17.3673 20.844 17.3334C20.9299 17.2996 21.0217 17.2831 21.114 17.2848C21.2064 17.2865 21.2975 17.3065 21.3821 17.3436C21.4667 17.3806 21.5431 17.434 21.607 17.5007C21.6713 17.5671 21.7217 17.6455 21.7556 17.7314C21.7894 17.8174 21.8059 17.9092 21.8042 18.0015C21.8025 18.0938 21.7825 18.1849 21.7454 18.2695C21.7084 18.3541 21.655 18.4306 21.5883 18.4945C19.8141 20.2054 17.4187 21.1359 14.9789 21.1359Z" fill="#2F2F2F"/>
<path d="M13.0148 13.739L13.0101 13.7437C13.0101 13.7414 13.0125 13.739 13.0148 13.739Z" fill="#2F2F2F"/>
<path d="M12.1125 13.9077C11.8969 13.9077 11.6836 13.7975 11.5641 13.5983C11.536 13.5491 10.936 12.6022 9.63285 12.4569C9.45942 13.5772 10.0383 14.4374 11.011 14.4303C11.5407 14.4257 12.0868 14.1632 12.5414 13.746C12.511 13.7741 12.4758 13.7999 12.4383 13.821C12.3352 13.8796 12.225 13.9077 12.1125 13.9077Z" fill="#2F2F2F"/>
<path d="M10.104 11.2335C9.83672 11.1823 9.56513 11.1572 9.29303 11.1585C7.00318 11.1585 5.96725 12.8718 5.92506 12.9444C5.74693 13.2444 5.84771 13.6335 6.15006 13.814C6.4524 13.9944 6.84146 13.896 7.02428 13.596C7.05475 13.5468 7.75318 12.4335 9.29537 12.4335C9.4149 12.4335 9.52506 12.4429 9.63521 12.4546C9.64928 12.3608 9.66803 12.2671 9.69146 12.1733C9.77584 11.8382 9.92115 11.5218 10.104 11.2335Z" fill="#2F2F2F"/>
<path d="M12.6656 12.9445C12.6258 12.8812 11.8313 11.5663 10.1039 11.2335C9.92109 11.5218 9.77578 11.8382 9.68906 12.1734C9.66328 12.2695 9.64687 12.3632 9.63281 12.4546C10.9359 12.5999 11.5359 13.5468 11.5641 13.596C11.6512 13.7407 11.792 13.845 11.9558 13.8863C12.1195 13.9276 12.293 13.9024 12.4383 13.8163C12.4758 13.7952 12.5086 13.7695 12.5414 13.7413L12.5461 13.7366C12.7617 13.5398 12.8203 13.2093 12.6656 12.9445Z" fill="#2F2F2F"/>
<path d="M23.5804 13.9077C23.3648 13.9077 23.1515 13.7975 23.032 13.5983C23.0039 13.5491 22.4039 12.6022 21.1008 12.4569C20.9273 13.5772 21.5062 14.4374 22.4789 14.4303C23.0086 14.4257 23.5547 14.1632 24.0093 13.746C23.9789 13.7741 23.9437 13.7999 23.9062 13.821C23.8031 13.8796 23.6929 13.9077 23.5804 13.9077Z" fill="#2F2F2F"/>
<path d="M21.5719 11.2335C21.3046 11.1823 21.033 11.1572 20.7609 11.1585C18.4711 11.1585 17.4351 12.8718 17.393 12.9444C17.2148 13.2444 17.3156 13.6335 17.618 13.814C17.9203 13.9944 18.3094 13.896 18.4922 13.596C18.5226 13.5468 19.2211 12.4335 20.7633 12.4335C20.8828 12.4335 20.993 12.4429 21.1031 12.4546C21.1172 12.3608 21.1359 12.2671 21.1594 12.1733C21.2437 11.8382 21.389 11.5218 21.5719 11.2335Z" fill="#2F2F2F"/>
<path d="M24.1335 12.9445C24.0937 12.8812 23.2991 11.5663 21.5718 11.2335C21.389 11.5218 21.2437 11.8382 21.157 12.1734C21.1312 12.2695 21.1148 12.3632 21.1007 12.4546C22.4038 12.5999 23.0038 13.5468 23.032 13.596C23.1191 13.7407 23.2599 13.845 23.4237 13.8863C23.5874 13.9276 23.7609 13.9024 23.9062 13.8163C23.9437 13.7952 23.9765 13.7695 24.0093 13.7413L24.014 13.7366C24.2296 13.5398 24.2882 13.2093 24.1335 12.9445Z" fill="#2F2F2F"/>
</svg>
