<svg width="26" height="26" viewBox="0 0 26 26" fill="none" xmlns="http://www.w3.org/2000/svg">
<path d="M12.9615 4.59473C0.755679 4.59473 0.46521 18.2772 0.46521 20.9869C0.46521 23.6946 6.06131 25.8903 12.9615 25.8903C19.8637 25.8903 25.4577 23.6946 25.4577 20.9869C25.4557 18.2793 25.1672 4.59473 12.9615 4.59473Z" fill="#FFE6B3"/>
<path d="M20.8183 20.6477C19.1466 21.2469 17.3042 20.4019 16.6969 18.7525C16.0916 17.1052 16.9488 15.2811 18.6185 14.6779C20.2841 14.0786 22.1325 14.9277 22.7419 16.575C23.3472 18.2244 22.486 20.0485 20.8183 20.6477Z" fill="#FCE8BB"/>
<path d="M20.7736 20.5258C19.171 21.1006 17.4017 20.2902 16.8188 18.7078C16.2399 17.1275 17.0625 15.3766 18.6652 14.7997C20.2638 14.2248 22.035 15.0394 22.62 16.6197C23.1989 18.202 22.3742 19.9509 20.7736 20.5258Z" fill="#FCE4B8"/>
<path d="M20.7289 20.4039C19.1933 20.9544 17.5012 20.1785 16.9426 18.6631C16.3861 17.1499 17.1742 15.4741 18.7078 14.9195C20.2394 14.3691 21.9355 15.1491 22.4961 16.6624C23.0526 18.1777 22.2605 19.8535 20.7289 20.4039Z" fill="#FCDFB5"/>
<path d="M20.6842 20.282C19.2176 20.8081 17.5987 20.0667 17.0665 18.6184C16.5344 17.1722 17.288 15.5715 18.7545 15.0414C20.217 14.5153 21.838 15.2607 22.3742 16.707C22.9044 18.1553 22.1487 19.7579 20.6842 20.282Z" fill="#FCDBB3"/>
<path d="M20.6396 20.1602C19.2401 20.6619 17.6984 19.953 17.1885 18.5738C16.6807 17.1946 17.3998 15.6671 18.7973 15.1633C20.1927 14.6616 21.7385 15.3725 22.2484 16.7518C22.7562 18.133 22.0351 19.6605 20.6396 20.1602Z" fill="#FDD6B0"/>
<path d="M20.5948 20.0403C19.2644 20.5176 17.7958 19.8433 17.3123 18.5311C16.8309 17.2189 17.5134 15.7665 18.8439 15.2851C20.1703 14.8078 21.6409 15.4842 22.1284 16.7964C22.6098 18.1106 21.9233 19.563 20.5948 20.0403Z" fill="#FDD2AD"/>
<path d="M20.5502 19.9185C19.2867 20.3715 17.8933 19.7316 17.4362 18.4865C16.9792 17.2413 17.6272 15.8621 18.8886 15.4071C20.148 14.9541 21.5434 15.596 22.0045 16.8411C22.4616 18.0863 21.8095 19.4655 20.5502 19.9185Z" fill="#FDCDAA"/>
<path d="M20.5054 19.7966C19.311 20.2252 17.9928 19.6198 17.5581 18.4417C17.1254 17.2636 17.7388 15.9595 18.9332 15.5289C20.1256 15.1003 21.4459 15.7077 21.8806 16.8858C22.3132 18.0639 21.6978 19.368 20.5054 19.7966Z" fill="#FDC9A7"/>
<path d="M20.4607 19.6747C19.3334 20.0789 18.0903 19.5081 17.682 18.3971C17.2737 17.286 17.8526 16.0571 18.9779 15.6488C20.1012 15.2446 21.3464 15.8174 21.7587 16.9285C22.1649 18.0416 21.586 19.2705 20.4607 19.6747Z" fill="#FDC4A5"/>
<path d="M20.4161 19.5528C19.3578 19.9326 18.1899 19.3964 17.8039 18.3523C17.42 17.3083 17.9644 16.1525 19.0227 15.7706C20.0789 15.3908 21.2489 15.929 21.6349 16.9731C22.0188 18.0172 21.4724 19.175 20.4161 19.5528Z" fill="#FDC0A2"/>
<path d="M20.3714 19.431C19.3802 19.7864 18.2874 19.2847 17.9278 18.3077C17.5683 17.3307 18.0782 16.25 19.0674 15.8925C20.0546 15.5371 21.1494 16.0408 21.511 17.0179C21.8705 17.9949 21.3607 19.0775 20.3714 19.431Z" fill="#FDBB9F"/>
<path d="M20.3268 19.3111C19.4046 19.6422 18.3869 19.175 18.0518 18.265C17.7166 17.355 18.1919 16.3475 19.1121 16.0144C20.0322 15.6833 21.0519 16.1525 21.3891 17.0625C21.7222 17.9725 21.2469 18.98 20.3268 19.3111Z" fill="#FEB79C"/>
<path d="M20.282 19.1893C19.4269 19.496 18.4844 19.0633 18.1736 18.2204C17.8628 17.3774 18.3036 16.4451 19.1567 16.1363C20.0098 15.8296 20.9544 16.2643 21.2652 17.1072C21.5759 17.9502 21.1352 18.8826 20.282 19.1893Z" fill="#FEB299"/>
<path d="M20.2374 19.0673C19.4513 19.3497 18.5819 18.9516 18.2975 18.1756C18.0132 17.3997 18.4153 16.5425 19.2014 16.2581C19.9855 15.9758 20.8549 16.3759 21.1433 17.1519C21.4277 17.9258 21.0214 18.785 20.2374 19.0673Z" fill="#FEAE96"/>
<path d="M20.1926 18.9455C19.4736 19.2035 18.6814 18.8399 18.4194 18.131C18.1594 17.4221 18.527 16.638 19.2461 16.378C19.9631 16.12 20.7573 16.4857 21.0194 17.1946C21.2794 17.9035 20.9097 18.6875 20.1926 18.9455Z" fill="#FEA994"/>
<path d="M20.148 18.8236C19.498 19.0572 18.7789 18.7281 18.5433 18.0862C18.3076 17.4444 18.6408 16.7354 19.2908 16.4998C19.9387 16.2662 20.6578 16.5973 20.8955 17.2392C21.1311 17.8811 20.7959 18.59 20.148 18.8236Z" fill="#FEA591"/>
<path d="M20.1033 18.7018C19.5203 18.911 18.8784 18.6144 18.6672 18.0416C18.4559 17.4668 18.7545 16.831 19.3375 16.6218C19.9184 16.4125 20.5623 16.7091 20.7756 17.2839C20.9848 17.8588 20.6842 18.4946 20.1033 18.7018Z" fill="#FEA08E"/>
<path d="M20.0587 18.5819C19.5448 18.7667 18.976 18.5047 18.7891 17.9989C18.6023 17.4911 18.8663 16.9305 19.3802 16.7436C19.8941 16.5587 20.4609 16.8208 20.6498 17.3286C20.8366 17.8344 20.5705 18.397 20.0587 18.5819Z" fill="#FE9C8B"/>
<path d="M20.014 18.4601C19.5671 18.6205 19.0755 18.393 18.913 17.9543C18.7505 17.5135 18.9801 17.026 19.4269 16.8655C19.8718 16.7051 20.3654 16.9326 20.5279 17.3733C20.6883 17.8121 20.4588 18.2996 20.014 18.4601Z" fill="#FF9788"/>
<path d="M19.9693 18.3381C19.5915 18.4742 19.173 18.2813 19.037 17.9095C18.8988 17.5358 19.0938 17.1234 19.4716 16.9874C19.8494 16.8513 20.2679 17.0442 20.406 17.418C20.5421 17.7897 20.3471 18.202 19.9693 18.3381Z" fill="#FF9386"/>
<path d="M19.9246 18.2163C19.6138 18.328 19.2726 18.1696 19.1588 17.8649C19.0471 17.5582 19.2055 17.221 19.5163 17.1072C19.8251 16.9955 20.1683 17.1539 20.2821 17.4607C20.3938 17.7653 20.2333 18.1046 19.9246 18.2163Z" fill="#FF8E83"/>
<path d="M19.8799 18.0944C19.6382 18.1817 19.3701 18.0578 19.2827 17.8202C19.1954 17.5805 19.3193 17.3164 19.561 17.2291C19.8027 17.1417 20.0709 17.2656 20.1582 17.5033C20.2455 17.743 20.1216 18.007 19.8799 18.0944Z" fill="#FF8A80"/>
<path d="M7.30024 20.802C5.62853 21.4012 3.78618 20.5562 3.17884 18.9068C2.57353 17.2595 3.43071 15.4354 5.1004 14.8322C6.76603 14.2329 8.61446 15.082 9.22384 16.7293C9.82915 18.3787 8.9679 20.2028 7.30024 20.802Z" fill="#FCE8BB"/>
<path d="M7.25563 20.6801C5.65297 21.2549 3.88375 20.4444 3.30078 18.8621C2.71985 17.2818 3.5425 15.5309 5.14516 14.954C6.74375 14.3791 8.515 15.1937 9.1 16.774C9.68094 18.3563 8.85422 20.1052 7.25563 20.6801Z" fill="#FCE4B8"/>
<path d="M7.21083 20.5582C5.6752 21.1087 3.98317 20.3328 3.42458 18.8174C2.86802 17.3042 3.65614 15.6284 5.18974 15.0738C6.7213 14.5234 8.41739 15.3034 8.97802 16.8167C9.53255 18.332 8.74239 20.0078 7.21083 20.5582Z" fill="#FCDFB5"/>
<path d="M7.16626 20.4364C5.69969 20.9625 4.08079 20.2191 3.5486 18.7728C3.01641 17.3266 3.77001 15.7239 5.23657 15.1958C6.69907 14.6697 8.32001 15.4152 8.85626 16.8614C9.38641 18.3097 8.62876 19.9124 7.16626 20.4364Z" fill="#FCDBB3"/>
<path d="M7.12154 20.3145C5.72201 20.8162 4.17825 20.1073 3.67044 18.7281C3.16263 17.3489 3.88169 15.8214 5.27919 15.3176C6.67466 14.8159 8.22044 15.5268 8.73029 16.9061C9.2381 18.2873 8.51701 19.8148 7.12154 20.3145Z" fill="#FDD6B0"/>
<path d="M7.07676 20.1946C5.74629 20.6719 4.2777 19.9976 3.79426 18.6854C3.31285 17.3732 3.99535 15.9208 5.32582 15.4394C6.65223 14.9621 8.12286 15.6385 8.61036 16.9507C9.08973 18.2649 8.4052 19.7172 7.07676 20.1946Z" fill="#FDD2AD"/>
<path d="M7.03209 20.0728C5.76865 20.5258 4.37521 19.8859 3.91818 18.6408C3.46115 17.3956 4.10912 16.0164 5.37052 15.5614C6.6299 15.1084 8.02537 15.7503 8.48646 16.9954C8.94146 18.2406 8.29146 19.6198 7.03209 20.0728Z" fill="#FDCDAA"/>
<path d="M6.98747 19.9509C5.79309 20.3795 4.47481 19.7741 4.04012 18.596C3.60747 17.4179 4.2209 16.1138 5.41528 15.6832C6.60762 15.2546 7.92794 15.862 8.36262 17.0401C8.79528 18.2182 8.17981 19.5223 6.98747 19.9509Z" fill="#FDC9A7"/>
<path d="M6.94279 19.829C5.81545 20.2332 4.57232 19.6624 4.16404 18.5514C3.75576 17.4403 4.33467 16.2093 5.45998 15.8031C6.58326 15.3989 7.82842 15.9717 8.24076 17.0828C8.64701 18.1959 8.06607 19.4248 6.94279 19.829Z" fill="#FDC4A5"/>
<path d="M6.89805 19.7072C5.83977 20.087 4.6718 19.5508 4.28586 18.5067C3.90196 17.4627 4.44633 16.3069 5.50461 15.925C6.56086 15.5452 7.73086 16.0835 8.1168 17.1275C8.49868 18.1736 7.9543 19.3294 6.89805 19.7072Z" fill="#FDC0A2"/>
<path d="M6.85338 19.5873C5.86213 19.9428 4.76931 19.4411 4.40978 18.4641C4.05025 17.487 4.56009 16.4064 5.54931 16.0489C6.5365 15.6934 7.63134 16.1972 7.99291 17.1742C8.35244 18.1492 7.84056 19.2319 6.85338 19.5873Z" fill="#FDBB9F"/>
<path d="M6.80868 19.4655C5.88649 19.7966 4.86884 19.3294 4.53368 18.4194C4.19853 17.5094 4.67181 16.5019 5.59399 16.1688C6.51415 15.8377 7.53384 16.3069 7.87103 17.2169C8.20415 18.1269 7.72884 19.1344 6.80868 19.4655Z" fill="#FEB79C"/>
<path d="M6.76394 19.3436C5.90878 19.6503 4.96629 19.2176 4.6555 18.3747C4.34472 17.5317 4.78347 16.5994 5.63863 16.2906C6.49175 15.9839 7.43629 16.4186 7.74707 17.2615C8.05582 18.1045 7.61503 19.0369 6.76394 19.3436Z" fill="#FEB299"/>
<path d="M6.71931 19.2216C5.93322 19.504 5.06384 19.1059 4.77947 18.3299C4.49509 17.554 4.89728 16.6948 5.68337 16.4124C6.46743 16.1301 7.33681 16.5302 7.62525 17.3062C7.90759 18.0821 7.50337 18.9393 6.71931 19.2216Z" fill="#FEAE96"/>
<path d="M6.67461 19.0998C5.95555 19.3578 5.16336 18.9942 4.90336 18.2853C4.64336 17.5764 5.01102 16.7923 5.73008 16.5323C6.44711 16.2743 7.24133 16.64 7.50336 17.3489C7.76133 18.0578 7.38961 18.8418 6.67461 19.0998Z" fill="#FEA994"/>
<path d="M6.62782 18.9779C5.97782 19.2115 5.25876 18.8824 5.02313 18.2405C4.78751 17.5986 5.12063 16.8877 5.77063 16.6541C6.4186 16.4205 7.13766 16.7516 7.37532 17.3935C7.61297 18.0354 7.27782 18.7463 6.62782 18.9779Z" fill="#FEA591"/>
<path d="M6.58312 18.8581C6.00015 19.0674 5.35828 18.7728 5.14703 18.198C4.93578 17.6231 5.23437 16.9874 5.81734 16.7781C6.39828 16.5689 7.04218 16.8655 7.25547 17.4403C7.46468 18.0131 7.16609 18.6489 6.58312 18.8581Z" fill="#FEA08E"/>
<path d="M6.53852 18.7362C6.02462 18.921 5.45587 18.659 5.26899 18.1532C5.08212 17.6454 5.34618 17.0848 5.86009 16.8979C6.37399 16.713 6.94071 16.9751 7.12962 17.4829C7.31853 17.9887 7.05243 18.5513 6.53852 18.7362Z" fill="#FE9C8B"/>
<path d="M6.49383 18.6144C6.04695 18.7748 5.55539 18.5473 5.39289 18.1086C5.23039 17.6678 5.45992 17.1803 5.9068 17.0198C6.35164 16.8594 6.84523 17.0869 7.00773 17.5276C7.17023 17.9664 6.9407 18.4539 6.49383 18.6144Z" fill="#FF9788"/>
<path d="M6.44915 18.4925C6.07134 18.6285 5.6529 18.4356 5.51681 18.0639C5.37868 17.6901 5.57368 17.2778 5.9515 17.1417C6.32931 17.0056 6.74775 17.1985 6.88587 17.5703C7.02196 17.944 6.82696 18.3564 6.44915 18.4925Z" fill="#FF9386"/>
<path d="M6.40441 18.3706C6.09363 18.4823 5.75238 18.3239 5.63863 18.0192C5.52488 17.7125 5.68535 17.3733 5.99613 17.2615C6.30488 17.1498 6.64816 17.3083 6.76191 17.6129C6.87566 17.9217 6.71519 18.2589 6.40441 18.3706Z" fill="#FF8E83"/>
<path d="M6.35978 18.2508C6.11806 18.3361 5.84994 18.2142 5.76259 17.9765C5.67525 17.7368 5.79915 17.4728 6.04087 17.3854C6.28259 17.2981 6.55072 17.422 6.63806 17.6597C6.72743 17.8973 6.6015 18.1634 6.35978 18.2508Z" fill="#FF8A80"/>
<path d="M17.5884 16.0896C18.9111 16.0896 19.9833 14.9437 19.9833 13.5302C19.9833 12.1167 18.9111 10.9708 17.5884 10.9708C16.2658 10.9708 15.1936 12.1167 15.1936 13.5302C15.1936 14.9437 16.2658 16.0896 17.5884 16.0896Z" fill="white"/>
<path d="M8.32807 16.0896C9.65071 16.0896 10.7229 14.9437 10.7229 13.5302C10.7229 12.1167 9.65071 10.9708 8.32807 10.9708C7.00544 10.9708 5.93323 12.1167 5.93323 13.5302C5.93323 14.9437 7.00544 16.0896 8.32807 16.0896Z" fill="white"/>
<path d="M8.3402 14.8932C7.70645 14.8993 7.18848 14.3224 7.18035 13.6054C7.17426 12.8863 7.68207 12.2993 8.31379 12.2952C8.94551 12.2891 9.46551 12.866 9.47363 13.5871C9.47973 14.3021 8.97191 14.8871 8.3402 14.8932Z" fill="#2F2F2F"/>
<path d="M17.5926 14.8931C18.2244 14.8931 18.7383 14.3102 18.7362 13.5931C18.7342 12.8741 18.2203 12.2931 17.5866 12.2952C16.9528 12.2972 16.4389 12.8781 16.4409 13.5992C16.443 14.3142 16.9589 14.8952 17.5926 14.8931Z" fill="#2F2F2F"/>
<path d="M12.9615 18.4539C14.0575 18.4539 14.946 17.5654 14.946 16.4694C14.946 15.3734 14.0575 14.4849 12.9615 14.4849C11.8654 14.4849 10.9769 15.3734 10.9769 16.4694C10.9769 17.5654 11.8654 18.4539 12.9615 18.4539Z" fill="#DB4437"/>
<path d="M12.9716 22.5205C11.1861 22.5205 9.58751 21.9355 8.47845 21.0356C7.79595 20.4811 7.35923 20.1094 7.15204 19.3477C6.9672 18.6713 7.56845 17.9563 8.63079 18.9313C9.05736 19.3233 10.4163 20.5339 12.9716 20.5339C15.5269 20.5339 16.8838 19.3213 17.3124 18.9313C18.3747 17.9563 18.9759 18.6713 18.7911 19.3477C18.5819 20.1094 18.1472 20.4791 17.4647 21.0356C16.3556 21.9355 14.757 22.5205 12.9716 22.5205Z" fill="#421503" stroke="#DB4437" stroke-width="0.91075" stroke-miterlimit="10"/>
<path d="M3.21743 13C4.42901 13 5.41118 12.0179 5.41118 10.8063C5.41118 9.59472 4.42901 8.61255 3.21743 8.61255C2.00586 8.61255 1.02368 9.59472 1.02368 10.8063C1.02368 12.0179 2.00586 13 3.21743 13Z" fill="#3890F9"/>
<path d="M2.51874 11.6453C3.77295 11.6453 4.78968 10.6285 4.78968 9.37433C4.78968 8.12013 3.77295 7.10339 2.51874 7.10339C1.26454 7.10339 0.247803 8.12013 0.247803 9.37433C0.247803 10.6285 1.26454 11.6453 2.51874 11.6453Z" fill="#3890F9"/>
<path d="M3.76991 10.329C5.23726 10.329 6.42679 9.13948 6.42679 7.67213C6.42679 6.20478 5.23726 5.01526 3.76991 5.01526C2.30256 5.01526 1.11304 6.20478 1.11304 7.67213C1.11304 9.13948 2.30256 10.329 3.76991 10.329Z" fill="#3890F9"/>
<path d="M5.84194 11.2267C7.05352 11.2267 8.0357 10.2446 8.0357 9.03299C8.0357 7.82141 7.05352 6.83923 5.84194 6.83923C4.63037 6.83923 3.64819 7.82141 3.64819 9.03299C3.64819 10.2446 4.63037 11.2267 5.84194 11.2267Z" fill="#3890F9"/>
<path d="M4.7896 9.90854C6.11897 9.90854 7.19663 8.83088 7.19663 7.50151C7.19663 6.17215 6.11897 5.09448 4.7896 5.09448C3.46023 5.09448 2.38257 6.17215 2.38257 7.50151C2.38257 8.83088 3.46023 9.90854 4.7896 9.90854Z" fill="#3890F9"/>
<path d="M6.04494 7.69241C7.51229 7.69241 8.70181 6.50289 8.70181 5.03554C8.70181 3.56819 7.51229 2.37866 6.04494 2.37866C4.57758 2.37866 3.38806 3.56819 3.38806 5.03554C3.38806 6.50289 4.57758 7.69241 6.04494 7.69241Z" fill="#3890F9"/>
<path d="M8.98416 10.1258C10.1957 10.1258 11.1779 9.14361 11.1779 7.93203C11.1779 6.72046 10.1957 5.73828 8.98416 5.73828C7.77258 5.73828 6.79041 6.72046 6.79041 7.93203C6.79041 9.14361 7.77258 10.1258 8.98416 10.1258Z" fill="#3890F9"/>
<path d="M8.12908 7.79197C9.45844 7.79197 10.5361 6.7143 10.5361 5.38494C10.5361 4.05557 9.45844 2.97791 8.12908 2.97791C6.79971 2.97791 5.72205 4.05557 5.72205 5.38494C5.72205 6.7143 6.79971 7.79197 8.12908 7.79197Z" fill="#3890F9"/>
<path d="M9.48598 6.00442C10.9533 6.00442 12.1429 4.8149 12.1429 3.34755C12.1429 1.8802 10.9533 0.690674 9.48598 0.690674C8.01863 0.690674 6.8291 1.8802 6.8291 3.34755C6.8291 4.8149 8.01863 6.00442 9.48598 6.00442Z" fill="#3890F9"/>
<path d="M22.7926 13C24.0042 13 24.9864 12.0179 24.9864 10.8063C24.9864 9.59472 24.0042 8.61255 22.7926 8.61255C21.5811 8.61255 20.5989 9.59472 20.5989 10.8063C20.5989 12.0179 21.5811 13 22.7926 13Z" fill="#3890F9"/>
<path d="M23.4385 11.6351C24.6905 11.6351 25.7054 10.6202 25.7054 9.36819C25.7054 8.11623 24.6905 7.10132 23.4385 7.10132C22.1865 7.10132 21.1716 8.11623 21.1716 9.36819C21.1716 10.6202 22.1865 11.6351 23.4385 11.6351Z" fill="#3890F9"/>
<path d="M22.2401 10.329C23.7075 10.329 24.897 9.13948 24.897 7.67213C24.897 6.20478 23.7075 5.01526 22.2401 5.01526C20.7728 5.01526 19.5833 6.20478 19.5833 7.67213C19.5833 9.13948 20.7728 10.329 22.2401 10.329Z" fill="#3890F9"/>
<path d="M20.1662 11.2267C21.3777 11.2267 22.3599 10.2446 22.3599 9.03299C22.3599 7.82141 21.3777 6.83923 20.1662 6.83923C18.9546 6.83923 17.9724 7.82141 17.9724 9.03299C17.9724 10.2446 18.9546 11.2267 20.1662 11.2267Z" fill="#3890F9"/>
<path d="M21.2184 9.90854C22.5478 9.90854 23.6255 8.83088 23.6255 7.50151C23.6255 6.17215 22.5478 5.09448 21.2184 5.09448C19.8891 5.09448 18.8114 6.17215 18.8114 7.50151C18.8114 8.83088 19.8891 9.90854 21.2184 9.90854Z" fill="#3890F9"/>
<path d="M19.9652 7.69241C21.4326 7.69241 22.6221 6.50289 22.6221 5.03554C22.6221 3.56819 21.4326 2.37866 19.9652 2.37866C18.4979 2.37866 17.3083 3.56819 17.3083 5.03554C17.3083 6.50289 18.4979 7.69241 19.9652 7.69241Z" fill="#3890F9"/>
<path d="M17.0259 10.1258C18.2375 10.1258 19.2197 9.14361 19.2197 7.93203C19.2197 6.72046 18.2375 5.73828 17.0259 5.73828C15.8143 5.73828 14.8322 6.72046 14.8322 7.93203C14.8322 9.14361 15.8143 10.1258 17.0259 10.1258Z" fill="#3890F9"/>
<path d="M17.881 7.79197C19.2104 7.79197 20.2881 6.7143 20.2881 5.38494C20.2881 4.05557 19.2104 2.97791 17.881 2.97791C16.5517 2.97791 15.474 4.05557 15.474 5.38494C15.474 6.7143 16.5517 7.79197 17.881 7.79197Z" fill="#3890F9"/>
<path d="M16.5222 6.00442C17.9896 6.00442 19.1791 4.8149 19.1791 3.34755C19.1791 1.8802 17.9896 0.690674 16.5222 0.690674C15.0549 0.690674 13.8654 1.8802 13.8654 3.34755C13.8654 4.8149 15.0549 6.00442 16.5222 6.00442Z" fill="#3890F9"/>
<path d="M13.0894 5.42349C14.5567 5.42349 15.7462 4.23397 15.7462 2.76662C15.7462 1.29926 14.5567 0.109741 13.0894 0.109741C11.622 0.109741 10.4325 1.29926 10.4325 2.76662C10.4325 4.23397 11.622 5.42349 13.0894 5.42349Z" fill="#3890F9"/>
<path d="M13.0893 8.79741C14.8977 8.79741 16.3637 7.33142 16.3637 5.52303C16.3637 3.71465 14.8977 2.24866 13.0893 2.24866C11.2809 2.24866 9.81494 3.71465 9.81494 5.52303C9.81494 7.33142 11.2809 8.79741 13.0893 8.79741Z" fill="#3890F9"/>
<path d="M13.0893 9.70946C14.5073 9.70946 15.6568 8.55995 15.6568 7.14196C15.6568 5.72397 14.5073 4.57446 13.0893 4.57446C11.6714 4.57446 10.5219 5.72397 10.5219 7.14196C10.5219 8.55995 11.6714 9.70946 13.0893 9.70946Z" fill="#3890F9"/>
</svg>
