<svg width="30" height="26" viewBox="0 0 30 26" fill="none" xmlns="http://www.w3.org/2000/svg">
<path d="M14.9719 0C0.344532 0 0 16.3969 0 19.6406C0 22.8891 6.70078 25.5188 14.9719 25.5188C23.2406 25.5188 29.9437 22.8891 29.9437 19.6406C29.9437 16.3969 29.5969 0 14.9719 0Z" fill="#FCC21B"/>
<path d="M9.87427 12.532C8.4188 12.5461 7.22349 11.1468 7.20708 9.41013C7.19067 7.66638 8.3602 6.24607 9.81567 6.23201C11.2711 6.22029 12.4665 7.61716 12.4829 9.36091C12.4969 11.1 11.3297 12.5179 9.87427 12.532Z" fill="#2F2F2F"/>
<path d="M20.2032 11.632C21.2415 11.6297 22.0829 10.6219 22.0805 9.38205C22.0782 8.13752 21.2321 7.13205 20.1938 7.13674C19.1532 7.13908 18.3094 8.14689 18.3118 9.39142C18.3165 10.6313 19.1626 11.6344 20.2032 11.632Z" fill="#2F2F2F"/>
<path d="M19.622 13.4742C16.247 13.2961 14.8782 15.3304 12.1665 15.3304C10.6618 15.3304 9.72666 14.7703 7.98525 15.2015C6.64697 15.532 6.14307 16.8468 6.14307 17.5687C6.14307 18.2906 6.64932 19.6054 7.98525 19.9359C9.72666 20.3648 10.6618 19.807 12.1665 19.807C14.8782 19.807 16.2446 21.839 19.622 21.6632C22.0243 21.5367 23.8103 19.8492 23.8009 17.5687C23.8103 15.2859 22.0243 13.5984 19.622 13.4742Z" fill="#ED6C30"/>
</svg>
