<svg width="27" height="27" viewBox="0 0 27 27" fill="none" xmlns="http://www.w3.org/2000/svg">
<g clip-path="url(#clip0)">
<path d="M13.4557 1.82251C0.312187 1.82251 0 16.5586 0 19.4759C0 22.3931 6.02438 24.7556 13.4557 24.7556C20.8891 24.7556 26.9114 22.391 26.9114 19.4759C26.9114 16.5586 26.6013 1.82251 13.4557 1.82251Z" fill="#FCC21B"/>
<path d="M23.1061 19.1743C21.1022 19.8935 18.8916 18.8789 18.1618 16.9003C17.4361 14.9239 18.4634 12.7364 20.4673 12.0129C22.4649 11.2936 24.6818 12.3125 25.4138 14.2889C26.1394 16.2696 25.1058 18.4571 23.1061 19.1743Z" fill="#FCC21B"/>
<path d="M23.0576 19.0413C21.1275 19.7353 18.9992 18.7566 18.2989 16.8539C17.6007 14.9513 18.59 12.8461 20.5179 12.15C22.4417 11.4581 24.5743 12.439 25.2788 14.3416C25.977 16.2443 24.9814 18.3495 23.0576 19.0413Z" fill="#FCC01C"/>
<path d="M23.0069 18.9063C21.1528 19.5728 19.1067 18.6342 18.4317 16.8032C17.7609 14.9765 18.7143 12.9515 20.5664 12.2828C22.4163 11.6184 24.4645 12.5592 25.1416 14.388C25.8124 16.2189 24.8568 18.2439 23.0069 18.9063Z" fill="#FCBE1C"/>
<path d="M22.9585 18.7734C21.1782 19.4125 19.2165 18.5118 18.5689 16.7547C17.9234 14.9997 18.8368 13.057 20.615 12.4157C22.389 11.7766 24.357 12.6815 25.0067 14.4365C25.6501 16.1936 24.7346 18.1364 22.9585 18.7734Z" fill="#FBBB1D"/>
<path d="M22.91 18.6384C21.2056 19.2502 19.324 18.3874 18.706 16.7041C18.0879 15.023 18.9633 13.1625 20.6677 12.5487C22.3679 11.937 24.2515 12.8039 24.8738 14.4851C25.4876 16.1684 24.6101 18.0288 22.91 18.6384Z" fill="#FBB91E"/>
<path d="M22.8593 18.5056C21.2287 19.092 19.4315 18.2651 18.8388 16.6578C18.2482 15.0504 19.0856 13.2722 20.714 12.6837C22.3383 12.0994 24.1397 12.9263 24.7345 14.5336C25.3251 16.1431 24.4856 17.9213 22.8593 18.5056Z" fill="#FBB71E"/>
<path d="M22.8109 18.3727C21.2563 18.9317 19.5413 18.1428 18.976 16.6092C18.4128 15.0757 19.2102 13.3798 20.7648 12.8187C22.3152 12.2618 24.0343 13.0507 24.6017 14.5842C25.1628 16.1178 24.3613 17.8158 22.8109 18.3727Z" fill="#FBB51F"/>
<path d="M22.7601 18.2377C21.2794 18.7693 19.6467 18.0204 19.1109 16.5586C18.5751 15.099 19.3345 13.4853 20.8132 12.9516C22.2898 12.42 23.9245 13.1731 24.4645 14.6328C25.0003 16.0925 24.2367 17.7082 22.7601 18.2377Z" fill="#FAB220"/>
<path d="M22.7117 18.1047C21.3068 18.6089 19.7564 17.898 19.246 16.5121C18.7376 15.1263 19.459 13.5928 20.8617 13.0865C22.2624 12.5824 23.8149 13.2975 24.3274 14.6812C24.8379 16.0671 24.1123 17.6006 22.7117 18.1047Z" fill="#FAB020"/>
<path d="M22.6631 17.9697C21.3321 18.4465 19.8661 17.7736 19.383 16.4615C18.9021 15.1495 19.5834 13.6983 20.9123 13.2194C22.2391 12.7427 23.7094 13.4177 24.1945 14.7297C24.6755 16.0418 23.9899 17.493 22.6631 17.9697Z" fill="#FAAE21"/>
<path d="M22.6126 17.8369C21.3575 18.2883 19.9737 17.6512 19.516 16.413C19.0625 15.1748 19.7058 13.8058 20.9588 13.3544C22.2097 12.9051 23.5976 13.5422 24.0554 14.7804C24.511 16.0165 23.8655 17.3876 22.6126 17.8369Z" fill="#FAAC22"/>
<path d="M22.564 17.7018C21.3849 18.1258 20.0813 17.5289 19.6531 16.3624C19.2249 15.2001 19.8324 13.9113 21.0115 13.4852C22.1885 13.0612 23.4921 13.6624 23.9224 14.8246C24.3485 15.9911 23.741 17.2799 22.564 17.7018Z" fill="#F9A922"/>
<path d="M22.5155 17.569C21.4102 17.9656 20.1909 17.4066 19.7902 16.316C19.3894 15.2276 19.9568 14.021 21.0621 13.6224C22.1653 13.2258 23.3866 13.7869 23.7895 14.8774C24.1861 15.9659 23.6166 17.1724 22.5155 17.569Z" fill="#F9A723"/>
<path d="M22.4649 17.434C21.4355 17.8031 20.2986 17.2821 19.9231 16.2654C19.5497 15.2508 20.0792 14.1265 21.1086 13.7531C22.1358 13.384 23.2749 13.9071 23.6504 14.9238C24.0237 15.9405 23.4922 17.0669 22.4649 17.434Z" fill="#F9A524"/>
<path d="M22.4162 17.3011C21.4607 17.6449 20.406 17.1598 20.0601 16.2169C19.7141 15.2761 20.2035 14.232 21.1591 13.8881C22.1125 13.5464 23.1672 14.0316 23.5152 14.9723C23.8612 15.9152 23.3697 16.9594 22.4162 17.3011Z" fill="#F9A324"/>
<path d="M22.3656 17.1682C21.486 17.4846 20.5136 17.0374 20.1951 16.1684C19.8766 15.3014 20.328 14.3395 21.2076 14.0231C22.0851 13.7067 23.0575 14.156 23.3803 15.023C23.6988 15.8899 23.2453 16.8518 22.3656 17.1682Z" fill="#F8A025"/>
<path d="M22.3172 17.0332C21.5114 17.3222 20.6233 16.9151 20.3301 16.1199C20.039 15.3267 20.4525 14.4471 21.2561 14.156C22.0598 13.8671 22.95 14.2763 23.2432 15.0715C23.5364 15.8646 23.1208 16.7442 22.3172 17.0332Z" fill="#F89E26"/>
<path d="M22.2687 16.9004C21.5389 17.1619 20.7331 16.7928 20.4673 16.0714C20.2037 15.3521 20.577 14.5547 21.3069 14.2911C22.0367 14.0295 22.8425 14.4008 23.1104 15.1201C23.3741 15.8393 22.9965 16.6388 22.2687 16.9004Z" fill="#F89C26"/>
<path d="M22.218 16.7653C21.562 17.0016 20.8385 16.6683 20.6002 16.0207C20.3618 15.3752 20.6993 14.6602 21.3532 14.4218C22.0071 14.1877 22.7306 14.5209 22.9711 15.1664C23.2116 15.814 22.872 16.5312 22.218 16.7653Z" fill="#F89A27"/>
<path d="M22.1695 16.6324C21.5894 16.8412 20.9482 16.5459 20.7372 15.9743C20.5263 15.4026 20.8258 14.7677 21.4059 14.5589C21.986 14.35 22.6272 14.6453 22.8382 15.2191C23.047 15.7886 22.7475 16.4235 22.1695 16.6324Z" fill="#F79728"/>
<path d="M22.121 16.4974C21.6147 16.6788 21.0578 16.4236 20.8743 15.9237C20.6908 15.4259 20.9503 14.8732 21.4565 14.6918C21.9607 14.5104 22.5196 14.7677 22.7053 15.2656C22.8846 15.7634 22.6251 16.3181 22.121 16.4974Z" fill="#F79528"/>
<path d="M22.0704 16.3646C21.6401 16.5186 21.1634 16.3013 21.0073 15.8752C20.8512 15.4512 21.0727 14.9808 21.503 14.8247C21.9333 14.6708 22.4079 14.8901 22.5661 15.3141C22.7222 15.7381 22.5007 16.2106 22.0704 16.3646Z" fill="#F79329"/>
<path d="M6.65302 19.1743C4.64911 19.8935 2.43849 18.8789 1.70864 16.9003C0.983016 14.9239 2.01028 12.7364 4.01419 12.0129C6.01177 11.2936 8.22872 12.3125 8.96067 14.2889C9.6863 16.2696 8.65271 18.4571 6.65302 19.1743Z" fill="#FCC21B"/>
<path d="M6.60462 19.0413C4.67454 19.7353 2.54618 18.7566 1.84586 16.8539C1.14766 14.9513 2.13696 12.8461 4.06493 12.15C5.98868 11.4581 8.12126 12.439 8.82579 14.3416C9.52399 16.2443 8.52837 18.3495 6.60462 19.0413Z" fill="#FCC01C"/>
<path d="M6.55392 18.9064C4.69978 19.5729 2.65368 18.6343 1.97868 16.8033C1.3079 14.9766 2.26134 12.9516 4.11337 12.2829C5.96329 11.6185 8.01149 12.5593 8.6886 14.3881C9.35939 16.219 8.40384 18.244 6.55392 18.9064Z" fill="#FCBE1C"/>
<path d="M6.50538 18.7735C4.72507 19.4127 2.76335 18.512 2.11577 16.7548C1.4703 14.9998 2.38366 13.0571 4.16187 12.4159C5.93585 11.7767 7.9039 12.6816 8.55359 14.4366C9.19694 16.1938 8.28148 18.1365 6.50538 18.7735Z" fill="#FBBB1D"/>
<path d="M6.45684 18.6384C4.75246 19.2502 2.8709 18.3874 2.25285 16.7041C1.63481 15.023 2.5102 13.1625 4.21457 12.5487C5.91473 11.937 7.7984 12.8039 8.42067 14.4851C9.0345 16.1684 8.157 18.0288 6.45684 18.6384Z" fill="#FBB91E"/>
<path d="M6.40627 18.5056C4.77573 19.092 2.97854 18.2651 2.3858 16.6577C1.79518 15.0504 2.6326 13.2722 4.26104 12.6837C5.88526 12.0994 7.68666 12.9263 8.28151 14.5336C8.87213 16.1431 8.0326 17.9213 6.40627 18.5056Z" fill="#FBB71E"/>
<path d="M6.35774 18.3727C4.80313 18.9317 3.08821 18.1428 2.5229 16.6092C1.95969 15.0757 2.75704 13.3798 4.31165 12.8187C5.86204 12.2618 7.58118 13.0507 8.1486 14.5842C8.70969 16.1178 7.90813 17.8158 6.35774 18.3727Z" fill="#FBB51F"/>
<path d="M6.30714 18.2377C4.82636 18.7693 3.1937 18.0204 2.65792 16.5586C2.12214 15.099 2.88152 13.4853 4.36019 12.9516C5.83675 12.42 7.47151 13.1731 8.01151 14.6328C8.5473 16.0925 7.7837 17.7082 6.30714 18.2377Z" fill="#FAB220"/>
<path d="M6.25853 18.1048C4.85368 18.609 3.30329 17.8981 2.79283 16.5123C2.28447 15.1264 3.00587 13.5929 4.40861 13.0866C5.80923 12.5825 7.36173 13.2976 7.87431 14.6813C8.38478 16.0672 7.65915 17.6007 6.25853 18.1048Z" fill="#FAB020"/>
<path d="M6.21 17.9697C4.87898 18.4465 3.41296 17.7736 2.92992 16.4615C2.44898 15.1495 3.13031 13.6983 4.45921 13.2194C5.78601 12.7427 7.25625 13.4177 7.7414 14.7297C8.22234 16.0418 7.53679 17.493 6.21 17.9697Z" fill="#FAAE21"/>
<path d="M6.15943 17.8369C4.90435 18.2883 3.5206 17.6512 3.06287 16.413C2.60935 15.1748 3.25271 13.8058 4.50568 13.3544C5.75654 12.9051 7.14451 13.5422 7.60224 14.7804C8.05787 16.0165 7.4124 17.3876 6.15943 17.8369Z" fill="#FAAC22"/>
<path d="M6.11099 17.7019C4.93185 18.1259 3.62826 17.529 3.20006 16.3625C2.77185 15.2002 3.37935 13.9114 4.5585 13.4853C5.73553 13.0613 7.03912 13.6625 7.46943 14.8248C7.89553 15.9912 7.28803 17.2801 6.11099 17.7019Z" fill="#F9A922"/>
<path d="M6.06246 17.569C4.95715 17.9656 3.73793 17.4066 3.33715 16.316C2.93637 15.2276 3.50379 14.021 4.6091 13.6224C5.71231 13.2258 6.93363 13.7869 7.33652 14.8774C7.73309 15.9659 7.16356 17.1724 6.06246 17.569Z" fill="#F9A723"/>
<path d="M6.01165 17.434C4.98228 17.8031 3.84533 17.2821 3.46986 16.2654C3.0965 15.2508 3.62595 14.1265 4.65532 13.7531C5.68259 13.384 6.82165 13.9071 7.19712 14.9238C7.57048 15.9405 7.03892 17.0669 6.01165 17.434Z" fill="#F9A524"/>
<path d="M5.96324 17.3011C5.00769 17.6449 3.95301 17.1598 3.60707 16.2169C3.26113 15.2761 3.75051 14.232 4.70605 13.8881C5.65949 13.5464 6.71418 14.0316 7.06222 14.9723C7.40816 15.9152 6.91668 16.9594 5.96324 17.3011Z" fill="#F9A324"/>
<path d="M5.91264 17.1682C5.03303 17.4846 4.06061 17.0374 3.7421 16.1684C3.42358 15.3014 3.87499 14.3395 4.7546 14.0231C5.6321 13.7067 6.60452 14.156 6.92725 15.023C7.24577 15.8899 6.79225 16.8518 5.91264 17.1682Z" fill="#F8A025"/>
<path d="M5.86415 17.0332C5.05837 17.3222 4.17033 16.9151 3.87712 16.1199C3.58603 15.3267 3.99947 14.4471 4.80314 14.156C5.60681 13.8671 6.49697 14.2763 6.79017 15.0715C7.08337 15.8646 6.66783 16.7442 5.86415 17.0332Z" fill="#F89E26"/>
<path d="M5.81562 16.9004C5.08578 17.1619 4.27999 16.7928 4.01421 16.0714C3.75054 15.3521 4.1239 14.5547 4.85374 14.2911C5.58359 14.0295 6.38937 14.4008 6.65726 15.1201C6.92093 15.8393 6.54335 16.6388 5.81562 16.9004Z" fill="#F89C26"/>
<path d="M5.76504 16.7653C5.10903 17.0016 4.38551 16.6683 4.14715 16.0207C3.90879 15.3752 4.24629 14.6602 4.9002 14.4218C5.55411 14.1877 6.27762 14.5209 6.51809 15.1664C6.75856 15.814 6.41895 16.5312 5.76504 16.7653Z" fill="#F89A27"/>
<path d="M5.71638 16.6325C5.1363 16.8413 4.49505 16.546 4.28411 15.9744C4.07317 15.4027 4.3727 14.7678 4.95278 14.559C5.53286 14.3502 6.17411 14.6455 6.38505 15.2192C6.59388 15.7887 6.29434 16.4237 5.71638 16.6325Z" fill="#F79728"/>
<path d="M5.66796 16.4974C5.16171 16.6788 4.60484 16.4236 4.42132 15.9237C4.23781 15.4259 4.49726 14.8732 5.00351 14.6918C5.50765 14.5104 6.06663 14.7677 6.25226 15.2656C6.43156 15.7634 6.1721 16.3181 5.66796 16.4974Z" fill="#F79528"/>
<path d="M5.61728 16.3646C5.18696 16.5186 4.71025 16.3013 4.55415 15.8752C4.39806 15.4512 4.61954 14.9808 5.04986 14.8247C5.48017 14.6708 5.95478 14.8901 6.11298 15.3141C6.26907 15.7381 6.04759 16.2106 5.61728 16.3646Z" fill="#F79329"/>
<path d="M6.53057 11.4867C6.45187 11.6166 6.32499 11.7102 6.1776 11.7469C6.03021 11.7837 5.87426 11.7607 5.74378 11.6829C5.61359 11.6056 5.51924 11.4799 5.48131 11.3333C5.44338 11.1867 5.46493 11.0311 5.54128 10.9003C5.57924 10.8349 6.51159 9.29297 8.57245 9.29297C10.6354 9.29297 11.5678 10.8349 11.6078 10.9003C11.6588 10.9879 11.6858 11.0874 11.686 11.1888C11.6863 11.2901 11.6599 11.3897 11.6094 11.4776C11.559 11.5655 11.4862 11.6386 11.3986 11.6894C11.3109 11.7403 11.2114 11.7671 11.11 11.7673C10.916 11.7673 10.724 11.6681 10.6164 11.4888C10.589 11.4424 9.95831 10.4426 8.57245 10.4426C7.18659 10.4405 6.5601 11.4424 6.53057 11.4867Z" fill="#2F2F2F"/>
<path d="M21.3046 11.6838C21.2138 11.7387 21.1126 11.764 21.0156 11.764C20.8173 11.764 20.6253 11.6606 20.5178 11.4813C20.4946 11.4391 19.8681 10.4393 18.4801 10.4393C17.0689 10.4393 16.4424 11.4708 16.4361 11.4813C16.3571 11.6093 16.231 11.7012 16.085 11.7372C15.9389 11.7732 15.7846 11.7506 15.6551 11.6741C15.5256 11.5976 15.4312 11.4734 15.3923 11.3281C15.3533 11.1828 15.3729 11.028 15.4468 10.897C15.4848 10.8316 16.4171 9.28967 18.4801 9.28967C20.541 9.28967 21.4712 10.8316 21.5092 10.897C21.6695 11.1712 21.5767 11.5235 21.3046 11.6838Z" fill="#2F2F2F"/>
<path d="M20.347 14.3985C19.6952 13.9577 18.8747 14.2488 18.1491 14.3985C16.1283 14.8162 14.3522 14.8331 13.5 14.8331C12.6478 14.8331 10.8717 14.8162 8.85092 14.3985C8.1253 14.2488 7.30475 13.9577 6.65295 14.3985C5.82608 14.9575 6.43569 16.9614 7.73717 18.3157C8.52397 19.1341 10.3971 20.7225 13.5 20.7225C16.6029 20.7225 18.476 19.1341 19.2628 18.3157C20.5643 16.9614 21.1718 14.9575 20.347 14.3985Z" fill="#ED6C30"/>
</g>
<defs>
<clipPath id="clip0">
<rect width="27" height="27" fill="white"/>
</clipPath>
</defs>
</svg>
