<svg width="30" height="26" viewBox="0 0 30 26" fill="none" xmlns="http://www.w3.org/2000/svg">
<path d="M14.9508 0C0.346875 0 0 16.3734 0 19.6148C0 22.8563 6.69375 25.4813 14.9508 25.4813C23.2102 25.4813 29.9016 22.8539 29.9016 19.6148C29.9016 16.3734 29.557 0 14.9508 0Z" fill="url(#paint0_linear)"/>
<path d="M23.7039 9.4826C23.9417 7.34576 22.5179 5.43363 20.5239 5.21172C18.5299 4.98982 16.7206 6.54217 16.4828 8.67901C16.245 10.8158 17.6687 12.728 19.6628 12.9499C21.6568 13.1718 23.4661 11.6194 23.7039 9.4826Z" fill="white"/>
<path d="M21.6609 9.07498C21.607 9.84842 20.9249 10.439 20.1398 10.3922C19.3523 10.3476 18.757 9.67967 18.8109 8.90623C18.8624 8.13045 19.5421 7.54217 20.3296 7.58904C21.1171 7.63357 21.7148 8.30154 21.6609 9.07498Z" fill="#2F2F2F"/>
<path d="M10.1954 12.966C12.196 12.8151 13.6868 10.9548 13.5251 8.81088C13.3634 6.66694 11.6105 5.05125 9.60983 5.20214C7.60916 5.35302 6.11838 7.21335 6.28008 9.35729C6.44177 11.5012 8.19471 13.1169 10.1954 12.966Z" fill="white"/>
<path d="M11.4398 8.78672C11.5288 9.55781 10.9687 10.2633 10.1882 10.3617C9.40539 10.4625 8.69757 9.9164 8.60851 9.14765C8.51476 8.37656 9.07492 7.67109 9.85773 7.57031C10.6382 7.47187 11.3484 8.01797 11.4398 8.78672Z" fill="#2F2F2F"/>
<path d="M21.2859 18.2461C20.0812 15.9844 18.1406 15.1289 15.7429 14.8851C15.5156 14.864 15.2648 14.8523 14.9999 14.85C14.7351 14.8523 14.4843 14.864 14.257 14.8875C11.8593 15.1312 9.91869 15.9867 8.71401 18.2484C7.90776 19.7625 8.05072 21.2156 9.17572 22.0008C9.75463 22.4039 10.8984 22.3804 11.6203 22.1531C12.3984 21.907 13.3757 21.4758 14.6226 21.45C14.7492 21.4476 14.8757 21.4523 14.9976 21.4617C15.1218 21.4523 15.246 21.4476 15.3726 21.45C16.6195 21.4758 17.5968 21.9094 18.3749 22.1531C19.0968 22.3804 20.2429 22.4039 20.8195 22.0008C21.9492 21.2133 22.0921 19.7625 21.2859 18.2461Z" fill="#ED6C30"/>
<defs>
<linearGradient id="paint0_linear" x1="14.9508" y1="13.3657" x2="14.9508" y2="-1.25719" gradientUnits="userSpaceOnUse">
<stop stop-color="#FCC21B"/>
<stop offset="0.151" stop-color="#E5BF34"/>
<stop offset="0.473" stop-color="#ABB973"/>
<stop offset="0.935" stop-color="#4FAFD8"/>
<stop offset="1" stop-color="#42ADE7"/>
</linearGradient>
</defs>
</svg>
