<svg width="500" height="500" viewBox="0 0 500 500" fill="none" xmlns="http://www.w3.org/2000/svg">
<g clip-path="url(#clip0)">
<path d="M42.1548 481.809C34.7931 484.018 27.7953 477.442 29.5428 469.957L65.8441 314.48L195.078 435.924L42.1548 481.809Z" fill="#D99E82"/>
<mask id="mask0" mask-type="alpha" maskUnits="userSpaceOnUse" x="29" y="314" width="167" height="169">
<path d="M42.1548 481.809C34.7931 484.018 27.7953 477.442 29.5428 469.957L65.8441 314.48L195.078 435.924L42.1548 481.809Z" fill="#D99E82"/>
</mask>
<g mask="url(#mask0)">
<ellipse cx="39.6242" cy="472.797" rx="31.8961" ry="19.7756" transform="rotate(43.2202 39.6242 472.797)" fill="#292F33"/>
<path d="M93.6876 515.647C82.843 493.32 136.428 389.339 162.583 375.942L274.857 422.511L203.41 525.854L93.6876 515.647Z" fill="#BF8366"/>
</g>
<rect x="278.154" y="88.5527" width="177.342" height="310.03" transform="rotate(43.2202 278.154 88.5527)" fill="#D6504F"/>
<rect x="359.041" y="164.565" width="66.3438" height="310.03" transform="rotate(43.2202 359.041 164.565)" fill="#CD3A39"/>
<path d="M343.374 19.1491C358.502 3.05047 383.816 2.26388 399.915 17.3921L470.851 84.0524C486.949 99.1806 487.736 124.495 472.608 140.594L427.483 188.613L298.249 67.1686L343.374 19.1491Z" fill="#F3788A"/>
<mask id="mask1" mask-type="alpha" maskUnits="userSpaceOnUse" x="298" y="6" width="186" height="183">
<path d="M343.374 19.1491C358.502 3.05047 383.816 2.26388 399.915 17.3921L470.851 84.0524C486.949 99.1806 487.736 124.495 472.608 140.594L427.483 188.613L298.249 67.1686L343.374 19.1491Z" fill="#F3788A"/>
</mask>
<g mask="url(#mask1)">
<path d="M357.434 170.933C357.434 170.933 413.764 81.1796 509.274 71.1381L551.533 123.98L424.146 236.25L357.434 170.933Z" fill="#E8596D"/>
</g>
<rect x="298.249" y="67.1687" width="177.342" height="29.3444" transform="rotate(43.2202 298.249 67.1687)" fill="#C5C5C5"/>
<rect x="379.136" y="143.181" width="66.3438" height="29.3444" transform="rotate(43.2202 379.136 143.181)" fill="#AA9A9A"/>
</g>
<defs>
<clipPath id="clip0">
<rect width="500" height="500" fill="white"/>
</clipPath>
</defs>
</svg>
