<svg width="500" height="500" viewBox="0 0 500 500" fill="none" xmlns="http://www.w3.org/2000/svg">
<path d="M90.1844 427.405C82.8227 429.614 75.8248 423.038 77.5723 415.553L105.176 297.326L206.47 392.514L90.1844 427.405Z" fill="#D99E82"/>
<mask id="mask0" mask-type="alpha" maskUnits="userSpaceOnUse" x="29" y="297" width="178" height="176">
<path d="M90.1844 427.405C82.8227 429.614 75.8248 423.038 77.5723 415.553L105.176 297.326L206.47 392.514L90.1844 427.405Z" fill="#D99E82"/>
</mask>
<g mask="url(#mask0)">
<ellipse cx="84.6254" cy="421.414" rx="25" ry="15.5" transform="rotate(43.2202 84.6254 421.414)" fill="#292F33"/>
<path d="M127 455C118.5 437.5 160.5 356 181 345.5L269 382L213 463L127 455Z" fill="#BF8366"/>
</g>
<rect x="271.584" y="120.245" width="139" height="243" transform="rotate(43.2202 271.584 120.245)" fill="#D6504F"/>
<rect x="334.983" y="179.823" width="52" height="243" transform="rotate(43.2202 334.983 179.823)" fill="#CD3A39"/>
<path d="M316.781 72.1491C331.909 56.0505 357.223 55.2639 373.322 70.3921L416.317 110.796C432.416 125.924 433.202 151.238 418.074 167.337L388.627 198.672L287.334 103.484L316.781 72.1491Z" fill="#F3788A"/>
<mask id="mask1" mask-type="alpha" maskUnits="userSpaceOnUse" x="287" y="43" width="159" height="156">
<path d="M316.781 72.1491C331.909 56.0505 357.223 55.2639 373.322 70.3921L416.317 110.796C432.416 125.924 433.202 151.238 418.074 167.337L388.627 198.672L287.334 103.484L316.781 72.1491Z" fill="#F3788A"/>
</mask>
<g mask="url(#mask1)">
<path d="M333.723 184.814C333.723 184.814 377.875 114.466 452.735 106.596L485.857 148.013L386.012 236.01L333.723 184.814Z" fill="#E8596D"/>
</g>
<rect x="287.334" y="103.484" width="139" height="23" transform="rotate(43.2202 287.334 103.484)" fill="#C5C5C5"/>
<rect x="350.734" y="163.062" width="52" height="23" transform="rotate(43.2202 350.734 163.062)" fill="#AA9A9A"/>
</svg>
